<svg id="Layer_1" xmlns="http://www.w3.org/2000/svg" xmlns:xlink="http://www.w3.org/1999/xlink" viewBox="0 0 611.1 718.5"><style>.st0{fill:#e9f3fc}.st1{fill:#fff}.st2{fill:#00d0c0}.st3{fill:#ff912b}.st4{fill:#0f54a3}.st5,.st6{opacity:.5;fill:#2289e5;enable-background:new}.st6{opacity:.8}.st7{fill:#00d1c1}.st8,.st9{fill:#2289e5}.st9{opacity:.3;enable-background:new}.st10{fill:#c1def8}.st12{fill:#4ea1ea}.st13{fill:#90c4f2}.st14{fill:#fff;stroke:#c1def8;stroke-width:.92;stroke-linecap:round;stroke-linejoin:round}.st15{fill:#7ab8ef}.st17{fill:#d3e7fa}.st19{fill:#f95252}.st20{fill:#8a69d4}.st22{fill:#fff;stroke:#231f20;stroke-width:.69;stroke-linecap:round;stroke-linejoin:round}.st24{fill:#f7b21e}.st25{fill:#a7d0f5}.st26{fill:none}.st27{fill:#33dacd}.st28{fill:#66e3da}.st29{fill:#ffe9d5}.st30{fill:#ffd3aa}.st31{fill:#fed412}.st34{fill:#2c2c2c}.st36{opacity:.35;fill:#222;enable-background:new}.st38{fill:none;stroke:#ffc9aa;stroke-width:13.8;stroke-linecap:round;stroke-miterlimit:10}.st41{fill:#ffedad}.st44{fill:#ff8854}.st46{fill:#ffd5be}.st47,.st48{fill:none;stroke:#0f54a3;stroke-width:13.8;stroke-linecap:round;stroke-miterlimit:10}.st48{stroke:#007a86;stroke-width:14.83}.st49{fill:#198792}.st51{fill:#1cd6c8}.st54{fill:#ff8893}</style><g id="Layer_2_1_"><g id="illustra"><path class="st0" d="M566.7 252.9v417.4L137.5 422.5V5.1z"/><path class="st1" d="M566.3 253.1v21.5L137.1 26.8V5.3z"/><ellipse transform="rotate(-31.589 554.312 256.786)" class="st2" cx="554.3" cy="256.8" rx="3.3" ry="5.7"/><ellipse transform="rotate(-31.589 542.6 249.595)" class="st3" cx="542.6" cy="249.6" rx="3.3" ry="5.7"/><ellipse transform="rotate(-31.589 530.466 243.302)" class="st4" cx="530.4" cy="243.3" rx="3.3" ry="5.7"/><path class="st5" d="M575.6 247.7l-9.3 5.3v417.5l9.3-5.3z"/><path class="st1" d="M381 403v128.4L158.5 403V274.5z"/><path class="st6" d="M390.2 397.6v74.9l-9.2 5.3V403z"/><path class="st0" d="M371.7 408.3v53.5l-37.1-21.4v-53.5z"/><ellipse transform="rotate(-31.461 350.637 417.035)" class="st7" cx="350.7" cy="417.1" rx="7.5" ry="12.9"/><path class="st8" d="M365.1 441.7v10.9l-26.2-15.3v-10.9z"/><path class="st0" d="M381 477.9l-.1 42.8-92.6-53.5v-42.8z"/><path class="st9" d="M371.6 504.6l-74.1-42.8-9.2 5.4 92.6 53.5.1-10.7z"/><path class="st10" d="M288.3 424.4l9.2 5.3v32.1l-9.2 5.4zM381 403l9.2-5.4-222.4-128.4-9.3 5.3z"/><path class="st0" d="M316.1 376.2v54.1l-37.4-21.6v-54.2z"/><ellipse transform="rotate(-31.589 297.549 384.283)" class="st7" cx="297.5" cy="384.3" rx="7.5" ry="13"/><path class="st8" d="M309.7 409.5v10.9l-26.3-15.3v-10.9z"/><path class="st0" d="M260.5 344.1v53.5l-37.1-21.4v-53.5z"/><ellipse transform="rotate(-31.589 241.926 352.175)" class="st7" cx="241.9" cy="352.2" rx="7.5" ry="13"/><path class="st8" d="M254.1 377.4v10.9L227.8 373v-10.9z"/><path class="st0" d="M204.9 312v53.5l-37.1-21.4v-53.5z"/><ellipse transform="rotate(-31.589 186.311 320.062)" class="st7" cx="186.3" cy="320" rx="7.5" ry="13"/><path class="st8" d="M198.5 345.3v10.9l-26.3-15.3V330z"/><path class="st0" d="M279 419v42.8l-92.6-53.5v-42.8z"/><path class="st9" d="M195.6 403l-9.2 5.3 92.6 53.5v-10.7z"/><path class="st10" d="M186.4 365.5l9.2 5.4V403l-9.2 5.3z"/><path opacity=".2" fill="#2289e5" d="M146.4 0l-9.3 5.3 429.2 247.8 9.3-5.3z"/><path class="st5" d="M418 403l9.3-5.4-9.3-5.3z"/><path class="st12" d="M538.7 461.9l-.2 160.4L418 552.8V403l9.3-5.4z"/><path class="st13" d="M538.5 622.3l-111.2 64.2-111.2-64.2 111.2-64.2z"/><path class="st13" d="M418.1 403l-.1 160.5-101.9 58.8V461.8z"/><path class="st14" d="M408.8 397.6L520 461.8V633l-111.2-64.2z"/><path class="st14" d="M399.5 403l111.2 64.2v171.2l-111.2-64.2z"/><path class="st14" d="M390.2 408.3l111.2 64.2v171.3l-111.2-64.3z"/><path class="st14" d="M381 413.7l111.2 64.2v171.2L381 584.9z"/><path class="st14" d="M371.7 419l111.2 64.2-.3 171-110.9-64z"/><path class="st14" d="M362.4 424.4l111.2 64.2v171.2l-111.2-64.2z"/><path class="st14" d="M353.1 429.7l111.3 64.2v171.3l-111.3-64.3z"/><path class="st14" d="M334.6 440.4l111.2 64.2v171.2l-111.6-64.5z"/><path class="st14" d="M325.3 445.8L436.6 510l-.1 171.2L325.3 617z"/><path class="st15" d="M538.5 461.8v160.5l-111.2 64.2V526z"/><path class="st10" d="M316.1 622.3l111.2 64.2V515.3l-111.2-64.2z"/><path class="st4" d="M334.4 515.2v21.4l65.1 37.6-.3-21.6z"/><path fill="#bddcf7" d="M547.8 445.8v181.9l-9.3 5.3V451.1z"/><path class="st10" d="M538.5 451.1l9.3-5.3-120.5-69.6-9.3 5.3z"/><path class="st6" d="M538.5 622.3V633l-9.3-5.3z"/><path class="st17" d="M538.5 461.8v-10.7L418 381.5v10.8z"/><path class="st1" d="M381 199.6v171.3L158.7 242.3V71.1z"/><path class="st0" d="M371.8 290.5l-.1 64.3-37-21.5v-64.2z"/><ellipse transform="rotate(-31.589 352.865 301.133)" class="st7" cx="352.8" cy="301.1" rx="7.7" ry="13.3"/><path class="st10" d="M381 199.6l9.2-5.3L167.9 65.8l-9.2 5.3z"/><path class="st6" d="M390.2 194.3v171.2l-9.2 5.4V199.6z"/><path class="st0" d="M325.4 178.2l-.1 74.9-157.5-90.9V87.3z"/><path class="st8" d="M371.7 205v10.7l-37.1-21.4v-10.7z"/><path class="st0" d="M371.7 226.4v10.7l-37.1-21.4V205zM371.7 247.8v10.7l-37.1-21.4v-10.7zM371.7 269.2v10.7l-37.1-21.4v-10.7zM325.3 263.8V328l-92.7-53.5.1-64.2z"/><path opacity=".1" fill="#2289e5" d="M223.4 205v64.2l-55.6-32.1v-64.2z"/><path class="st19" d="M214.1 242.4v10.7l-9.2-5.3v-10.7z"/><path class="st3" d="M200.3 218.1l.1 27.1-9.5-5.4.2-27z"/><path class="st20" d="M186.3 194.3v42.8l-9.2-5.4v-42.8z"/><path class="st8" d="M362.4 328v10.8L343.9 328v-10.7z"/><ellipse transform="rotate(-31.589 257.27 255.797)" class="st2" cx="257.2" cy="255.8" rx="12.3" ry="21.3"/><path class="st8" d="M258.5 256.5v-17.1c7.8 5.2 14.1 16.2 14.1 25.2 0 9.4-6.9 13.2-15.3 8.3s-15.1-16.2-15.3-25.6l16.5 9.2z"/><ellipse transform="rotate(-31.589 295.609 278.087)" class="st7" cx="295.6" cy="278.1" rx="12.5" ry="21.7"/><path class="st20" d="M295.6 276.5l-12.7-15.9c2.8-2.8 7.5-3 12.7 0 8.6 4.9 15.6 16.8 15.6 26.4s-7 13.4-15.6 8.5v-19z"/><path fill="none" stroke="#00d1c1" stroke-width="2.62" stroke-miterlimit="10" d="M325.5 249.4l-15.4-17.9-31.2-11.8-18.6-38-39.5-8.8-9.5-24.3-43.4-40"/><path class="st6" d="M547.8 381.5v10.8l-37.1 21.4V403z"/><path class="st17" d="M381 328l129.7 75v10.7L381 338.8z"/><path class="st10" d="M538.5 290.6v96.3l-129.6-75-.1-96.3z"/><path class="st5" d="M538.5 290.6l9.3-5.4L418 210.3l-9.2 5.3z"/><path class="st6" d="M547.7 285.2l.1 96.3-9.3 5.4v-96.3z"/><path class="st15" d="M538.5 386.9l-129.6-75L381 328l129.7 75z"/><path class="st22" d="M492.1 328.1l-46.3 26.7-55.6-32.1 46.3-26.7z"/><path class="st22" d="M492.1 338.8l-46.3 26.7v-10.7l46.3-26.7z"/><path class="st20" d="M390.2 322.7v10.7l55.6 32.1v-10.7z"/><path class="st22" d="M482.9 333.4v10.7l9.2-5.3v-10.7z"/><path class="st22" d="M436.5 296l-9.2 5.3 55.6 32.1 9.2-5.3z"/><path class="st3" d="M482.8 312l-46.3 26.8-55.5-32.2 46.3-26.7z"/><path class="st22" d="M482.8 322.7l-46.3 26.8v-10.7l46.3-26.8z"/><path class="st1" d="M381 306.6v10.7l55.5 32.2v-10.7z"/><path class="st22" d="M473.5 317.4v10.7l9.3-5.4V312z"/><path class="st4" d="M427.3 279.9l-9.3 5.3 55.5 32.2 9.3-5.4z"/><path class="st22" d="M445.8 322.7v74.9l46.4-26.8V296z"/><path class="st0" d="M482.9 290.6l9.3 5.4-46.4 26.7-9.3-5.4z"/><path class="st7" d="M445.8 397.6v-74.9l-9.3-5.4v75z"/><path fill="#007a86" d="M455.1 317.3v75l-9.3 5.3v-74.9z"/><path class="st7" d="M436.5 317.3l.1 10.7 9.2 5.4-.3-10.7z"/><path class="st3" d="M464.4 322.7v74.9l46.3-26.8v-74.9z"/><path class="st1" d="M501.4 290.6l9.3 5.3-46.3 26.8-9.3-5.4z"/><path class="st4" d="M464.4 397.6v-74.9l-9.3-5.4v75z"/><path class="st8" d="M473.6 317.3v75l-9.2 5.3v-74.9zM482.9 333.3v75l46.3-26.8v-74.9z"/><path class="st1" d="M520 301.3l9.2 5.3-46.3 26.8-9.3-5.4z"/><path class="st3" d="M482.9 408.3v-74.9l-9.3-5.4v75z"/><path class="st19" d="M492.2 328v75l-9.3 5.3v-74.9z"/><path class="st3" d="M473.6 328l.1 10.7 9.2 5.3v-10.6z"/><path class="st24" d="M158.6 652.4z"/><path class="st25" d="M155.1 376.6l-4.5 44.5-11.2 11.2-30.6 6.4-21.8-7.4-8.9-7.1-2.9-5.8-4.6-41.8z"/><path class="st25" d="M75.2 412.9c0-.3 0-.5.1-.8v-.1c.1-.6.2-1.2.4-1.8l.6-1.8v-.1l.2-.5v-.1c.1-.1.1-.3.2-.5l.1-.1c.2-.5.5-.9.8-1.4l.1-.1c.1-.1.2-.2.2-.4l.2-.2.2-.3.2-.2.2-.3.3-.4v.2l.2-.2c.8-.9 1.7-1.8 2.6-2.5 1.3-1.1 2.7-2.1 4.2-2.9.9-.5 1.9-1 2.9-1.5l1.5-.7c.8-.4 1.7-.7 2.6-1 .7-.3 1.4-.5 2.2-.7.6-.2 1.1-.3 1.7-.5 1.7-.5 3.4-.8 5.2-1.1l1.8-.3c1.8-.3 3.6-.4 5.4-.5 1.2-.1 2.4-.1 3.6-.1s2.4 0 3.6.1c1.7.1 3.4.3 5.2.5.7.1 1.3.2 2 .3 1.8.3 3.5.7 5.1 1.1 1.1.3 2.2.6 3.3 1s2.1.8 3.1 1.2c.5.2 1 .4 1.5.7 1 .5 2 1 2.9 1.5.4.2.8.5 1.2.7 1.1.7 2.1 1.4 3.1 2.3.2.1.4.3.5.5.5.5 1 .9 1.4 1.4 1.7 1.7 3 3.7 3.9 5.9.1.4.2.7.3 1 0 .2.1.3.1.5.1.3.2.7.2 1 .1.7.2 1.4.2 2.1 0 .9-.1 1.8-.3 2.6-.1.5-.3 1-.4 1.6-1.4 4.1-4.8 8.1-10.3 11.2-14.7 8.5-38.7 8.5-53.4 0-6.6-3.8-10.3-8.8-10.9-13.8 0-.3-.1-.5-.1-.8v-.1-.7-.4c0-.1 0-.4.1-.5z"/><path class="st15" d="M75.2 414.5c0 .3 0 .5.1.8.7 5 4.3 10 10.9 13.8 14.7 8.5 38.7 8.5 53.4 0 5.5-3.2 8.9-7.1 10.3-11.2.2-.5.3-1 .4-1.6.2-.9.3-1.7.3-2.6v6.1c-.1 5.5-3.8 11-11 15.1-14.7 8.5-38.7 8.5-53.4 0-7.2-4.2-10.9-9.6-11-15.1v-6.1.8c-.1-.1-.1-.1 0 0z"/><path class="st24" d="M75.1 413.7v0zM75.2 415.3c0-.3-.1-.5-.1-.8.1.2.1.5.1.8zM75.2 414.5v-.1c-.1 0-.1 0 0 .1zM75.2 412.1c0 .3-.1.5-.1.8.1-.3.1-.5.1-.8zM75.1 413.7v-.4.4zM75.2 412.9v.4c-.1-.2-.1-.3 0-.4zM79.2 403.8c.8-.9 1.7-1.8 2.6-2.5-.9.7-1.8 1.6-2.6 2.5zM76.2 408.5l-.6 1.8c.2-.7.4-1.2.6-1.8z"/><path class="st26" d="M93.1 347.2c-.8.3-1.7.5-2.5.8.9-.3 1.7-.5 2.5-.8zM108.8 344.5c-2 .1-4 .3-6 .6 1.9-.3 3.9-.5 6-.6z"/><path class="st25" d="M70.6 368c0-.3.1-.6.1-.9v-.1c.1-.7.2-1.3.4-2s.4-1.3.7-2c.1-.2.2-.3.2-.5v-.1l.2-.5s0-.1.1-.1c.3-.5.6-1.1.9-1.6l.1-.2.3-.4.2-.3.2-.3.2-.3.2-.3.4-.5.1-.1c.1-.1.2-.2.2-.3.9-1 1.9-2 3-2.9h.1c1.5-1.2 3.1-2.3 4.8-3.3 1-.6 2.1-1.1 3.2-1.7.6-.3 1.1-.5 1.7-.8.9-.4 1.9-.8 2.9-1.1.8-.3 1.6-.6 2.5-.8.6-.2 1.2-.4 1.9-.5 1.9-.5 3.8-.9 5.8-1.3.7-.1 1.3-.2 2-.3 2-.3 4-.5 6-.6 1.3-.1 2.7-.1 4.1-.1s2.7 0 4.1.1c1.9.1 3.9.3 5.8.6.7.1 1.5.2 2.2.3 2 .3 3.9.8 5.8 1.3 1.3.3 2.5.7 3.7 1.1 1.2.4 2.4.9 3.5 1.3.6.2 1.1.5 1.7.8 1.1.5 2.2 1.1 3.2 1.7.4.3.9.5 1.3.8 1.2.8 2.4 1.6 3.5 2.5l.6.5c.6.5 1.1 1 1.6 1.5 1.9 1.9 3.4 4.2 4.4 6.7.1.4.3.8.4 1.1.1.2.1.4.2.6.1.4.2.8.2 1.2.1.8.2 1.6.2 2.4 0 1-.1 2-.3 2.9-.1.6-.3 1.2-.5 1.7-1.5 4.6-5.4 9-11.6 12.6-16.5 9.5-43.4 9.5-59.9 0-7.4-4.3-11.5-9.8-12.2-15.5 0-.3-.1-.6-.1-.9v-.1-.8-.5c0-.2-.3.1-.3 0z"/><path class="st8" d="M76.1 368.1c0-.3 0-.5.1-.8v-.1c.1-.6.2-1.2.3-1.7.2-.6.4-1.2.6-1.7l.2-.5.2-.4v-.1c.2-.5.5-.9.8-1.4l.1-.1c.1-.1.2-.2.2-.4l.2-.2.2-.3.2-.2.2-.3.3-.4.1-.1.2-.2c.8-.9 1.7-1.7 2.6-2.5 1.3-1.1 2.7-2 4.1-2.9.9-.5 1.8-1 2.8-1.5l1.5-.6c.8-.4 1.7-.7 2.5-1 .7-.3 1.4-.5 2.1-.7.5-.2 1.1-.3 1.6-.5 1.6-.4 3.3-.8 5-1.1.6-.1 1.1-.2 1.7-.3 1.7-.2 3.5-.4 5.2-.5 1.2-.1 2.3-.1 3.5-.1s2.4 0 3.5.1c1.7.1 3.4.3 5 .5.7.1 1.3.2 1.9.3 1.7.3 3.4.6 5 1.1 1.1.3 2.2.6 3.2 1s2.1.7 3.1 1.2l1.5.6c1 .5 1.9.9 2.8 1.5l1.1.7c1 .7 2 1.4 3 2.2.2.1.4.3.5.4.5.4 1 .9 1.4 1.4 1.6 1.6 2.9 3.6 3.8 5.8.1.3.2.7.3 1l.1.5c.1.3.1.7.2 1 .1.7.2 1.3.2 2 0 .9-.1 1.7-.3 2.5-.1.5-.2 1-.4 1.5-1.3 4-4.7 7.9-10.1 11-14.3 8.3-37.7 8.3-52.1 0-6.5-3.7-10-8.5-10.6-13.5 0-.3-.1-.5-.1-.8v-.1-.7-.4c0-.1.5-.1.5-.2z"/><path class="st15" d="M70.6 369.7c0 .3.1.6.1.9.7 5.6 4.8 11.2 12.2 15.5 16.5 9.5 43.4 9.5 59.9 0 6.2-3.6 10-8 11.6-12.6.2-.6.3-1.2.5-1.7.2-1 .3-1.9.3-2.9v6.9c-.1 6.2-4.2 12.3-12.3 17-16.5 9.5-43.4 9.5-59.9 0-8.1-4.7-12.2-10.8-12.3-17v-6.9c-.1.2-.1.5-.1.8z"/><path class="st24" d="M70.6 368.8v0zM70.7 370.6c0-.3-.1-.6-.1-.9 0 .3 0 .6.1.9zM70.6 369.7zM70.7 367.1c0 .3-.1.6-.1.9 0-.4 0-.6.1-.9zM70.6 368.8v-.5.5zM70.6 368v0zM75.1 357.7c.9-1 1.9-2 3-2.9-1 .9-2.1 1.9-3 2.9zM71.8 363z"/><path class="st27" d="M110.4 375.2l41.6-60s-13.9-7.2-19.4 3.1-1.7 17-14.2 28.2-8 28.7-8 28.7z"/><path class="st28" d="M110.4 375.2l40.7-60.4s17 8.8 8 19.3-14 1.3-21.9 19.4-26.8 21.7-26.8 21.7z"/><path class="st7" d="M150.6 314.8c-27.2 22.9-40.2 60.4-40.2 60.4s32-40.9 41.9-57.4c.5-.7-1-3.6-1.7-3z"/><path class="st24" d="M90.7 348c-1 .4-1.9.7-2.9 1.1.9-.4 1.9-.7 2.9-1.1z"/><path class="st27" d="M110.4 375.2V257.1s29.1 14.9 27 33.7-17.4 12.4-11.3 38.9-15.7 45.5-15.7 45.5z"/><path class="st28" d="M110.4 375.2s30.3-122.1 0-139.3c-10.4-5.9-29.1 17.5-26.9 39.8s17.4 14.7 11.2 45.9 15.7 53.6 15.7 53.6z"/><path class="st7" d="M112.8 248.6c3.2 17.6-2.4 126.6-2.4 126.6s-13.5-99.5-2.8-124.2c.7-1.3 5-3.9 5.2-2.4z"/><path class="st27" d="M110.4 375.2l-38.6-61.9s14.2-6.5 19.2 4.1.9 17 12.8 28.9 6.6 28.9 6.6 28.9z"/><path class="st28" d="M110.4 375.2l-40.8-61.3s-14.2 7-5.8 17.9 13.9 2 20.9 20.4 25.7 23 25.7 23z"/><path class="st7" d="M71.5 311c26.1 24.2 38.9 64.2 38.9 64.2s-31.7-44.4-40.8-61.3c-.4-.8 1.3-3.5 1.9-2.9z"/><path class="st29" d="M94 395.8l-4.6 44.6-11.2 11.2-30.6 6.4-21.7-7.4-8.9-7.2-2.9-5.8-4.7-41.8z"/><path class="st29" d="M14 432.1c0-.3 0-.5.1-.8v-.1c.1-.6.2-1.2.4-1.8l.6-1.8v-.1c.1-.1.1-.3.2-.5v-.1c.1-.1.1-.3.2-.5s0-.1 0-.1c.3-.5.5-.9.8-1.4l.1-.1.2-.4.2-.2.2-.3c.1-.1.1-.2.2-.2.1-.1.1-.2.2-.3.1-.1.2-.3.3-.4l.1-.1.2-.2c.8-.9 1.7-1.8 2.6-2.6 1.4-1.1 2.8-2.1 4.4-3 .9-.5 1.9-1 2.9-1.5.5-.2 1-.5 1.5-.7.8-.4 1.7-.7 2.6-1 .7-.3 1.5-.5 2.2-.7.5-.2 1.1-.3 1.7-.5 1.7-.4 3.4-.8 5.2-1.1l1.8-.3c1.8-.3 3.6-.4 5.4-.5 1.2-.1 2.4-.1 3.6-.1s2.4 0 3.6.1c1.7.1 3.5.3 5.2.5.7.1 1.3.2 2 .3 1.8.3 3.5.7 5.2 1.1 1.1.3 2.2.6 3.3 1s2.1.8 3.1 1.2c.5.2 1 .4 1.5.7 1 .5 1.9 1 2.9 1.5.4.2.8.5 1.2.7 1.1.7 2.1 1.4 3.1 2.3l.5.5c.5.5 1 .9 1.4 1.4 1.7 1.7 3 3.7 3.9 5.9.1.3.2.7.3 1 0 .2.1.4.1.5.1.4.2.7.2 1 .1.7.2 1.4.2 2.1 0 .9-.1 1.8-.3 2.6-.1.5-.2 1-.4 1.5-1.4 4.1-4.8 8.1-10.3 11.3-14.7 8.5-38.7 8.5-53.4 0-6.6-3.8-10.3-8.8-10.9-13.8 0-.3-.1-.5-.1-.8v-.1-.7-.4c0-.1-.2.2-.2 0z"/><path class="st30" d="M14 433.7c0 .3 0 .5.1.8.6 5 4.3 10 10.9 13.8 14.7 8.5 38.7 8.5 53.4 0 5.5-3.2 9-7.1 10.3-11.3.2-.5.3-1 .4-1.5.2-.9.3-1.7.3-2.6v6.1c-.1 5.5-3.8 11-11 15.1-14.7 8.5-38.7 8.5-53.4 0-7.2-4.1-10.9-9.6-11-15.1v-6.1V433.7z"/><path class="st24" d="M14 432.9v0zM14.1 434.5c0-.3-.1-.5-.1-.8 0 .3.1.5.1.8zM14 433.7zM14.1 431.3c0 .3-.1.5-.1.8 0-.2.1-.5.1-.8zM14 432.9v-.4.4zM14 432.1v0zM18.1 423zM15.1 427.7l-.6 1.8c.1-.6.3-1.2.6-1.8z"/><path class="st26" d="M32 366.4c-.8.3-1.6.5-2.5.8.9-.2 1.7-.5 2.5-.8zM47.6 363.8z"/><path class="st30" d="M9.4 387.2c0-.3 0-.6.1-.9v-.1c.1-.7.2-1.3.4-2s.4-1.3.7-2v-.1c.1-.2.1-.3.2-.5v-.1c.1-.2.2-.3.3-.5l.1-.1c.3-.5.6-1 .9-1.6l.1-.2.3-.4.2-.2c.1-.1.1-.2.2-.3l.1-.2c.1-.1.1-.2.2-.3l.4-.5.1-.1.3-.1c.9-1 1.9-2 3-2.9 1.5-1.2 3.1-2.3 4.8-3.3 1-.6 2.1-1.1 3.2-1.7.5-.3 1.1-.5 1.7-.8.9-.4 1.9-.8 2.9-1.1.8-.3 1.6-.6 2.5-.8l1.9-.5c1.9-.5 3.8-.9 5.8-1.3l2-.3c2-.3 4-.5 6-.6 1.4-.1 2.7-.1 4.1-.1s2.7 0 4.1.1c1.9.1 3.9.3 5.8.5l2.2.3c2 .3 3.9.8 5.8 1.3 1.3.3 2.5.7 3.7 1.1s2.4.9 3.5 1.3c.6.2 1.1.5 1.7.8 1.1.5 2.2 1.1 3.2 1.7.4.3.9.5 1.3.8 1.2.8 2.4 1.6 3.5 2.5l.6.5c.6.5 1.1 1 1.6 1.6 1.9 1.9 3.3 4.1 4.3 6.6.2.4.3.8.4 1.2 0 .2.1.4.2.6.1.4.2.8.2 1.2.1.8.2 1.6.2 2.3 0 1-.1 2-.3 2.9-.1.6-.3 1.2-.5 1.7-1.6 4.6-5.4 9-11.6 12.6-16.5 9.5-43.4 9.5-59.9 0-7.4-4.3-11.5-9.8-12.2-15.5 0-.3-.1-.6-.1-.9v-.1-.8-.5c0-.2-.2-.1-.2-.2z"/><path class="st12" d="M15 387.3c0-.3 0-.5.1-.8v-.1c.1-.6.2-1.2.3-1.7.2-.6.4-1.2.6-1.7v-.1l.2-.4v-.1l.2-.4.1-.1c.2-.5.5-.9.8-1.4l.1-.1.2-.3.2-.2.2-.3.2-.2.2-.2c.1-.1.2-.3.3-.4v-.1l.2-.2c.8-.9 1.6-1.7 2.6-2.5 1.3-1.1 2.7-2.1 4.2-2.9.9-.5 1.8-1 2.8-1.5.5-.2 1-.4 1.5-.7.8-.3 1.6-.7 2.5-1s1.4-.5 2.1-.7l1.6-.5c1.6-.4 3.3-.8 5-1.1l1.7-.3c1.7-.2 3.5-.4 5.3-.5 1.2-.1 2.3-.1 3.5-.1s2.4 0 3.5.1c1.7.1 3.4.3 5 .5.6.1 1.3.2 1.9.3 1.7.3 3.4.7 5 1.1 1.1.3 2.2.6 3.2 1s2.1.7 3 1.2c.5.2 1 .4 1.5.7 1 .5 1.9.9 2.8 1.5.4.2.8.5 1.1.7 1 .7 2 1.4 3 2.2l.5.4c.5.5 1 .9 1.4 1.4 1.6 1.7 2.9 3.6 3.8 5.8.1.3.2.7.3 1 0 .2.1.3.1.5.1.3.2.7.2 1 .1.7.2 1.3.2 2 0 .9-.1 1.7-.3 2.5-.1.5-.3 1-.4 1.5-1.3 4-4.7 7.9-10.1 11-14.3 8.3-37.7 8.3-52 0-6.5-3.7-10-8.5-10.6-13.5 0-.3 0-.5-.1-.8v-.1-.7-.4c0-.1.3-.2.3-.3z"/><path class="st30" d="M9.4 389c0 .3 0 .6.1.9.7 5.6 4.8 11.2 12.2 15.5 16.5 9.5 43.4 9.5 59.9 0 6.2-3.6 10-8 11.6-12.6.2-.6.4-1.2.5-1.8.2-1 .3-2 .3-2.9v6.9c-.1 6.2-4.2 12.3-12.3 17-16.5 9.5-43.4 9.5-59.9 0-8.1-4.7-12.2-10.8-12.3-17v-6.8.8c0-.1 0-.1-.1 0z"/><path class="st24" d="M9.4 388.1v0zM9.5 389.8c0-.3-.1-.6-.1-.9.1.3.1.6.1.9z"/><path class="st24" d="M9.4 389v-.1c.1 0 .1.1 0 .1zM9.5 386.3c0 .3-.1.6-.1.9.1-.3.1-.6.1-.9zM9.4 388.1v-.5.5zM9.4 387.2v0zM14 377c.9-1 1.9-2 3-2.9-1.1.9-2.1 1.9-3 2.9zM10.6 382.2c-.3.7-.5 1.3-.7 2 .2-.7.5-1.3.7-2z"/><path class="st27" d="M49.3 394.4l41.6-60s-13.8-7.2-19.4 3.1-1.7 17-14.2 28.2-8 28.7-8 28.7z"/><path class="st28" d="M49.3 394.4L90 334.1s17 8.8 8.1 19.4-14 1.3-21.9 19.4-26.9 21.5-26.9 21.5z"/><path class="st7" d="M89.5 334c-27.2 22.9-40.2 60.4-40.2 60.4s32-40.9 41.9-57.4c.5-.7-1-3.5-1.7-3z"/><path class="st24" d="M86.5 374.1c-1.1-.9-2.3-1.8-3.5-2.5 1.2.7 2.3 1.6 3.5 2.5zM29.5 367.3c-1 .3-1.9.7-2.9 1.1 1-.4 2-.8 2.9-1.1z"/><path class="st27" d="M49.3 394.4V276.3s29.1 14.9 27 33.7-17.4 12.5-11.2 39-15.8 45.4-15.8 45.4z"/><path class="st28" d="M49.3 394.4s30.3-122.1 0-139.3c-10.5-5.9-29.1 17.5-27 39.8s17.4 14.7 11.2 45.9 15.8 53.6 15.8 53.6z"/><path class="st7" d="M51.7 267.8c3.1 17.6-2.4 126.6-2.4 126.6S35.8 295 46.6 270.2c.5-1.3 4.9-3.8 5.1-2.4z"/><path class="st27" d="M49.3 394.4l-38.6-61.9s14.2-6.5 19.2 4.1.9 17 12.8 28.9 6.6 28.9 6.6 28.9z"/><path class="st28" d="M49.3 394.4L8.5 333.1s-14.2 7-5.8 17.9 13.9 2 20.9 20.4 25.7 23 25.7 23z"/><path class="st7" d="M10.4 330.2c26.1 24.2 39 64.2 39 64.2S17.6 350 8.5 333.1c-.4-.7 1.2-3.5 1.9-2.9z"/><path class="st8" d="M161.5 480.9s-7.9 12.4-30 12.4c-21.9 0-30.2-12.4-30.2-12.4s-1.7-54.2 30.1-54.2c15.8 0 24.4 15.2 27.9 28.8 2.1 8.2 2.9 16.8 2.2 25.4z"/><path class="st8" d="M143.8 411s0 19.4-12.2 19.3c-13.2-.1-12.2-19.3-12.2-19.3s1.6-3.3 12.2-3.3 12.2 3.3 12.2 3.3z"/><path class="st31" d="M120.3 429.3c1.3-.7 2.6-1.2 4-1.6 4.2 3.2 10 3.3 14.2.1 1.3.5 2.6 1 3.9 1.7-6.1 6-16 5.9-22.1-.2z"/><ellipse cx="131.6" cy="410.6" rx="9.8" ry="1.7" fill="#045da0"/><path class="st31" d="M127.2 469s2.2 2 4.6 2c1 0 2-.4 2-1.5 0-2.1-8.7-2.3-8.7-8 0-3 2.1-5.1 5.1-5.7v-2.5h2.9v2.4c3.3.4 4.9 2.1 4.9 2.1l-2 3.8s-1.9-1.7-4.2-1.7c-1 0-2 .4-2 1.5 0 2.3 8.7 2.1 8.7 8 0 2.8-1.9 5.3-5.3 5.8v2.4h-2.9v-2.4c-3.5-.5-5.4-2.6-5.4-2.6l2.3-3.6z"/><path class="st24" d="M81.4 480.6c4.7-2.4 10.3-2.4 15.1 0 2.1 1.2 3.1 2.8 3.1 4.4v3.8c0 1.5-1.1 3.1-3.1 4.3-4.7 2.4-10.3 2.4-15.1 0-2-1.2-3.1-2.7-3.1-4.3V485c0-1.6 1-3.2 3.1-4.4z"/><ellipse class="st31" cx="88.9" cy="485" rx="10.6" ry="6.1"/><ellipse class="st31" cx="88.9" cy="485" rx="10.6" ry="6.1"/><path class="st24" d="M81.4 475.6c4.7-2.4 10.3-2.4 15.1 0 2.1 1.2 3.1 2.8 3.1 4.4v3.8c0 1.5-1.1 3.1-3.1 4.3-4.7 2.4-10.3 2.4-15.1 0-2-1.2-3.1-2.7-3.1-4.3V480c0-1.6 1-3.2 3.1-4.4z"/><ellipse class="st31" cx="88.9" cy="480" rx="10.6" ry="6.1"/><ellipse class="st31" cx="88.9" cy="480" rx="10.6" ry="6.1"/><path class="st24" d="M81.4 471.3c4.7-2.4 10.3-2.4 15.1 0 2.1 1.2 3.1 2.8 3.1 4.4v3.8c0 1.5-1.1 3.1-3.1 4.3-4.7 2.4-10.3 2.4-15.1 0-2-1.2-3.1-2.7-3.1-4.3v-3.9c0-1.6 1-3.1 3.1-4.3z"/><ellipse class="st31" cx="88.9" cy="475.6" rx="10.6" ry="6.1"/><ellipse class="st31" cx="88.9" cy="475.6" rx="10.6" ry="6.1"/><path class="st24" d="M81.4 466.2c4.7-2.4 10.3-2.4 15.1 0 2.1 1.2 3.1 2.8 3.1 4.4v3.8c0 1.5-1.1 3.1-3.1 4.3-4.7 2.4-10.3 2.4-15.1 0-2-1.2-3.1-2.7-3.1-4.3v-3.9c0-1.5 1-3.1 3.1-4.3z"/><ellipse class="st31" cx="88.9" cy="470.6" rx="10.6" ry="6.1"/><ellipse class="st31" cx="88.9" cy="470.6" rx="10.6" ry="6.1"/><path class="st24" d="M81.4 461.6c4.7-2.4 10.3-2.4 15.1 0 2.1 1.2 3.1 2.8 3.1 4.4v3.8c0 1.5-1.1 3.1-3.1 4.3-4.7 2.4-10.3 2.4-15.1 0-2-1.2-3.1-2.7-3.1-4.3v-3.9c0-1.6 1-3.1 3.1-4.3z"/><ellipse class="st31" cx="88.9" cy="465.9" rx="10.6" ry="6.1"/><ellipse class="st31" cx="88.9" cy="465.9" rx="10.6" ry="6.1"/><path class="st24" d="M95.6 494.8c4.7-2.4 10.3-2.4 15 0 2.1 1.2 3.1 2.8 3.1 4.4v3.8c0 1.5-1.1 3.1-3.1 4.3-4.7 2.4-10.3 2.4-15 0-2-1.2-3.1-2.7-3.1-4.3v-3.9c0-1.5 1-3.1 3.1-4.3z"/><ellipse class="st31" cx="103.1" cy="499.1" rx="10.6" ry="6.1"/><ellipse class="st31" cx="103.1" cy="499.1" rx="10.6" ry="6.1"/><path class="st24" d="M95.6 489.8c4.7-2.4 10.3-2.4 15 0 2.1 1.2 3.1 2.8 3.1 4.4v3.8c0 1.5-1.1 3.1-3.1 4.3-4.7 2.4-10.3 2.4-15 0-2-1.2-3.1-2.7-3.1-4.3v-3.9c0-1.6 1-3.1 3.1-4.3z"/><ellipse class="st31" cx="103.1" cy="494.1" rx="10.6" ry="6.1"/><ellipse class="st31" cx="103.1" cy="494.1" rx="10.6" ry="6.1"/><path class="st34" d="M266.3 587.8c.6-13.6-13.4-16.3-23.9-14.3-1.4.3-1.8 2.3-2.8 3-1.8 1.1-3.7 1-4.4 2.9-2.8 7.3.8 19.7.8 29.4 0 0 29.7-7.4 30.3-21z"/><defs><path id="SVGID_1_" d="M266.3 587.8c.6-13.6-13.4-16.3-23.9-14.3-1.4.3-1.8 2.3-2.8 3-1.8 1.1-3.7 1-4.4 2.9-2.8 7.3.8 19.7.8 29.4 0 0 29.7-7.4 30.3-21z"/></defs><clipPath id="SVGID_2_"><use xlink:href="#SVGID_1_" overflow="visible"/></clipPath><g clip-path="url(#SVGID_2_)"><path class="st36" d="M244.7 586.8c1.9-3.2 5-5.4 8.6-6.1 6.6-1.6 17 3.5 17 3.5s-7.2-10.1-10.3-10.8-18.1-1-18.9-.8-.2 4.6-.2 4.6l3.8 9.6z"/></g><path class="st34" d="M241.7 574.6c.6-13.6-13.4-16.3-23.9-14.3-1.4.3-1.8 2.3-2.8 3-1.8 1.1-3.7 1-4.4 2.9-2.8 7.3.8 19.7.8 29.4 0 0 29.7-7.4 30.3-21z"/><defs><path id="SVGID_3_" d="M241.7 574.6c.6-13.6-13.4-16.3-23.9-14.3-1.4.3-1.8 2.3-2.8 3-1.8 1.1-3.7 1-4.4 2.9-2.8 7.3.8 19.7.8 29.4 0 0 29.7-7.4 30.3-21z"/></defs><clipPath id="SVGID_4_"><use xlink:href="#SVGID_3_" overflow="visible"/></clipPath><g clip-path="url(#SVGID_4_)"><path class="st36" d="M218.1 572.8c3.2-2.5 6.8-4.3 10.7-5.3 6.6-1.6 17 3.5 17 3.5s-7.2-10.1-10.3-10.8-18.1-1-18.9-.8-.2 4.6-.2 4.6l1.7 8.8z"/></g><path class="st38" d="M569.6 556.9v141.5"/><path class="st7" d="M538.3 684.2c-.6-13.6 13.4-16.4 23.9-14.3 1.4.3 1.8 2.3 2.8 2.9 1.7 1.1 3.7 1 4.4 2.9 2.8 7.3-.8 19.7-.8 29.4 0 .1-29.6-7.3-30.3-20.9z"/><defs><path id="SVGID_5_" d="M538.3 684.2c-.6-13.6 13.4-16.4 23.9-14.3 1.4.3 1.8 2.3 2.8 2.9 1.7 1.1 3.7 1 4.4 2.9 2.8 7.3-.8 19.7-.8 29.4 0 .1-29.6-7.3-30.3-20.9z"/></defs><clipPath id="SVGID_6_"><use xlink:href="#SVGID_5_" overflow="visible"/></clipPath><g clip-path="url(#SVGID_6_)"><path d="M562.5 676.2s-5.6-2.9-9.8-3c-3.8-.1-7.5.4-11.1 1.5 0 0 0-4.2 3.1-4.9s18.1-1 18.9-.8.2 4.6.2 4.6l-1.3 2.6z" opacity=".35" fill="#00d1c1"/></g><path class="st41" d="M576.5 668.9c0 .2 0 .3-.1.5 0 .1-.1.2-.1.3-.4.9-1.1 1.5-2 1.9-3.1 1.4-6.7 1.2-9.7-.5-1-.5-1.8-1.4-2-2.5v-.2l-.2 5.1.1 25.4s.8 6.1 6.8 6.3c7 .2 7-5.7 7-5.7l.1-23.6.1-7z"/><path class="st7" d="M576.5 676c0 .2-.1.4-.1.5 0 .1-.1.2-.1.3-.4.9-1.1 1.6-2 2-3.2 1.4-6.8 1.3-9.9-.4-1-.5-1.7-1.5-1.9-2.6v-.2l-.2 5.2.1 18s.9 6.4 7 6.5c7.1.1 7.1-6 7.1-6V676z"/><path class="st38" d="M545.2 556.9v154.7"/><path fill="none" stroke="#ffc29f" stroke-width="13.8" stroke-linecap="round" stroke-miterlimit="10" d="M588.4 457.4l-58.7-154.3"/><path class="st20" d="M566.6 536.9h-19.3c-10.4 0-18.9-7-18.9-15.4v-56.1c0-9.9 9.9-18 22.1-18h14.9c12.1 0 22.2 8.1 22.2 18v56.3c-.1 9.3-9.6 15.2-21 15.2z"/><path class="st38" d="M531.6 457.4c-7.6 5.4-16.9 8.1-26.2 7.6-44.5-2.1-36.8-61.9-36.8-61.9"/><path class="st8" d="M587.5 523.3l-.1 1.3-3.2 48.8-7.8 7.8-21.4 4.4-15.2-5.1-6.2-5-2-4.1-3.3-47.8v-1.7z"/><path class="st8" d="M531.3 567.6v-.5c0-.4.1-.8.3-1.2.1-.4.3-.8.4-1.2 0-.1.1-.2.1-.3 0-.1.1-.2.2-.3v-.1c.2-.3.4-.7.6-1l.1-.1.2-.3s.1-.1.1-.2l.1-.2.1-.2.1-.2.2-.3.1-.2 1.8-1.8c.9-.7 1.9-1.4 3-2 .7-.4 1.3-.7 2-1 .3-.2.7-.3 1-.5.6-.3 1.2-.5 1.8-.7s1-.3 1.5-.5l1.2-.3c1.2-.3 2.4-.6 3.6-.8l1.2-.2c1.2-.2 2.5-.3 3.8-.4.8 0 1.7-.1 2.5-.1s1.7 0 2.5.1l3.6.3c.5.1.9.1 1.4.2 1.2.2 2.4.5 3.6.8.8.2 1.6.4 2.3.7s1.5.5 2.2.8c.3.2.7.3 1 .5.7.3 1.4.7 2 1 .3.2.6.3.8.5.8.5 1.5 1 2.2 1.6l.4.3c.4.3.7.6 1 1 1.2 1.2 2.1 2.6 2.7 4.1.1.2.2.5.2.7l.1.4c.1.2.1.5.2.7.1.5.1 1 .1 1.5.1.6.1 1.1 0 1.7-.1.4-.2.7-.3 1.1-1 2.9-3.4 5.6-7.2 7.8-10.3 5.9-27.1 5.9-37.4 0-4.7-2.7-7.2-6.1-7.7-9.6v-.5-.1-.5-.3c.4 0 .3-.1.3-.2z"/><path class="st8" d="M531.3 568.7v.5c.5 3.5 3 7 7.7 9.6 10.3 5.9 27.2 5.9 37.5 0 3.9-2.2 6.3-5 7.3-7.8.3-.9.6-1.9.8-2.9l-.3 4.3c-.1 3.8-2.7 7.7-7.7 10.6-10.3 5.9-27.2 5.9-37.5 0-5.1-2.9-7.6-6.7-7.7-10.6v-4.3.5c-.1 0-.1.1-.1.1z"/><path class="st26" d="M544.1 521.7zM555 519.8c-1.4.1-2.8.2-4.2.4 1.4-.2 2.8-.3 4.2-.4z"/><path class="st20" d="M528.4 522.9c0-.2-.1-.8-.1-1v-.1c.1-.5.3-.5.4-1 .1-.5.3-.9.5-1.4 0-.1.1-.2.2-.4.1-.1.1-.2.2-.3v-.1c.2-.4.4-.7.6-1.1l.1-.1.2-.3.1-.2.2-.2.1-.2.2-.2.3-.3.2-.2c.6-.7 1.3-1.4 2.1-2 1-.9 2.1-1.6 3.3-2.3.7-.4 1.5-.8 2.2-1.2l1.2-.5c.7-.3 1.3-.5 2-.8s1.1-.4 1.7-.6l1.3-.4c1.3-.4 2.7-.6 4-.9l1.4-.2c1.4-.2 2.8-.3 4.2-.4.9 0 1.9-.1 2.8-.1s1.9 0 2.8.1c1.4.1 2.7.2 4 .4l1.6.2c1.4.2 2.7.5 4 .9.9.2 1.7.5 2.6.8s1.7.6 2.5.9l1.2.5c.8.4 1.5.8 2.2 1.2l.9.6c.9.5 1.7 1.1 2.4 1.8l.4.3c.4.3.8.7 1.1 1.1 1.3 1.3 2.3 2.9 3 4.7.1.3.2.5.3.8l.1.4c.1.3.3.3.3.5.1.5.1.9.1 1.4 0 .9-.1 1.7-.3 2.6l-.3 1.2c-1.1 3.2-3.8 6.3-8.1 8.8-11.5 6.7-30.3 6.7-41.8 0-5.2-3-8-6.9-8.5-10.8v-.6-.1-.5-.3c-.1-.1 0-.3.1-.4z"/><path class="st24" d="M528.3 537.4z"/><path d="M528.3 518.1v.7c.5 4.7 3.3 9.4 8.5 13 11.5 8 30.3 8 41.8 0 4.3-3 7-6.7 8.1-10.6.3-1.3.5-2.6.6-3.9v5.7c-.1 5.2-3 10.3-8.7 14.2-11.5 8-30.3 8-41.8 0-5.7-3.9-8.5-9.1-8.6-14.2v-5.7c.1.3.1.5.1.8z" fill="#2c69ae"/><circle cx="250.4" cy="280.3" r="2.2"/><path class="st44" d="M252.4 300l-3.3.6c-.6.1-1.1-.3-1.2-.8l-2.1-11.5c-.1-.6.3-1.1.8-1.2l3.3-.6c.6-.1 1.1.3 1.2.8l2.1 11.5c.2.5-.2 1.1-.8 1.2z"/><path fill="#f9c1a1" d="M216.7 322.5h19.5v23.4h-19.5z"/><path class="st46" d="M227.9 332.4h-3c-12.8 0-23.2-10.4-23.2-23.2v-49.3c0-12.8 10.4-23.2 23.2-23.2h3c12.8 0 23.2 10.4 23.2 23.2v49.3c-.1 12.8-10.4 23.2-23.2 23.2z"/><path class="st34" d="M239 294.6s-3.5 23.3-8.9 33.2c-2.6 4.8-15.4 2.9-17 1.5s-14-12.7-15.6-24.1c-4.9-35.1-10-52.4.8-58 18.2-9.4 17.3-17.8 35.1-13.7 6 1.4 9.7 3.6 14 7.6 5.4 5.1 7.9 12.6 6.5 19.9-.2-1.9-.8-3.7-1.9-5.3-.9-1.2-2.2-2.1-3.7-2.6 2.6 2.3 4 5.6 3.9 9-.1 7.1-5 8.4-5 8.4s2-4-1.9-9c0 5.7-2.2 11.1-6.1 15.2-.5.5 0 3.2.6 5.9.6 3 1.2 3.9.8 4.4-1.6 1.8-5.1-1.2-6.2-.7-4.8 2 4.6 8.3 4.6 8.3z"/><circle class="st46" cx="237.6" cy="290.3" r="6.3"/><circle class="st44" cx="237.6" cy="290.3" r="2.5"/><path class="st47" d="M211.4 454v134.7"/><path class="st38" d="M192.2 354.5s-33.9 14-35.3 32 38.5 42.6 38.5 42.6"/><path class="st48" d="M199.3 350.7s-16.5 8.4-21.5 11.6c-5.3 3.4-12.4 9.3-12.4 9.3"/><path class="st49" d="M221.6 465.3c-18.8 0-34-15.2-34-34v-64.8c0-18.8 15.2-34 34-34s34 15.2 34 34v64.8c0 18.8-15.2 34-34 34z"/><defs><path id="SVGID_7_" d="M221.6 465.3c-18.8 0-34-15.2-34-34v-64.8c0-18.8 15.2-34 34-34s34 15.2 34 34v64.8c0 18.8-15.2 34-34 34z"/></defs><clipPath id="SVGID_8_"><use xlink:href="#SVGID_7_" overflow="visible"/></clipPath><g clip-path="url(#SVGID_8_)"><path class="st4" d="M161.5 419.6h108.2v64.5H161.5z"/></g><path class="st38" d="M248.9 354.5c7.6 5.4 16.9 8.1 26.2 7.6 44.5-2.1 36.8-61.9 36.8-61.9"/><path class="st48" d="M248.9 354.5s4.7 4 13.4 5.9c5 1.1 10.1 1.5 15.2 1.2"/><path class="st47" d="M234.4 454s12.3 44.5 12 74.1c-.2 27.7-12.4 74-12.4 74"/><path class="st49" d="M187.6 417.8c0-.2 0-.5.1-.7v-.1c.1-.5.2-1.1.3-1.6.2-.5.3-1.1.6-1.6.1-.1.1-.3.2-.4.1-.1.1-.3.2-.4v-.1c.2-.4.5-.8.7-1.3l.1-.1c.1-.1.1-.2.2-.3 0-.1.1-.1.1-.2l.2-.2.2-.2.2-.2c.1-.1.2-.2.3-.4l.1-.1.2-.2c.7-.8 1.5-1.6 2.4-2.3 1.2-1 2.5-1.9 3.8-2.6.8-.5 1.7-.9 2.6-1.3.4-.2.9-.4 1.4-.6.8-.3 1.5-.6 2.3-.9s1.3-.5 2-.6c.5-.1 1-.3 1.5-.4 1.5-.4 3.1-.7 4.6-1l1.6-.3c1.6-.2 3.2-.4 4.9-.5 1.1-.1 2.2-.1 3.3-.1 1.1 0 2.2 0 3.3.1 1.6.1 3.1.2 4.6.5l1.8.3c1.6.3 3.1.6 4.6 1l3 .9c1 .3 1.9.7 2.8 1.1.4.2.9.4 1.4.6.9.4 1.8.9 2.6 1.3.4.2.7.4 1.1.6 1 .6 1.9 1.3 2.8 2l.5.4c.5.4.9.8 1.3 1.2 1.5 1.5 2.7 3.3 3.5 5.3l.3.9c0 .1.1.3.1.5.1.3.1.6.2.9.2 1.4.2 2.8-.1 4.2-.1.5-.2.9-.4 1.4-1.2 3.7-4.4 7.2-9.3 10.1-13.2 7.6-34.9 7.6-48.1 0-6-3.4-9.3-7.9-9.8-12.4 0-.2-.1-.5-.1-.7v-.1-.6-.4c0-.1-.2-.3-.2-.4z"/><path class="st51" d="M513.9 697.5c-.6-13.6 13.4-16.3 23.9-14.3 1.4.3 1.8 2.3 2.8 3 1.7 1.1 3.7 1 4.4 2.9 2.8 7.3-.8 19.7-.8 29.4 0 0-29.6-7.4-30.3-21z"/><defs><path id="SVGID_9_" d="M513.9 697.5c-.6-13.6 13.4-16.3 23.9-14.3 1.4.3 1.8 2.3 2.8 3 1.7 1.1 3.7 1 4.4 2.9 2.8 7.3-.8 19.7-.8 29.4 0 0-29.6-7.4-30.3-21z"/></defs><clipPath id="SVGID_10_"><use xlink:href="#SVGID_9_" overflow="visible"/></clipPath><g clip-path="url(#SVGID_10_)"><path d="M538 689.4s-5.6-2.9-9.8-3c-3.8-.1-7.5.4-11.1 1.4 0 0 0-4.2 3.1-4.9s18.1-1 18.9-.8.2 4.6.2 4.6l-1.3 2.7z" opacity=".35" fill="#2bd9cc"/></g><path class="st41" d="M552.1 682.2c0 .2 0 .3-.1.5l-.1.3c-.4.9-1.1 1.5-2 1.9-3.1 1.3-6.7 1.2-9.7-.5-1-.5-1.7-1.4-1.9-2.5v-.1l-.2 5.1.1 25.4s.8 6.1 6.8 6.3c7 .2 7-5.7 7-5.7l.1-23.5v-7.2z"/><path class="st51" d="M552.1 689.3c0 .2-.1.4-.2.5 0 .1 0 .2-.1.3-.4.9-1.1 1.6-2 2-3.2 1.4-6.8 1.3-9.9-.4-1-.5-1.7-1.5-1.9-2.6v-.1l-.2 5.2.1 18s.9 6.4 7 6.5c7.1.1 7.1-6 7.1-6s.1-7.4.1-9.3v-14.1z"/><path class="st54" d="M249.2 304.9c.3.3.6.6 1 .9.3.3.7.3 1 0 .3-.3.3-.7 0-1-.3-.3-.7-.6-1-.9-.7-.7-1.7.3-1 1z"/><path class="st44" d="M529.2 395.8l-3.3-.6c-.6-.1-.9-.7-.8-1.2l2.2-11.5c.1-.6.7-.9 1.2-.8l3.3.6c.6.1.9.7.8 1.2l-2.2 11.5c-.1.6-.6.9-1.2.8z"/><circle cx="527.8" cy="380.9" r="2.2"/><path class="st46" d="M555.1 338c15.4 0 27.9 12.5 27.9 27.9v39.9c0 15.4-12.5 27.9-27.9 27.9-15.4 0-27.9-12.5-27.9-27.9v-39.9c0-15.4 12.5-27.9 27.9-27.9z"/><path class="st54" d="M528.5 399.1h-1c-.4 0-.7.3-.7.7 0 .4.3.7.7.7h1c.4 0 .7-.3.7-.7 0-.3-.3-.7-.7-.7z"/><path class="st3" d="M585 341.9s20.1 5.5 20.5 24.6-11.1 22.3-8.1 34.2 14.8 17.5 13.5 29.4-14.7 14.3-15.5 25.5c-2.5 36.6-47.8 30.6-57.2 25-7.4-4.3-8.8-13.8-12-18.5-16.2-23.6-.1-32.3 5.2-40.2 7.2-10.7 11.8-21.8 7.6-32.8s-19.3-20.8-14.3-32.4c3.9-9.1 13.4-22.7 34.8-23.2 13.2-.4 25.5 8.4 25.5 8.4z"/><circle class="st46" cx="540.6" cy="387.8" r="6.3"/><circle class="st44" cx="540.6" cy="387.8" r="2.5"/></g></g></svg>