<svg xmlns="http://www.w3.org/2000/svg" xmlns:xlink="http://www.w3.org/1999/xlink" viewBox="0 0 500 367.63"><defs><style>.cls-1,.cls-11,.cls-28,.cls-34,.cls-35,.cls-39,.cls-62,.cls-64,.cls-65,.cls-69,.cls-70{fill:none;}.cls-2{fill:#ffa755;}.cls-3,.cls-5{fill:#ff912b;}.cls-4{fill:#ff9c40;}.cls-5{opacity:0.35;isolation:isolate;}.cls-6{fill:#336eb1;}.cls-7{fill:#0f54a3;}.cls-8{fill:#7ab8ef;}.cls-9{fill:#bfbfbf;}.cls-10{clip-path:url(#clip-path);}.cls-11{stroke:#a6a6a6;stroke-width:1.39px;}.cls-11,.cls-28,.cls-34,.cls-35,.cls-39,.cls-64,.cls-65,.cls-69{stroke-miterlimit:10;}.cls-12{fill:#66e3da;}.cls-13{fill:#00d1c1;}.cls-14{fill:#33dacd;}.cls-15{clip-path:url(#clip-path-2);}.cls-16{fill:#a3e8f1;}.cls-17{fill:#66d8e7;}.cls-18{fill:#7ddeeb;}.cls-19{fill:#ffbd80;}.cls-20{clip-path:url(#clip-path-3);}.cls-21{clip-path:url(#clip-path-4);}.cls-22{fill:#ffe589;}.cls-23{fill:#ffd33b;}.cls-24{fill:#ffdc62;}.cls-25{fill:#2289e5;}.cls-26{fill:#4ea1ea;}.cls-27{fill:#d3e7fa;}.cls-28,.cls-65{stroke:#ffc9aa;}.cls-28,.cls-34,.cls-35,.cls-39,.cls-62,.cls-64,.cls-65,.cls-69,.cls-70{stroke-linecap:round;}.cls-28{stroke-width:6.25px;}.cls-29{fill:url(#linear-gradient);}.cls-30{fill:#ff8854;}.cls-31{fill:#ffd5be;}.cls-32{fill:#ff8893;}.cls-33{clip-path:url(#clip-path-5);}.cls-34{stroke:#c57649;stroke-width:6.68px;}.cls-35{stroke:#007a86;stroke-width:7.1px;}.cls-36{fill:url(#linear-gradient-2);}.cls-37{fill:#c57649;}.cls-38{fill:#fff;}.cls-39{stroke:#000;stroke-width:2.5px;}.cls-40{fill:#272727;}.cls-41{fill:#151515;}.cls-42{fill:#8c8c8c;}.cls-43{fill:#f7b21e;}.cls-44{fill:#fed412;}.cls-45{fill:#ffe9d5;}.cls-46{fill:#7d7d7c;}.cls-47{fill:#869db0;}.cls-48{fill:#ffb775;}.cls-49{fill:#787879;}.cls-50{fill:#7a7a7b;}.cls-51{fill:#ffd4ac;}.cls-52{fill:#969698;}.cls-53{fill:#ffe5cc;}.cls-54{fill:#98999a;}.cls-55{fill:#ffcc9d;}.cls-56{fill:#ffc691;}.cls-57{fill:#ffd8b5;}.cls-58{fill:#ffbf84;}.cls-59{fill:#737675;}.cls-60{fill:#acacac;}.cls-61{fill:#d9d9d9;}.cls-62,.cls-70{stroke:#00d1c1;stroke-linejoin:round;}.cls-62{stroke-width:3.26px;}.cls-63{fill:#ff6e00;}.cls-64{stroke:#2289e5;stroke-width:0.72px;}.cls-65{stroke-width:7.66px;}.cls-66{fill:#f9c1a1;}.cls-67{fill:#2c2c2c;}.cls-68{fill:url(#linear-gradient-3);}.cls-69{stroke:#0f54a3;stroke-width:8.23px;}.cls-70{stroke-width:2.68px;}.cls-71{fill:#99ede6;}</style><clipPath id="clip-path"><polygon class="cls-1" points="248.97 127.97 199.16 99.11 72.82 172.05 122.83 200.8 248.97 127.97"/></clipPath><clipPath id="clip-path-2"><polyline class="cls-1" points="436.71 171.45 310.46 98.56 260.53 127.38 386.88 200.27"/></clipPath><clipPath id="clip-path-3"><polyline class="cls-1" points="246.92 285.19 120.67 212.29 70.74 241.11 197.09 314.02"/></clipPath><clipPath id="clip-path-4"><polygon class="cls-1" points="431 233.55 381.18 204.68 254.85 277.62 304.86 306.38 431 233.55"/></clipPath><linearGradient id="linear-gradient" x1="43.18" y1="153.26" x2="45.84" y2="197.61" gradientTransform="matrix(1, 0, 0, -1, 0, 370.04)" gradientUnits="userSpaceOnUse"><stop offset="0" stop-color="#66e3da" stop-opacity="0"/><stop offset="0.07" stop-color="#6bc7cf" stop-opacity="0.23"/><stop offset="0.15" stop-color="#6faec6" stop-opacity="0.43"/><stop offset="0.23" stop-color="#7298bd" stop-opacity="0.61"/><stop offset="0.32" stop-color="#7586b7" stop-opacity="0.75"/><stop offset="0.42" stop-color="#7779b1" stop-opacity="0.86"/><stop offset="0.54" stop-color="#796fae" stop-opacity="0.94"/><stop offset="0.7" stop-color="#7a6aac" stop-opacity="0.99"/><stop offset="1" stop-color="#7a68ab"/></linearGradient><clipPath id="clip-path-5"><path class="cls-1" d="M268,97.33V66.14a16.57,16.57,0,0,0-16.52-16.51h-.3a16.56,16.56,0,0,0-16.51,16.51V97.33C246.49,97.33,256.29,97.52,268,97.33Z"/></clipPath><linearGradient id="linear-gradient-2" x1="251.33" y1="272.63" x2="251.33" y2="320.41" gradientTransform="matrix(1, 0, 0, -1, 0, 370.04)" gradientUnits="userSpaceOnUse"><stop offset="0.01" stop-color="#ff912b" stop-opacity="0"/><stop offset="0.03" stop-color="#e18e36" stop-opacity="0.12"/><stop offset="0.09" stop-color="#a5894b" stop-opacity="0.35"/><stop offset="0.16" stop-color="#71845e" stop-opacity="0.56"/><stop offset="0.23" stop-color="#47806d" stop-opacity="0.72"/><stop offset="0.32" stop-color="#277e78" stop-opacity="0.85"/><stop offset="0.43" stop-color="#107b80" stop-opacity="0.94"/><stop offset="0.58" stop-color="#047a85" stop-opacity="0.99"/><stop offset="1" stop-color="#007a86"/></linearGradient><linearGradient id="linear-gradient-3" x1="267.04" y1="44.9" x2="267.04" y2="99.09" gradientTransform="matrix(1, 0, 0, -1, 0, 370.04)" gradientUnits="userSpaceOnUse"><stop offset="0.01" stop-color="#ffe589" stop-opacity="0"/><stop offset="0.03" stop-color="#ead98c" stop-opacity="0.1"/><stop offset="0.08" stop-color="#bcbe94" stop-opacity="0.31"/><stop offset="0.13" stop-color="#94a59a" stop-opacity="0.5"/><stop offset="0.2" stop-color="#7291a0" stop-opacity="0.65"/><stop offset="0.27" stop-color="#5681a4" stop-opacity="0.78"/><stop offset="0.35" stop-color="#4174a8" stop-opacity="0.88"/><stop offset="0.45" stop-color="#326baa" stop-opacity="0.95"/><stop offset="0.6" stop-color="#2966ac" stop-opacity="0.99"/><stop offset="1" stop-color="#2765ac"/></linearGradient></defs><title>Asset 2</title><g id="Layer_2" data-name="Layer 2"><g id="Layer_1-2" data-name="Layer 1"><g id="Layer_2-2" data-name="Layer 2"><g id="elementos_esteira" data-name="elementos esteira"><polygon class="cls-2" points="254.68 51.99 191.39 88.53 254.68 125.07 317.97 88.53 254.68 51.99"/><polygon class="cls-3" points="191.39 88.53 191.39 110.55 254.68 147.09 254.68 125.07 191.39 88.53"/><polygon class="cls-4" points="254.68 124.93 254.68 147.11 317.97 110.57 317.97 88.53 254.68 124.93"/><polygon class="cls-5" points="259.42 140.74 312.59 109.99 312.59 95.52 259.42 126.26 259.42 140.74"/><polygon class="cls-5" points="249.89 141.26 196.72 110.52 196.72 96.04 249.89 126.78 249.89 141.26"/><polyline class="cls-6" points="122.87 200.77 248.97 127.97 248.97 139.49 240.67 144.28 240.67 144.28 122.87 212.28"/><polygon class="cls-7" points="220.52 144.95 209.98 144.99 200.76 149.25 215.11 157.57 217.67 157.56 217.13 157.06 220.52 144.95"/><polygon class="cls-7" points="204.26 154.37 193.72 154.42 184.5 158.65 198.85 166.97 201.41 166.96 200.87 166.46 204.26 154.37"/><polygon class="cls-7" points="187.94 163.74 177.41 163.78 168.19 168.02 182.54 176.33 185.09 176.32 184.56 175.82 187.94 163.74"/><polygon class="cls-7" points="187.94 163.74 177.41 163.78 168.19 168.02 182.54 176.33 185.09 176.32 184.56 175.82 187.94 163.74"/><polygon class="cls-7" points="171.63 173.1 161.1 173.14 151.88 177.38 166.23 185.7 168.78 185.68 168.25 185.18 171.63 173.1"/><polygon class="cls-7" points="171.63 173.1 161.1 173.14 151.88 177.38 166.23 185.7 168.78 185.68 168.25 185.18 171.63 173.1"/><polygon class="cls-7" points="155.32 182.46 144.79 182.5 135.57 186.74 149.92 195.06 152.47 195.05 151.94 194.54 155.32 182.46"/><polygon class="cls-7" points="155.32 182.46 144.79 182.5 135.57 186.74 149.92 195.06 152.47 195.05 151.94 194.54 155.32 182.46"/><polygon class="cls-7" points="139.01 191.82 128.48 191.86 119.26 196.1 133.61 204.42 136.16 204.41 135.63 203.9 139.01 191.82"/><polygon class="cls-7" points="139.01 191.82 128.48 191.86 119.26 196.1 133.61 204.42 136.16 204.41 135.63 203.9 139.01 191.82"/><polygon class="cls-7" points="236.67 135.47 226.14 135.51 216.91 139.78 231.26 148.09 233.82 148.08 233.28 147.58 236.67 135.47"/><polygon class="cls-7" points="236.67 135.47 226.14 135.51 216.91 139.78 231.26 148.09 233.82 148.08 233.28 147.58 236.67 135.47"/><polygon class="cls-7" points="248.97 127.97 245.59 126.01 242.41 125.99 233.19 130.25 247.54 138.57 248.97 138.91 248.97 127.97"/><ellipse class="cls-8" cx="235.69" cy="141.61" rx="7.07" ry="4.08" transform="translate(-4.53 275.4) rotate(-60.11)"/><ellipse class="cls-7" cx="234.8" cy="141.96" rx="2.01" ry="1.16" transform="translate(-5.22 274.91) rotate(-60.14)"/><ellipse class="cls-8" cx="218.53" cy="151.43" rx="7.05" ry="4.07" transform="translate(-21.59 265.56) rotate(-60.14)"/><ellipse class="cls-7" cx="218.53" cy="151.43" rx="2.01" ry="1.16" transform="translate(-21.59 265.56) rotate(-60.14)"/><ellipse class="cls-8" cx="202.28" cy="160.83" rx="7.05" ry="4.07" transform="translate(-37.91 256.18) rotate(-60.14)"/><ellipse class="cls-7" cx="202.28" cy="160.83" rx="2.01" ry="1.16" transform="translate(-37.91 256.18) rotate(-60.14)"/><ellipse class="cls-8" cx="186.01" cy="170.19" rx="7.05" ry="4.07" transform="translate(-54.19 246.77) rotate(-60.14)"/><ellipse class="cls-7" cx="186.01" cy="170.19" rx="2.01" ry="1.16" transform="translate(-54.19 246.77) rotate(-60.14)"/><path class="cls-8" d="M164.77,182.4a11,11,0,0,1,5-8.64c2.74-1.59,5-.3,5,2.88a11,11,0,0,1-5,8.65C167,186.87,164.78,185.57,164.77,182.4Z"/><ellipse class="cls-7" cx="169.74" cy="179.53" rx="2.01" ry="1.16" transform="translate(-70.46 237.35) rotate(-60.14)"/><ellipse class="cls-8" cx="153.49" cy="189" rx="7.05" ry="4.07" transform="translate(-86.84 228.01) rotate(-60.14)"/><ellipse class="cls-7" cx="153.49" cy="189" rx="2.01" ry="1.16" transform="translate(-86.84 228.01) rotate(-60.14)"/><ellipse class="cls-8" cx="137.21" cy="198.39" rx="7.05" ry="4.07" transform="translate(-103.16 218.61) rotate(-60.14)"/><ellipse class="cls-7" cx="137.21" cy="198.39" rx="2.01" ry="1.16" transform="translate(-103.16 218.61) rotate(-60.14)"/><path class="cls-8" d="M122.87,201.33c1.79-.15,3,1.16,3.06,3.54a11.14,11.14,0,0,1-3.06,7.09"/><polygon class="cls-9" points="248.97 127.97 199.16 99.11 72.82 172.05 122.83 200.8 248.97 127.97"/><g class="cls-10"><line class="cls-11" x1="90.58" y1="157.29" x2="155.84" y2="195.06"/><line class="cls-11" x1="56.93" y1="161.83" x2="130.53" y2="204.42"/><line class="cls-11" x1="106.84" y1="142.67" x2="179.96" y2="184.98"/><line class="cls-11" x1="126.57" y1="130.04" x2="200.21" y2="172.64"/><line class="cls-11" x1="142.3" y1="115.09" x2="209.47" y2="153.96"/><line class="cls-11" x1="170.68" y1="107.47" x2="239.8" y2="147.47"/><line class="cls-11" x1="190.08" y1="94.63" x2="289.5" y2="152.17"/></g><polygon class="cls-12" points="63.29 164.27 0 200.81 63.29 237.35 126.58 200.81 63.29 164.27"/><polygon class="cls-13" points="0 200.81 0 222.84 63.29 259.38 63.29 237.35 0 200.81"/><polygon class="cls-14" points="63.29 237.22 63.29 259.39 126.58 222.85 126.58 200.81 63.29 237.22"/><polyline class="cls-6" points="386.88 200.27 260.54 127.38 260.56 138.9 386.13 211.4 386.88 211.84"/><polygon class="cls-7" points="369.37 200.08 381.87 192.86 367.77 184.72 362.2 187.94 365.58 199.55 369.37 200.08"/><polygon class="cls-7" points="385.66 209.47 386.88 208.77 386.88 195.75 384.06 194.11 378.5 197.33 381.88 208.94 385.66 209.47"/><polygon class="cls-7" points="353.11 190.69 365.61 183.48 351.51 175.34 345.95 178.56 349.33 190.17 353.11 190.69"/><polygon class="cls-7" points="353.11 190.69 365.61 183.48 351.51 175.34 345.95 178.56 349.33 190.17 353.11 190.69"/><polygon class="cls-7" points="336.79 181.25 349.29 174.03 335.19 165.9 329.63 169.12 333.01 180.72 336.79 181.25"/><polygon class="cls-7" points="320.56 171.9 333.06 164.68 318.96 156.54 313.4 159.76 316.77 171.37 320.56 171.9"/><polygon class="cls-7" points="304.32 162.51 316.82 155.3 302.71 147.16 297.15 150.38 300.53 161.99 304.32 162.51"/><polygon class="cls-7" points="304.3 162.52 316.8 155.3 302.7 147.17 297.13 150.39 300.51 161.99 304.3 162.52"/><polygon class="cls-7" points="288.04 153.13 300.54 145.91 286.44 137.77 280.87 141 284.25 152.6 288.04 153.13"/><polygon class="cls-7" points="288.04 153.13 300.54 145.91 286.44 137.78 280.88 141 284.26 152.61 288.04 153.13"/><polygon class="cls-7" points="271.72 143.69 284.22 136.47 270.12 128.33 264.56 131.56 267.96 143.11 271.72 143.69"/><path class="cls-9" d="M436.71,171.45,310.46,98.56l-49.93,28.82,126.35,72.89"/><g class="cls-15"><line class="cls-11" x1="339.64" y1="106.52" x2="280.11" y2="140.88"/><line class="cls-11" x1="319.94" y1="93.9" x2="186.64" y2="170.83"/><line class="cls-11" x1="356.79" y1="120.65" x2="301.25" y2="152.71"/><line class="cls-11" x1="384.48" y1="128.73" x2="299.78" y2="177.62"/><line class="cls-11" x1="401.13" y1="143.14" x2="323.23" y2="188.11"/><line class="cls-11" x1="430.12" y1="150.44" x2="348.17" y2="197.75"/><line class="cls-11" x1="439.99" y1="168.79" x2="332.14" y2="231.05"/></g><ellipse class="cls-8" cx="268.27" cy="137.53" rx="4.07" ry="7.05" transform="translate(-32.86 151.82) rotate(-29.86)"/><ellipse class="cls-7" cx="268.27" cy="137.53" rx="1.16" ry="2.01" transform="translate(-32.86 151.82) rotate(-29.86)"/><ellipse class="cls-8" cx="284.53" cy="147" rx="4.07" ry="7.05" transform="translate(-35.41 161.18) rotate(-29.86)"/><ellipse class="cls-7" cx="284.53" cy="147" rx="1.16" ry="2.01" transform="translate(-35.41 161.18) rotate(-29.86)"/><ellipse class="cls-8" cx="300.8" cy="156.39" rx="4.07" ry="7.05" transform="translate(-37.93 170.52) rotate(-29.86)"/><ellipse class="cls-7" cx="300.8" cy="156.39" rx="1.16" ry="2.01" transform="translate(-37.93 170.52) rotate(-29.86)"/><ellipse class="cls-8" cx="318.28" cy="165.53" rx="4.08" ry="7.07" transform="translate(-40.15 180.61) rotate(-29.89)"/><ellipse class="cls-7" cx="317.06" cy="165.75" rx="1.16" ry="2.01" transform="translate(-40.43 179.86) rotate(-29.86)"/><path class="cls-8" d="M338.3,178a11.07,11.07,0,0,0-5-8.65c-2.74-1.59-5-.29-5,2.89a11,11,0,0,0,5,8.64C336,182.47,338.29,181.17,338.3,178Z"/><ellipse class="cls-7" cx="333.32" cy="175.09" rx="1.16" ry="2.01" transform="translate(-42.92 189.2) rotate(-29.86)"/><ellipse class="cls-8" cx="349.59" cy="184.54" rx="4.07" ry="7.05" transform="translate(-45.47 198.55) rotate(-29.86)"/><ellipse class="cls-7" cx="349.59" cy="184.54" rx="1.16" ry="2.01" transform="translate(-45.47 198.55) rotate(-29.86)"/><ellipse class="cls-8" cx="365.85" cy="193.95" rx="4.07" ry="7.05" transform="translate(-48 207.9) rotate(-29.86)"/><ellipse class="cls-7" cx="365.85" cy="193.95" rx="1.16" ry="2.01" transform="translate(-48 207.9) rotate(-29.86)"/><path class="cls-8" d="M386.88,204.42a11.2,11.2,0,0,0-4.75-6.81c-2.73-1.59-5-.3-5,2.87a11.08,11.08,0,0,0,5,8.64c2.24,1.3,4.15.68,4.78-1.32Z"/><ellipse class="cls-7" cx="382.13" cy="203.33" rx="1.16" ry="2.01" transform="translate(-50.51 217.25) rotate(-29.86)"/><polygon class="cls-16" points="436.71 157.4 373.43 193.93 436.71 230.47 500 193.93 436.71 157.4"/><polygon class="cls-17" points="373.43 193.93 373.43 215.96 436.71 252.5 436.71 230.47 373.43 193.93"/><polygon class="cls-18" points="436.71 230.34 436.71 252.52 500 215.98 500 193.93 436.71 230.34"/><polygon class="cls-17" points="431.92 247.36 378.75 216.61 378.75 202.14 431.92 232.88 431.92 247.36"/><polygon class="cls-14" points="68.78 251.75 121.94 221.01 121.94 206.53 68.78 237.27 68.78 251.75"/><path class="cls-19" d="M459.8,187.15l-.37-.21-.21-.11.77.44Z"/><path class="cls-19" d="M459.62,187l-.19-.1.37.21Z"/><path class="cls-19" d="M459.85,212.91l-.45.26.22-.12Z"/><polyline class="cls-6" points="196.47 310.98 70.14 238.09 70.16 249.61 195.73 322.12 196.48 322.55"/><polygon class="cls-7" points="178.96 310.79 191.46 303.58 177.36 295.44 171.8 298.66 175.18 310.27 178.96 310.79"/><polygon class="cls-7" points="195.26 320.19 196.48 319.48 196.48 306.46 193.66 304.83 188.1 308.05 191.48 319.66 195.26 320.19"/><polygon class="cls-7" points="162.71 301.41 175.21 294.19 161.11 286.06 155.55 289.28 158.93 300.88 162.71 301.41"/><polygon class="cls-7" points="162.71 301.41 175.21 294.19 161.11 286.06 155.55 289.28 158.93 300.88 162.71 301.41"/><polygon class="cls-7" points="146.39 291.96 158.89 284.75 144.79 276.62 139.23 279.84 142.61 291.44 146.39 291.96"/><polygon class="cls-7" points="130.16 282.61 142.66 275.39 128.56 267.26 122.99 270.48 126.37 282.08 130.16 282.61"/><polygon class="cls-7" points="113.91 273.23 126.41 266.01 112.31 257.88 106.75 261.1 110.13 272.7 113.91 273.23"/><polygon class="cls-7" points="113.89 273.24 126.39 266.02 112.29 257.88 106.73 261.11 110.11 272.71 113.89 273.24"/><polygon class="cls-7" points="97.63 263.85 110.13 256.63 96.03 248.49 90.47 251.71 93.85 263.32 97.63 263.85"/><polygon class="cls-7" points="97.64 263.85 110.14 256.63 96.04 248.49 90.48 251.72 93.85 263.32 97.64 263.85"/><polygon class="cls-7" points="81.31 254.41 93.82 247.19 79.71 239.05 74.15 242.27 77.55 253.83 81.31 254.41"/><path class="cls-9" d="M246.92,285.19l-126.25-72.9L70.74,241.11,197.09,314"/><g class="cls-20"><line class="cls-11" x1="149.1" y1="220.68" x2="75.08" y2="263.4"/><line class="cls-11" x1="133.4" y1="205.75" x2="63.62" y2="246.02"/><line class="cls-11" x1="178.47" y1="227.76" x2="91.19" y2="278.14"/><line class="cls-11" x1="195.49" y1="242" x2="109.99" y2="291.35"/><line class="cls-11" x1="216.37" y1="253.97" x2="140.25" y2="297.91"/><line class="cls-11" x1="238.88" y1="265.01" x2="162.59" y2="309.04"/><line class="cls-11" x1="252.94" y1="280.94" x2="185.92" y2="319.63"/></g><ellipse class="cls-8" cx="77.88" cy="248.25" rx="4.07" ry="7.05" transform="translate(-113.26 71.73) rotate(-29.86)"/><ellipse class="cls-7" cx="77.88" cy="248.25" rx="1.16" ry="2.01" transform="translate(-113.26 71.73) rotate(-29.86)"/><ellipse class="cls-8" cx="94.15" cy="257.72" rx="4.07" ry="7.05" transform="translate(-115.82 81.09) rotate(-29.86)"/><ellipse class="cls-7" cx="94.15" cy="257.72" rx="1.16" ry="2.01" transform="translate(-115.82 81.09) rotate(-29.86)"/><ellipse class="cls-8" cx="110.41" cy="267.11" rx="4.07" ry="7.05" transform="translate(-118.33 90.43) rotate(-29.86)"/><ellipse class="cls-7" cx="110.41" cy="267.11" rx="1.16" ry="2.01" transform="translate(-118.33 90.43) rotate(-29.86)"/><ellipse class="cls-8" cx="126.66" cy="276.48" rx="4.07" ry="7.05" transform="translate(-120.84 99.77) rotate(-29.86)"/><ellipse class="cls-7" cx="126.66" cy="276.48" rx="1.16" ry="2.01" transform="matrix(0.87, -0.5, 0.5, 0.87, -120.84, 99.77)"/><path class="cls-8" d="M147.9,288.73a11.09,11.09,0,0,0-5-8.65c-2.73-1.59-5-.29-5,2.88a11,11,0,0,0,5,8.65C145.64,293.19,147.89,291.89,147.9,288.73Z"/><ellipse class="cls-7" cx="142.93" cy="285.82" rx="1.16" ry="2.01" transform="translate(-123.33 109.11) rotate(-29.86)"/><ellipse class="cls-8" cx="159.19" cy="295.28" rx="4.07" ry="7.05" transform="translate(-125.88 118.46) rotate(-29.86)"/><ellipse class="cls-7" cx="159.19" cy="295.28" rx="1.16" ry="2.01" transform="translate(-125.88 118.46) rotate(-29.86)"/><ellipse class="cls-8" cx="175.46" cy="304.67" rx="4.07" ry="7.05" transform="translate(-128.4 127.8) rotate(-29.86)"/><ellipse class="cls-7" cx="175.46" cy="304.67" rx="1.16" ry="2.01" transform="translate(-128.4 127.8) rotate(-29.86)"/><path class="cls-8" d="M196.47,315.14a11.23,11.23,0,0,0-4.74-6.81c-2.74-1.59-5-.3-5,2.86a11,11,0,0,0,5,8.65c2.24,1.3,4.15.67,4.77-1.33C196.47,318,196.48,315.78,196.47,315.14Z"/><ellipse class="cls-7" cx="191.73" cy="314.05" rx="1.16" ry="2.01" transform="translate(-130.91 137.15) rotate(-29.86)"/><polyline class="cls-6" points="304.89 306.35 431 233.55 431 245.06 422.69 249.85 422.69 249.85 304.89 317.85"/><polygon class="cls-7" points="402.54 250.52 392.01 250.56 382.79 254.83 397.14 263.15 399.69 263.13 399.15 262.63 402.54 250.52"/><polygon class="cls-7" points="386.28 259.95 375.75 259.99 366.53 264.23 380.88 272.55 383.43 272.53 382.89 272.03 386.28 259.95"/><polygon class="cls-7" points="369.97 269.31 359.44 269.35 350.21 273.59 364.56 281.91 367.12 281.9 366.58 281.39 369.97 269.31"/><polygon class="cls-7" points="369.97 269.31 359.44 269.35 350.21 273.59 364.56 281.91 367.12 281.9 366.58 281.39 369.97 269.31"/><polygon class="cls-7" points="353.66 278.67 343.13 278.72 333.9 282.95 348.25 291.27 350.81 291.26 350.27 290.76 353.66 278.67"/><polygon class="cls-7" points="353.66 278.67 343.13 278.72 333.9 282.95 348.25 291.27 350.81 291.26 350.27 290.76 353.66 278.67"/><polygon class="cls-7" points="337.35 288.03 326.81 288.08 317.59 292.31 331.94 300.63 334.5 300.62 333.96 300.12 337.35 288.03"/><polygon class="cls-7" points="337.35 288.03 326.81 288.08 317.59 292.31 331.94 300.63 334.5 300.62 333.96 300.12 337.35 288.03"/><polygon class="cls-7" points="321.04 297.4 310.5 297.44 301.28 301.68 315.63 309.99 318.19 309.98 317.65 309.48 321.04 297.4"/><polygon class="cls-7" points="321.04 297.4 310.5 297.44 301.28 301.68 315.63 309.99 318.19 309.98 317.65 309.48 321.04 297.4"/><polygon class="cls-7" points="418.69 241.05 408.16 241.09 398.94 245.35 413.29 253.67 415.84 253.65 415.31 253.15 418.69 241.05"/><polygon class="cls-7" points="418.69 241.05 408.16 241.09 398.94 245.35 413.29 253.67 415.84 253.65 415.31 253.15 418.69 241.05"/><polygon class="cls-7" points="431 233.55 427.62 231.59 424.44 231.56 415.21 235.82 429.56 244.14 430.99 244.49 431 233.55"/><ellipse class="cls-8" cx="416.84" cy="247.55" rx="7.05" ry="4.07" transform="translate(-5.38 485.8) rotate(-60.14)"/><ellipse class="cls-7" cx="416.84" cy="247.55" rx="2.01" ry="1.16" transform="translate(-5.38 485.8) rotate(-60.14)"/><ellipse class="cls-8" cx="400.57" cy="257.03" rx="7.05" ry="4.07" transform="translate(-21.77 476.45) rotate(-60.14)"/><ellipse class="cls-7" cx="400.57" cy="257.03" rx="2.01" ry="1.16" transform="translate(-21.77 476.45) rotate(-60.14)"/><ellipse class="cls-8" cx="384.31" cy="266.41" rx="7.05" ry="4.07" transform="translate(-38.08 467.06) rotate(-60.14)"/><ellipse class="cls-7" cx="384.31" cy="266.41" rx="2.01" ry="1.16" transform="translate(-38.08 467.06) rotate(-60.14)"/><ellipse class="cls-8" cx="368.05" cy="275.79" rx="7.05" ry="4.07" transform="translate(-54.37 457.67) rotate(-60.14)"/><ellipse class="cls-7" cx="368.05" cy="275.79" rx="2.01" ry="1.16" transform="translate(-54.37 457.67) rotate(-60.14)"/><path class="cls-8" d="M346.79,288a11.07,11.07,0,0,1,5-8.65c2.74-1.59,5-.29,5,2.88a11,11,0,0,1-5,8.65C349.05,292.44,346.8,291.14,346.79,288Z"/><ellipse class="cls-7" cx="351.79" cy="285.12" rx="2.01" ry="1.16" transform="translate(-70.63 448.25) rotate(-60.14)"/><ellipse class="cls-8" cx="335.51" cy="294.59" rx="7.05" ry="4.07" transform="translate(-87.02 438.89) rotate(-60.14)"/><ellipse class="cls-7" cx="335.51" cy="294.59" rx="2.01" ry="1.16" transform="translate(-87.02 438.89) rotate(-60.14)"/><ellipse class="cls-8" cx="319.25" cy="303.98" rx="7.05" ry="4.07" transform="translate(-103.32 429.5) rotate(-60.14)"/><ellipse class="cls-7" cx="319.25" cy="303.98" rx="2.01" ry="1.16" transform="translate(-103.32 429.5) rotate(-60.14)"/><path class="cls-8" d="M304.89,306.91c1.79-.16,3.05,1.16,3.06,3.53a11.09,11.09,0,0,1-3.06,7.1"/><polygon class="cls-9" points="431 233.55 381.18 204.68 254.85 277.62 304.86 306.38 431 233.55"/><g class="cls-21"><line class="cls-11" x1="246.31" y1="247.65" x2="343.78" y2="304.06"/><line class="cls-11" x1="244.72" y1="270.75" x2="312.56" y2="310"/><line class="cls-11" x1="288.76" y1="248.18" x2="364.97" y2="292.28"/><line class="cls-11" x1="309.11" y1="235.9" x2="386.88" y2="280.91"/><line class="cls-11" x1="333.43" y1="225.94" x2="407.1" y2="268.56"/><line class="cls-11" x1="354.67" y1="214.18" x2="428.4" y2="256.85"/><line class="cls-11" x1="368.49" y1="198.12" x2="446.02" y2="242.98"/></g><polygon class="cls-22" points="251.32 272.51 188.03 309.04 251.32 345.58 314.61 309.04 251.32 272.51"/><polygon class="cls-23" points="188.03 309.04 188.03 331.07 251.32 367.61 251.32 345.58 188.03 309.04"/><polygon class="cls-24" points="251.32 345.45 251.32 367.63 314.61 331.09 314.61 309.04 251.32 345.45"/><polygon class="cls-25" points="211.75 298.44 237.11 313.11 268.63 294.74 243.44 280.11 211.75 298.44"/><polygon class="cls-26" points="254.96 299.08 251.11 296.86 240.37 303.06 244.2 305.3 254.96 299.08"/><polygon class="cls-26" points="245.54 286.83 247.45 287.93 249.25 286.9 247.34 285.79 245.54 286.83"/><polygon class="cls-26" points="238.08 289.04 236.2 287.95 234.4 289 236.27 290.08 238.08 289.04"/><polygon class="cls-26" points="251.03 287.94 249.25 288.97 251.16 290.07 252.94 289.04 251.03 287.94"/><polygon class="cls-26" points="241.77 291.18 239.89 290.09 238.1 291.13 239.98 292.21 241.77 291.18"/><polygon class="cls-26" points="241.82 286.9 239.93 285.8 238.11 286.85 240 287.94 241.82 286.9"/><polygon class="cls-26" points="231.3 305.8 240.5 300.49 238.51 299.34 229.38 304.69 231.3 305.8"/><polygon class="cls-26" points="241.81 288.99 243.71 290.08 245.51 289.04 243.62 287.95 241.81 288.99"/><polygon class="cls-26" points="245.52 295.4 247.39 296.48 249.15 295.47 247.28 294.38 245.52 295.4"/><polygon class="cls-26" points="249.2 291.19 247.31 290.09 245.52 291.12 247.41 292.21 249.2 291.19"/><polygon class="cls-26" points="245.56 284.76 243.65 283.65 241.83 284.7 243.74 285.8 245.56 284.76"/><polygon class="cls-26" points="236.18 292.24 233.21 293.95 235.06 295.02 238.04 293.32 236.18 292.24"/><polygon class="cls-26" points="232.49 290.09 229.51 291.82 231.36 292.88 234.35 291.17 232.49 290.09"/><polygon class="cls-26" points="220.18 299.4 229.4 294.08 227.41 292.93 218.25 298.29 220.18 299.4"/><polygon class="cls-26" points="243.56 296.52 240.62 298.22 242.47 299.29 245.42 297.6 243.56 296.52"/><polygon class="cls-26" points="239.87 294.38 236.91 296.09 238.77 297.16 241.73 295.46 239.87 294.38"/><polygon class="cls-26" points="227.59 303.66 236.8 298.35 234.81 297.2 225.67 302.55 227.59 303.66"/><polygon class="cls-26" points="252.95 291.1 254.86 292.2 256.63 291.19 254.72 290.08 252.95 291.1"/><polygon class="cls-26" points="223.89 301.53 233.1 296.21 231.11 295.07 221.96 300.42 223.89 301.53"/><polygon class="cls-26" points="249.23 293.25 251.12 294.34 252.89 293.33 251 292.23 249.23 293.25"/><polygon class="cls-26" points="245.46 293.33 243.58 292.24 241.81 293.26 243.69 294.34 245.46 293.33"/><polygon class="cls-8" points="211.73 298.43 211.73 300.65 237.11 315.22 237.11 313.11 211.73 298.43"/><polygon class="cls-26" points="268.64 294.74 237.11 313.11 237.11 315.22 268.64 297.17 268.64 294.74"/><polygon class="cls-26" points="244.15 251.27 243.4 250.84 211.73 269.15 212.46 269.57 244.15 251.27"/><polygon class="cls-8" points="244.15 251.27 244.15 280.55 212.46 298.85 212.46 269.57 244.15 251.27"/><polygon class="cls-26" points="212.46 298.85 212.46 269.57 211.73 269.15 211.73 298.43 212.46 298.85"/><polygon class="cls-27" points="242.15 254.26 242.15 279.37 214.41 295.37 214.42 270.25 242.15 254.26"/><polygon class="cls-25" points="102.65 194.89 77.29 209.55 45.77 191.19 70.96 176.55 102.65 194.89"/><polygon class="cls-26" points="59.44 195.52 63.29 193.3 74.03 199.5 70.2 201.74 59.44 195.52"/><polygon class="cls-26" points="68.86 183.28 66.95 184.38 65.15 183.34 67.06 182.24 68.86 183.28"/><polygon class="cls-26" points="76.32 185.48 78.2 184.4 80 185.44 78.13 186.52 76.32 185.48"/><polygon class="cls-26" points="63.37 184.38 65.15 185.41 63.25 186.51 61.46 185.49 63.37 184.38"/><polygon class="cls-26" points="72.63 187.63 74.51 186.54 76.3 187.57 74.42 188.65 72.63 187.63"/><polygon class="cls-26" points="72.58 183.34 74.47 182.24 76.29 183.3 74.4 184.38 72.58 183.34"/><polygon class="cls-26" points="83.1 202.24 73.9 196.93 75.89 195.78 85.03 201.13 83.1 202.24"/><polygon class="cls-26" points="72.59 185.43 70.69 186.52 68.89 185.49 70.78 184.39 72.59 185.43"/><polygon class="cls-26" points="68.88 191.84 67.01 192.92 65.25 191.91 67.13 190.82 68.88 191.84"/><polygon class="cls-26" points="65.2 187.63 67.09 186.53 68.88 187.56 66.99 188.65 65.2 187.63"/><polygon class="cls-26" points="68.84 181.2 70.75 180.09 72.57 181.15 70.66 182.24 68.84 181.2"/><polygon class="cls-26" points="78.22 188.68 81.19 190.39 79.34 191.46 76.36 189.76 78.22 188.68"/><polygon class="cls-26" points="81.91 186.54 84.89 188.26 83.04 189.33 80.05 187.62 81.91 186.54"/><polygon class="cls-26" points="94.22 195.84 85 190.52 87 189.37 96.15 194.73 94.22 195.84"/><polygon class="cls-26" points="70.84 192.97 73.78 194.67 71.93 195.74 68.98 194.05 70.84 192.97"/><polygon class="cls-26" points="74.53 190.82 77.48 192.53 75.64 193.6 72.67 191.9 74.53 190.82"/><polygon class="cls-26" points="86.81 200.11 77.6 194.8 79.59 193.65 88.73 199 86.81 200.11"/><polygon class="cls-26" points="61.45 187.55 59.54 188.64 57.77 187.63 59.68 186.52 61.45 187.55"/><polygon class="cls-26" points="90.52 197.97 81.3 192.66 83.29 191.51 92.44 196.86 90.52 197.97"/><polygon class="cls-26" points="65.17 189.7 63.28 190.78 61.51 189.77 63.4 188.67 65.17 189.7"/><polygon class="cls-26" points="68.94 189.77 70.82 188.68 72.59 189.71 70.72 190.78 68.94 189.77"/><polygon class="cls-8" points="102.67 194.87 102.67 197.09 77.29 211.67 77.29 209.55 102.67 194.87"/><polygon class="cls-26" points="45.76 191.19 77.29 209.55 77.29 211.67 45.76 193.62 45.76 191.19"/><polygon class="cls-26" points="70.25 147.72 71 147.29 102.67 165.6 101.94 166.01 70.25 147.72"/><polygon class="cls-8" points="70.25 147.72 70.25 176.99 101.95 195.29 101.94 166.01 70.25 147.72"/><polygon class="cls-26" points="101.95 195.29 101.94 166.01 102.67 165.6 102.67 194.87 101.95 195.29"/><polygon class="cls-27" points="72.25 150.7 72.25 175.81 99.99 191.81 99.98 166.69 72.25 150.7"/><path class="cls-25" d="M87.32,172.6l-1.12-6.87a.11.11,0,0,0,0-.08v-.25a.5.5,0,0,1,0-.13v-.09l-.09-.18h0l-.12-.19h0l-.14-.16h0l-.07-.07h0l-.08-.06-.1-.07-.1,0h-.53l-.1.07h0l-.06.08v.17h0l-3.19,11a2.07,2.07,0,0,0,.66,1.83,1,1,0,0,0,.2.15h0l.12.06h.32a.45.45,0,0,0,.25-.18h0a.75.75,0,0,0,.07-.12v-.13l1.77-7,1.1,6.75Z"/><path class="cls-25" d="M81.32,163a2,2,0,0,0-1.12-1.54c-.52-.15-.85.3-.74,1l1.81,12,1.08-4.64Z"/><path class="cls-25" d="M90.39,167.31c-.51-.44-1-.34-1.17.22l-2.6,11.14a1.71,1.71,0,0,0,.1,1,2.45,2.45,0,0,0,.49.78h0a.23.23,0,0,1,.07.07h.06l.13.09h0a.31.31,0,0,0,.13.06h.22a.55.55,0,0,0,.49-.37h0v-.08L90.91,169A2.09,2.09,0,0,0,90.39,167.31Z"/><path class="cls-28" d="M37.92,168.79a18.62,18.62,0,0,0,1,12.31c8.08,18.47,28.39,2.41,28.39,2.41"/><path class="cls-29" d="M53.77,216.82c2.35-1.36,3.64-3.11,3.86-4.89h0a1.31,1.31,0,0,0,0-.28h0v-.24h0v-.73h0V185c0-4.48-4.49-8.14-10-8.14H41c-5.49,0-10.07,3.66-10.07,8.14V211.1a7.5,7.5,0,0,0,.14,1.16,4.94,4.94,0,0,0,.15.55,7.61,7.61,0,0,0,3.66,4"/><rect class="cls-30" x="56.2" y="147.22" width="2.48" height="6.25" rx="0.43" ry="0.43" transform="translate(-27.2 13.46) rotate(-10.82)"/><circle cx="57.91" cy="146.81" r="0.98"/><rect class="cls-31" x="32.97" y="127.41" width="25.22" height="43.29" rx="11.15" ry="11.15"/><path class="cls-32" d="M57.59,155.72h.46c.43,0,.43-.7,0-.66h-.46a.33.33,0,0,0,0,.66Z"/><path class="cls-28" d="M47.33,178.2a18.66,18.66,0,0,0,1.05,12.32c8.08,18.47,32.12,5.57,32.12,5.57"/><path class="cls-3" d="M32,129.17s-9.08,2.49-9.28,11.12,5,10.08,3.65,15.48-6.71,7.9-6.12,13.3,6.65,6.46,7,11.54c1.16,16.56,21.62,13.84,25.91,11.31,3.34-2,4-6.25,5.46-8.39,7.34-10.69,0-14.62-2.36-18.2-3.24-4.85-5.33-9.87-3.45-14.86s8.71-9.43,6.48-14.66c-1.78-4.14-6.09-10.28-15.76-10.49C37.6,125.19,32,129.17,32,129.17Z"/><circle class="cls-31" cx="52.13" cy="149.92" r="2.86"/><circle class="cls-30" cx="52.13" cy="149.92" r="1.13"/><path class="cls-19" d="M276.83,105.7l-.84-.46,1.64,1A5.11,5.11,0,0,0,276.83,105.7Z"/><polygon class="cls-19" points="277.63 106.19 275.99 105.24 275.99 105.24 277.63 106.19 277.63 106.19"/><path class="cls-2" d="M268,97.33V66.14a16.57,16.57,0,0,0-16.52-16.51h-.3a16.56,16.56,0,0,0-16.51,16.51V97.33C246.49,97.33,256.29,97.52,268,97.33Z"/><g class="cls-33"><rect class="cls-2" x="221.86" y="95.73" width="53.07" height="27.16"/></g><path class="cls-34" d="M268.67,70.93c-1.5,24.38,20.32,20.8,10.75.57"/><path class="cls-35" d="M265.32,58a49.63,49.63,0,0,1,2.95,10.83"/><path class="cls-2" d="M268,97.33V66.14a16.57,16.57,0,0,0-16.52-16.51h-.3a16.56,16.56,0,0,0-16.51,16.51V97.33C246.49,97.33,256.29,97.52,268,97.33Z"/><g class="cls-33"><rect class="cls-2" x="221.86" y="95.73" width="53.07" height="27.16"/></g><path class="cls-36" d="M268,97.33V66.14a16.57,16.57,0,0,0-16.52-16.51h-.3a16.56,16.56,0,0,0-16.51,16.51V97.33C246.49,97.33,256.29,97.52,268,97.33Z"/><circle class="cls-37" cx="252.78" cy="48.14" r="7.91"/><circle class="cls-37" cx="267.67" cy="27.01" r="3.06"/><circle class="cls-30" cx="267.67" cy="27.01" r="1.21"/><rect class="cls-37" x="237.88" y="4.78" width="29.79" height="46.28" rx="11.98" ry="11.98"/><circle cx="260.81" cy="25.39" r="0.93"/><circle cx="253.1" cy="25.39" r="0.93"/><rect class="cls-30" x="255.67" y="21.19" width="2.34" height="5.91" rx="0.79" ry="0.79"/><path class="cls-38" d="M254,31.45a7.38,7.38,0,0,0,5.65,0s1.31,4.83-2.83,4.83C252.36,36.28,254,31.45,254,31.45Z"/><path d="M267.67,30.07s3.73,21-12,21.72S237.9,43.37,237.9,39.54s3.63-11.62,3.63-11.62a15.85,15.85,0,0,0,14.3,8.88C264.77,37.08,267.67,30.07,267.67,30.07Z"/><path class="cls-39" d="M262.92,36.8s1.61-7.33-6.09-7.62S250,36.8,250,36.8"/><path d="M272.06,15.76c.78-1.06,2.79-4.18,0-7.38s-5.59-2.22-5.59-2.22-.59-5.15-4.73-6-7.74,2-7.74,2A9,9,0,0,0,247.44,1a6,6,0,0,0-4.59,3.77s-4.07-.71-6.17,1.24c-1.85,1.72-2.17,3.83-2,6.3a5.85,5.85,0,0,0,2.54,4.8c1.27,1,2.5,1.19,5,1.63a5.81,5.81,0,0,1,4.34-5.08s9.22,3.93,16,4.35S271.09,17.08,272.06,15.76Z"/><circle class="cls-37" cx="237.89" cy="27.01" r="3.06"/><circle class="cls-30" cx="237.89" cy="27.01" r="1.21"/><path d="M241.4,28.19s-.75,1.5-1.69,1.88c-1.23.5-1.82,0-1.82,0V39.2h3.62Z"/><path d="M267.67,30.07a5.43,5.43,0,0,1,1.65,3.62,3.06,3.06,0,0,1-1.43,2.83,3.61,3.61,0,0,1,1,2.68,2.72,2.72,0,0,1-1.53,2.48,5.8,5.8,0,0,1-.23,4,3.12,3.12,0,0,1-2.74,2.21,2.73,2.73,0,0,1-1.57,2.7,6.23,6.23,0,0,1-3.6.64,6.11,6.11,0,0,1-3.74,1.89,6.59,6.59,0,0,1-4-1.38,5,5,0,0,1-4.09.86,3.71,3.71,0,0,1-3.17-2.74,4,4,0,0,1-4.39-3.68s0-.11,0-.16-1.53-.37-2.19-2.89.26-3.59.26-3.59a3,3,0,0,1-1-2.15,4,4,0,0,1,.77-2.29s-.77-.54-.77-2.58,1-2.45,1-2.45L255.3,39.2l10.28-2.4Z"/><path class="cls-40" d="M246.15,78.18l31.71-.49A2.27,2.27,0,0,0,280,76.12l4.8-19.52a1.25,1.25,0,0,0-.86-1.54,1.31,1.31,0,0,0-.52,0l-31.71.49a2.29,2.29,0,0,0-2.15,1.57l-4.8,19.52a1.25,1.25,0,0,0,.86,1.55A1.18,1.18,0,0,0,246.15,78.18Z"/><polygon class="cls-40" points="285.24 56.18 284.51 55.46 282.95 55.27 283.3 57.75 285.24 56.18"/><polygon class="cls-40" points="266.86 77.28 267.7 78.1 267.89 77.02 266.86 77.28"/><path class="cls-41" d="M246.86,78.87l31.7-.49a2.29,2.29,0,0,0,2.15-1.57l4.8-19.52a1.25,1.25,0,0,0-.91-1.52,1.55,1.55,0,0,0-.48,0l-31.71.49a2.29,2.29,0,0,0-2.15,1.57l-4.79,19.52a1.25,1.25,0,0,0,.91,1.52A1.55,1.55,0,0,0,246.86,78.87Z"/><circle cx="242.27" cy="20.45" r="0.14"/><circle cx="240.99" cy="20.45" r="0.14"/><circle cx="241.62" cy="21.19" r="0.14"/><circle cx="240.36" cy="21.19" r="0.14"/><circle cx="239.02" cy="21.19" r="0.14"/><circle cx="241.62" cy="19.64" r="0.14"/><circle cx="240.36" cy="19.64" r="0.14"/><circle cx="239.02" cy="19.64" r="0.14"/><circle cx="239.02" cy="18.31" r="0.14"/><circle cx="239.71" cy="20.45" r="0.14"/><circle cx="239.71" cy="18.97" r="0.14"/><circle cx="238.35" cy="20.45" r="0.14"/><circle cx="238.35" cy="18.97" r="0.14"/><circle cx="242.27" cy="21.86" r="0.14"/><circle cx="240.99" cy="21.86" r="0.14"/><circle cx="241.62" cy="22.59" r="0.14"/><circle cx="240.36" cy="22.54" r="0.14"/><circle cx="239.02" cy="22.54" r="0.14"/><circle cx="239.71" cy="21.8" r="0.14"/><circle cx="238.35" cy="21.8" r="0.14"/><circle cx="242.27" cy="23.3" r="0.14"/><circle cx="242.27" cy="24.64" r="0.14"/><circle cx="240.99" cy="23.3" r="0.14"/><circle cx="240.99" cy="24.78" r="0.14"/><circle cx="241.62" cy="24.04" r="0.14"/><circle cx="241.62" cy="25.53" r="0.14"/><circle cx="240.36" cy="23.98" r="0.14"/><circle cx="239.02" cy="23.98" r="0.14"/><circle cx="239.71" cy="23.25" r="0.14"/><circle cx="238.35" cy="23.25" r="0.14"/><path class="cls-34" d="M236.84,59.45s-16.13,24.77.74,28.93c13.88,3.42,17.92-17.57,17.92-17.57"/><path class="cls-35" d="M236.84,59.45A81.2,81.2,0,0,0,231.23,71"/><polygon class="cls-41" points="265.33 76.71 276.42 76.57 273.64 67.57 263.18 69.87 265.33 76.71"/><path class="cls-34" d="M281.85,79.94c-.19-1.93-.2-6.17-2-9.59"/><path class="cls-42" d="M357.65,137.12a7.86,7.86,0,0,0-7.07,0,2.44,2.44,0,0,0-1.45,2.07h0V141h0a2.5,2.5,0,0,0,1.45,2,7.86,7.86,0,0,0,7.07,0,2.5,2.5,0,0,0,1.45-2h0v-1.81h0A2.48,2.48,0,0,0,357.65,137.12Z"/><path class="cls-43" d="M357.75,136.33a8.2,8.2,0,0,0-7.38,0,2.55,2.55,0,0,0-1.52,2.16h0v1.86h0a2.59,2.59,0,0,0,1.52,2.09,8.14,8.14,0,0,0,7.38,0,2.6,2.6,0,0,0,1.52-2.09h0v-1.89h0A2.59,2.59,0,0,0,357.75,136.33Z"/><ellipse class="cls-44" cx="354.06" cy="138.46" rx="5.22" ry="3.01"/><ellipse class="cls-23" cx="354.06" cy="138.46" rx="5.22" ry="3.01"/><path class="cls-43" d="M357.75,133.86a8.2,8.2,0,0,0-7.38,0,2.55,2.55,0,0,0-1.52,2.17h0v1.86h0a2.6,2.6,0,0,0,1.52,2.09,8.2,8.2,0,0,0,7.38,0,2.64,2.64,0,0,0,1.52-2.09h0V136h0A2.62,2.62,0,0,0,357.75,133.86Z"/><ellipse class="cls-44" cx="354.06" cy="135.99" rx="5.22" ry="3.01"/><ellipse class="cls-23" cx="354.06" cy="135.99" rx="5.22" ry="3.01"/><path class="cls-43" d="M357.75,131.73a8.14,8.14,0,0,0-7.38,0,2.55,2.55,0,0,0-1.52,2.16h0v1.86h0a2.59,2.59,0,0,0,1.52,2.09,8.2,8.2,0,0,0,7.38,0,2.6,2.6,0,0,0,1.52-2.09h0v-1.89h0A2.57,2.57,0,0,0,357.75,131.73Z"/><ellipse class="cls-44" cx="354.06" cy="133.86" rx="5.22" ry="3.01"/><ellipse class="cls-23" cx="354.06" cy="133.86" rx="5.22" ry="3.01"/><path class="cls-43" d="M357.75,129.27a8.2,8.2,0,0,0-7.38,0,2.55,2.55,0,0,0-1.52,2.17h0v1.85h0a2.62,2.62,0,0,0,1.52,2.1,8.2,8.2,0,0,0,7.38,0,2.65,2.65,0,0,0,1.52-2.1h0V131.4h0A2.61,2.61,0,0,0,357.75,129.27Z"/><ellipse class="cls-44" cx="354.06" cy="131.4" rx="5.22" ry="3.01"/><ellipse class="cls-23" cx="354.06" cy="131.4" rx="5.22" ry="3.01"/><path class="cls-43" d="M357.75,127a8.2,8.2,0,0,0-7.38,0,2.55,2.55,0,0,0-1.52,2.17h0V131h0a2.62,2.62,0,0,0,1.52,2.1,8.2,8.2,0,0,0,7.38,0,2.65,2.65,0,0,0,1.52-2.1h0v-1.89h0A2.59,2.59,0,0,0,357.75,127Z"/><ellipse class="cls-44" cx="354.06" cy="129.11" rx="5.22" ry="3.01"/><ellipse class="cls-23" cx="354.06" cy="129.11" rx="5.22" ry="3.01"/><path class="cls-42" d="M350.77,144.1a7.84,7.84,0,0,0-7.06,0,2.47,2.47,0,0,0-1.46,2.07h0V148h0a2.49,2.49,0,0,0,1.46,2,7.78,7.78,0,0,0,7.06,0,2.49,2.49,0,0,0,1.46-2h0v-1.81h0A2.49,2.49,0,0,0,350.77,144.1Z"/><polygon class="cls-45" points="413.77 175.24 413.76 178.11 422.58 183.2 422.59 180.34 421.86 179.92 414.5 175.66 413.77 175.24"/><polygon class="cls-46" points="418.83 147.78 427.76 142.59 426.67 141.96 417.73 147.15 418.83 147.78"/><polygon class="cls-46" points="421 149.04 429.94 143.84 428.84 143.21 419.9 148.4 421 149.04"/><path class="cls-45" d="M421.88,179.91l-7.37-4.26.09-31.17,7.36,4.25Z"/><polygon class="cls-47" points="421.96 148.73 430.9 143.54 423.54 139.28 414.6 144.48 421.96 148.73"/><polygon class="cls-48" points="421.88 179.91 430.82 174.71 430.9 143.54 421.96 148.73 421.88 179.91"/><polygon class="cls-2" points="422.69 149.15 431.63 143.96 431.64 141.1 422.7 146.29 422.69 149.15"/><polygon class="cls-45" points="413.88 141.2 413.87 144.06 414.6 144.48 421.96 148.73 422.69 149.15 422.7 146.29 413.88 141.2"/><polygon class="cls-2" points="422.58 183.2 431.52 178 431.53 175.14 422.59 180.34 422.58 183.2"/><polygon class="cls-4" points="422.59 180.34 431.53 175.14 430.8 174.72 421.86 179.92 422.59 180.34"/><polygon class="cls-4" points="428.77 183.88 437.71 178.69 436.98 178.27 428.04 183.46 428.77 183.88"/><polygon class="cls-47" points="436.13 188.14 445.07 182.94 437.71 178.69 428.77 183.88 436.13 188.14"/><polygon class="cls-45" points="428.04 183.46 428.03 186.33 436.86 191.42 436.86 188.56 436.13 188.14 428.77 183.88 428.04 183.46"/><polygon class="cls-2" points="436.86 191.42 445.79 186.22 445.8 183.36 436.86 188.56 436.86 191.42"/><polygon class="cls-4" points="436.86 188.56 445.8 183.36 445.07 182.94 436.13 188.14 436.86 188.56"/><polygon class="cls-4" points="443.02 192.11 451.96 186.92 451.23 186.5 442.29 191.69 443.02 192.11"/><polygon class="cls-47" points="450.39 196.37 459.33 191.17 451.96 186.92 443.02 192.11 450.39 196.37"/><polygon class="cls-2" points="451.11 199.65 460.05 194.45 460.06 191.59 451.12 196.79 451.11 199.65"/><polygon class="cls-4" points="451.12 196.79 460.06 191.59 459.33 191.17 450.39 196.37 451.12 196.79"/><polygon class="cls-45" points="442.29 191.69 442.29 194.55 451.11 199.65 451.12 196.79 450.39 196.37 443.02 192.11 442.29 191.69"/><polygon class="cls-47" points="422.7 146.29 431.64 141.1 422.81 136 413.88 141.2 422.7 146.29"/><polygon class="cls-4" points="457.28 200.34 466.22 195.15 465.49 194.73 456.55 199.92 457.28 200.34"/><polygon class="cls-46" points="430.91 154.76 439.85 149.57 438.76 148.93 429.82 154.13 430.91 154.76"/><polygon class="cls-46" points="433.08 156.02 442.02 150.82 440.93 150.19 431.99 155.38 433.08 156.02"/><polygon class="cls-46" points="435.25 157.27 444.19 152.07 443.1 151.44 434.16 156.64 435.25 157.27"/><path class="cls-45" d="M436.13,188.14l-7.36-4.26.08-31.17,7.37,4.25Z"/><polygon class="cls-47" points="464.65 204.59 473.59 199.4 466.22 195.15 457.28 200.34 464.65 204.59"/><polygon class="cls-48" points="436.13 188.14 445.07 182.94 445.16 151.77 436.22 156.96 436.13 188.14"/><polygon class="cls-47" points="436.22 156.96 445.16 151.77 437.79 147.51 428.85 152.71 436.22 156.96"/><polygon class="cls-45" points="465.38 205.01 464.65 204.59 457.28 200.34 456.55 199.92 456.54 202.78 465.37 207.88 465.38 205.01"/><polygon class="cls-2" points="465.37 207.88 474.31 202.68 474.32 199.82 465.38 205.01 465.37 207.88"/><polygon class="cls-4" points="465.38 205.01 474.32 199.82 473.59 199.4 464.65 204.59 465.38 205.01"/><polygon class="cls-45" points="436.96 154.52 428.13 149.43 428.12 152.29 428.85 152.71 436.22 156.96 436.95 157.38 436.96 154.52"/><polygon class="cls-47" points="436.96 154.52 445.9 149.33 437.07 144.23 428.13 149.43 436.96 154.52"/><polygon class="cls-2" points="436.95 157.38 445.89 152.19 445.9 149.33 436.96 154.52 436.95 157.38"/><polygon class="cls-46" points="445.17 162.99 454.11 157.8 453.01 157.17 444.07 162.36 445.17 162.99"/><polygon class="cls-46" points="447.34 164.25 456.28 159.05 455.18 158.42 446.25 163.61 447.34 164.25"/><polygon class="cls-46" points="449.51 165.5 458.45 160.3 457.35 159.67 448.41 164.86 449.51 165.5"/><path class="cls-45" d="M450.39,196.37,443,192.11l.09-31.17,7.36,4.25Z"/><polygon class="cls-47" points="450.48 165.19 459.41 159.99 452.05 155.74 443.11 160.94 450.48 165.19"/><polygon class="cls-48" points="450.39 196.37 459.33 191.17 459.41 159.99 450.48 165.19 450.39 196.37"/><polygon class="cls-47" points="451.21 162.75 460.15 157.56 451.33 152.46 442.39 157.65 451.21 162.75"/><polygon class="cls-2" points="451.2 165.61 460.14 160.41 460.15 157.56 451.21 162.75 451.2 165.61"/><polygon class="cls-48" points="464.65 204.59 473.59 199.4 473.67 168.22 464.73 173.42 464.65 204.59"/><polygon class="cls-47" points="464.73 173.42 473.67 168.22 466.3 163.97 457.36 169.16 464.73 173.42"/><polygon class="cls-2" points="465.46 173.84 474.4 168.64 474.41 165.79 465.47 170.99 465.46 173.84"/><polygon class="cls-47" points="465.47 170.99 474.41 165.79 465.58 160.69 456.64 165.88 465.47 170.99"/><polygon class="cls-49" points="439.73 135.51 448.67 130.31 428.6 135.52 419.66 140.72 439.73 135.51"/><polygon class="cls-50" points="459.71 163.84 468.65 158.65 448.67 130.31 439.73 135.51 459.71 163.84"/><path class="cls-45" d="M468.8,172.27l-58.24-33.62,29.18-7.58Zm-29.07-36.76-20.07,5.21,40,23.12-20-28.33Z"/><path class="cls-38" d="M459.71,163.84l-40-23.12,20.07-5.21Z"/><polygon class="cls-51" points="468.8 172.26 410.56 138.65 410.56 139.28 413.88 141.2 422.7 146.29 428.13 149.43 436.96 154.52 442.39 157.66 451.21 162.75 456.64 165.89 465.47 170.98 468.8 172.9 468.8 172.26"/><polygon class="cls-45" points="442.39 157.65 442.38 160.52 443.11 160.94 450.48 165.19 451.2 165.61 451.21 162.75 442.39 157.65"/><polygon class="cls-52" points="439.74 131.07 448.68 125.88 419.5 133.46 410.56 138.65 439.74 131.07"/><path class="cls-45" d="M464.65,204.59l-7.37-4.25.08-31.18,7.37,4.26Z"/><polygon class="cls-53" points="439.74 129.61 448.68 124.42 419.5 132 410.56 137.2 439.74 129.61"/><polygon class="cls-45" points="456.64 165.88 456.63 168.74 457.36 169.16 464.73 173.42 465.46 173.84 465.47 170.99 456.64 165.88"/><polygon class="cls-54" points="468.8 172.27 477.74 167.08 448.68 125.88 439.74 131.07 468.8 172.27"/><polygon class="cls-55" points="468.8 172.9 477.73 167.71 477.74 167.06 468.8 172.26 468.8 172.9"/><polygon class="cls-56" points="439.74 129.61 410.56 137.2 410.56 138.65 439.74 131.07 468.8 172.27 468.8 170.81 439.74 129.61"/><polygon class="cls-57" points="468.8 170.81 477.74 165.62 448.68 124.42 439.74 129.61 468.8 170.81"/><polygon class="cls-58" points="468.8 172.27 477.74 167.08 477.74 165.62 468.8 170.81 468.8 172.27"/><path class="cls-25" d="M435.69,145.52l.24-.15c.18-.11.38,0,.61.2a5,5,0,0,0,1.48,1.09c.56.26,1.1.26,1.13-.22.06-1-3.49-2.5-3.38-4.29.05-.85.9-1.15,2.07-.78l0-.44c0-.22.14-.28.44-.15l.07,0q.4.19.39.48l0,.47a5.77,5.77,0,0,1,1.5,1.11c.22.21.23.39.1.52l-.2.2c-.15.14-.35.08-.6-.16a4.84,4.84,0,0,0-1.24-.88c-.63-.28-1.15-.22-1.18.2-.06,1,3.5,2.42,3.39,4.28-.05.85-.84,1.23-2.13.79l0,.41c0,.23-.15.29-.42.17l-.08,0c-.29-.14-.41-.3-.4-.49l0-.47a6.62,6.62,0,0,1-1.75-1.37C435.52,145.82,435.52,145.63,435.69,145.52Z"/><path class="cls-42" d="M136.31,146.42l20.57-12.17a4.31,4.31,0,0,1,3.88.08L189,150.68c1.11.64,1.18,1.66.16,2.26L164,167.73a4.25,4.25,0,0,1-3.88-.09l-23-13.62Z"/><path class="cls-38" d="M136.16,145.19l21-12.24A4.26,4.26,0,0,1,161,133l28.19,16.34c1.11.65,1.19,1.67.17,2.26l-25.18,14.79a4.31,4.31,0,0,1-3.88-.08L137,152.75Z"/><path class="cls-59" d="M162.21,140.83l-.8-.46a.89.89,0,0,0-.84,0l-14.14,8.29a.27.27,0,0,0,0,.49l.8.47a.89.89,0,0,0,.84,0l14.14-8.29a.27.27,0,0,0,0-.49"/><path class="cls-59" d="M151.38,148.9l.41.24a.73.73,0,0,0,.64-.11l11.49-6.73c.22-.13.31-.3.18-.37l-.41-.24a.73.73,0,0,0-.64.11l-11.49,6.73c-.22.13-.31.3-.18.37"/><path class="cls-59" d="M155.51,151.3l.42.24a.71.71,0,0,0,.63-.1l11.49-6.74c.23-.13.31-.3.19-.37l-.42-.24a.74.74,0,0,0-.63.11l-11.49,6.73c-.23.13-.31.3-.19.37"/><path class="cls-59" d="M159.65,153.7l.41.25a.77.77,0,0,0,.64-.11l11.49-6.74c.22-.13.31-.3.18-.37l-.41-.24a.77.77,0,0,0-.64.11l-11.49,6.73c-.22.14-.31.3-.18.37"/><path class="cls-59" d="M166.36,143.24l-.8-.46a.89.89,0,0,0-.84,0l-11.49,6.74c-.23.13-.22.35,0,.49l.79.46a.91.91,0,0,0,.85,0l11.49-6.74a.27.27,0,0,0,0-.49"/><path class="cls-59" d="M170.49,145.64l-.79-.46a.91.91,0,0,0-.85,0l-11.49,6.74a.27.27,0,0,0,0,.49l.8.47a.89.89,0,0,0,.84,0l11.49-6.74c.23-.13.21-.35,0-.49"/><path class="cls-59" d="M174.63,148l-.8-.46a.89.89,0,0,0-.84,0l-11.49,6.73c-.23.13-.22.35,0,.49l.79.47a.91.91,0,0,0,.85,0l11.49-6.73a.27.27,0,0,0,0-.5"/><path class="cls-59" d="M177.13,149.5l-.8-.47a.89.89,0,0,0-.84,0l-14.14,8.29a.27.27,0,0,0,0,.49l.8.46a.89.89,0,0,0,.84,0L177.16,150a.27.27,0,0,0,0-.49"/><path class="cls-59" d="M150.87,149.73l-.3-.17-1-.06v.15h.29l-.81.47-.33-.19-.25.14,1,.57.25-.14-.28-.17Z"/><path class="cls-59" d="M152.46,151.48a.29.29,0,0,0-.08-.14.64.64,0,0,0-.15-.13.85.85,0,0,0-.22-.09h1.18l-.33-.19-.14-.05h-.13l-.88.06a1.46,1.46,0,0,0-.68.17.74.74,0,0,0-.19.16.27.27,0,0,0,0,.36.68.68,0,0,0,.21.17.79.79,0,0,0,.3.12,1.13,1.13,0,0,0,.32.05h.3a.82.82,0,0,0,.26-.1.41.41,0,0,0,.17-.15.43.43,0,0,0,0-.16m-.72.16h-.28l-.12-.05a.39.39,0,0,1-.1-.08.11.11,0,0,1,0-.08.09.09,0,0,1,0-.07.22.22,0,0,1,.09-.07l.12-.05h.39l.09.08a.11.11,0,0,1,0,.08.11.11,0,0,1,0,.08l-.09.07-.12.05"/><path class="cls-59" d="M154.53,152.67a.24.24,0,0,0-.07-.16.62.62,0,0,0-.2-.16l-.09,0-.1-.05.31-.12.41.23.11.06h.26l.15-.09-.89-.51-.94.39.16.16a1.53,1.53,0,0,1,.27.11c.09.05.13.1.14.15s0,.1-.11.15l-.12.06h-.29a.47.47,0,0,1-.15-.06.39.39,0,0,1-.1-.08l-.05-.07v-.12h-.39v.11a.24.24,0,0,0,.06.11.31.31,0,0,0,.09.11l.15.1a1,1,0,0,0,.3.13,1.26,1.26,0,0,0,.33.05h.32a1,1,0,0,0,.29-.11.47.47,0,0,0,.15-.13.18.18,0,0,0,.05-.16"/><path class="cls-59" d="M157.16,153.6a.23.23,0,0,0,0-.2.58.58,0,0,0-.2-.18,1.66,1.66,0,0,0-.31-.12,1,1,0,0,0-.35,0,1.78,1.78,0,0,0-.39.07,3,3,0,0,0-.41.18,2,2,0,0,0-.32.25.48.48,0,0,0-.12.22.31.31,0,0,0,.05.21.7.7,0,0,0,.2.18,1.15,1.15,0,0,0,.31.11,1,1,0,0,0,.35,0,1.34,1.34,0,0,0,.39-.07,1.53,1.53,0,0,0,.41-.19,1.08,1.08,0,0,0,.32-.24.46.46,0,0,0,.12-.23m-1.11.4a.62.62,0,0,1-.23.07h-.16l-.12-.05s-.05,0-.07-.06a.09.09,0,0,1,0-.1.28.28,0,0,1,.11-.13,1.44,1.44,0,0,1,.25-.18l.29-.14a.88.88,0,0,1,.23-.07h.16a.24.24,0,0,1,.12,0,.23.23,0,0,1,.07.07.09.09,0,0,1,0,.1.69.69,0,0,1-.11.13l-.25.18a2,2,0,0,1-.3.14"/><path class="cls-59" d="M159.28,154.78a.22.22,0,0,0-.07-.17.68.68,0,0,0-.21-.17,1.48,1.48,0,0,0-.29-.12h-.3a.76.76,0,0,0-.3,0,1.06,1.06,0,0,0-.25.09.57.57,0,0,0-.16.15.19.19,0,0,0,0,.15.16.16,0,0,0,.06.13.53.53,0,0,0,.14.12,1,1,0,0,0,.3.11h-1.35l.33.19.14.06h.13l.86-.08a2.38,2.38,0,0,0,.37-.06,1,1,0,0,0,.33-.13.65.65,0,0,0,.18-.15.22.22,0,0,0,.05-.17m-.78.16a.44.44,0,0,1-.25-.06c-.16-.09-.16-.19,0-.28l.12-.05h.36l.08.07v.07a.11.11,0,0,1,0,.08l-.08.07a.5.5,0,0,1-.24.06"/><path class="cls-59" d="M160.26,156.7l-.32-.18-.13-.06a.44.44,0,0,0-.16-.06H161l.19-.08a.4.4,0,0,0,.15-.14.2.2,0,0,0,0-.15.28.28,0,0,0-.08-.15.62.62,0,0,0-.2-.16l-.24-.11a1.31,1.31,0,0,0-.28,0,1.31,1.31,0,0,0-.28,0,.9.9,0,0,0-.28.08l.16.13.12.06h.33a.34.34,0,0,1,.17.05c.07,0,.1.08.1.12s0,.08-.1.11a.34.34,0,0,1-.12.06H158.9l-.11.07,1.21.7.19-.12v-.06c0-.06,0,0-.06-.08"/><polygon class="cls-42" points="136.21 145.61 143.03 149.62 137.04 153.16 136.21 145.61"/><polygon class="cls-60" points="143.03 149.21 143.03 149.62 142.46 149.94 142.3 149.21 143.03 149.21"/><polygon class="cls-61" points="136.16 145.19 143.03 149.21 137 152.74 136.16 145.19"/><path class="cls-42" d="M314.52,251.82l20.58-12.17a4.28,4.28,0,0,1,3.88.09l28.19,16.34c1.11.65,1.18,1.67.16,2.27l-25.17,14.78a4.31,4.31,0,0,1-3.88-.08l-22.92-13.67Z"/><path class="cls-38" d="M314.38,250.6l21-12.24a4.31,4.31,0,0,1,3.88.08l28.19,16.35c1.11.64,1.19,1.66.17,2.26L342.4,271.84a4.25,4.25,0,0,1-3.88-.09l-23.3-13.6Z"/><polygon class="cls-42" points="314.43 251.01 321.25 255.02 315.26 258.56 314.43 251.01"/><polygon class="cls-42" points="321.25 254.62 321.25 255.03 320.68 255.35 320.52 254.62 321.25 254.62"/><polygon class="cls-61" points="314.38 250.6 321.25 254.62 315.22 258.15 314.38 250.6"/><polyline class="cls-62" points="334.03 250.42 333.43 257.07 350.86 254.68"/><path class="cls-63" d="M420.16,178c-5.73-3.3-10.41-.6-10.38,6s4.71,14.71,10.43,18,10.38.59,10.38-6S425.9,181.32,420.16,178Z"/><polygon class="cls-63" points="424.71 204.39 427.65 202.69 427.13 201.95 424.23 203.64 424.71 204.39"/><polygon class="cls-63" points="410.49 179.71 413.43 178.01 412.92 177.27 410.01 178.96 410.49 179.71"/><path class="cls-3" d="M417.53,179.55c-5.74-3.3-10.41-.59-10.39,6s4.72,14.71,10.43,18,10.39.58,10.39-6S423.26,182.85,417.53,179.55Z"/><path class="cls-63" d="M417.53,182.09c-4.52-2.6-8.21-.46-8.19,4.75s3.72,11.59,8.22,14.19,8.19.46,8.19-4.74S422.05,184.7,417.53,182.09Z"/><path class="cls-17" d="M417.53,183.3c-3.95-2.27-7.16-.4-7.14,4.14a15.91,15.91,0,0,0,7.17,12.38c3.92,2.26,7.14.4,7.14-4.14A15.87,15.87,0,0,0,417.53,183.3Z"/><path class="cls-63" d="M448,208.21a6,6,0,0,0-2.7-4.64c-1.49-.85-2.7-.17-2.7,1.53a6,6,0,0,0,2.7,4.64C446.74,210.6,448,209.92,448,208.21Z"/><polygon class="cls-63" points="444.48 210.5 447.41 208.81 447.11 209.97 445.05 211.07 444.48 210.5"/><polygon class="cls-63" points="445.51 203.72 445.52 209.92 427.31 199.4 428.84 194.13 445.51 203.72"/><polygon class="cls-3" points="443.64 204.79 443.65 210.99 425.44 200.47 426.97 195.2 443.64 204.79"/><path class="cls-3" d="M446,209.27a6,6,0,0,0-2.7-4.65c-1.49-.85-2.7-.16-2.7,1.53a6,6,0,0,0,2.7,4.65C444.8,211.66,446,211,446,209.27Z"/><path class="cls-42" d="M178,249.52a9.76,9.76,0,0,0-10.43-1,6.19,6.19,0,0,0-.79.55,9.84,9.84,0,0,0-1.81-2c-4.43-3.76-12-4.51-16.84-1.69-3.42,2-4.6,5.2-3.46,8.24a9.56,9.56,0,0,0-4.21,1.2c-3.5,2-3.75,5.85-.57,8.54a6.93,6.93,0,0,0,.93.68l-.4.2c-3,1.74-3.23,5-.48,7.37a9.77,9.77,0,0,0,10.35,1.08h0l27.33-15.83h0C180.57,255,180.75,251.82,178,249.52Z"/><rect class="cls-42" x="138.05" y="265.99" width="1.59" height="2.06"/><rect class="cls-42" x="137.71" y="257.15" width="1.59" height="1.71"/><rect class="cls-42" x="144.29" y="249.43" width="1.59" height="1.82"/><path class="cls-38" d="M178,247.63a9.74,9.74,0,0,0-10.43-1,6.19,6.19,0,0,0-.79.55,9.84,9.84,0,0,0-1.81-2c-4.43-3.75-12-4.51-16.84-1.69-3.42,2-4.6,5.2-3.46,8.25a9.55,9.55,0,0,0-4.21,1.19c-3.5,2-3.75,5.85-.57,8.54a6.93,6.93,0,0,0,.93.68l-.4.2c-3,1.75-3.23,5.05-.48,7.37a9.75,9.75,0,0,0,10.35,1.09h0l27.33-15.83h0C180.57,253.16,180.75,249.92,178,247.63Z"/><path class="cls-25" d="M156.81,252.24l3.76,2.18a.81.81,0,0,1,0,1.4l-1.73,1a2,2,0,0,1-2,0l-4-2.31Z"/><path class="cls-25" d="M150.26,255.31v-4.4a.53.53,0,0,1,.54-.52h7.51a.54.54,0,0,1,.27,1L151,255.73a.53.53,0,0,1-.71-.24A.61.61,0,0,1,150.26,255.31Z"/><path class="cls-64" d="M155.15,258.48l1.59.92a2.41,2.41,0,0,0,2.41,0l5.58-3.25a.69.69,0,0,0,.25-.94.67.67,0,0,0-.25-.25l-1.7-1"/><path class="cls-65" d="M277.58,289.55c-11.83,16.74-32.12-3.41-32.12-3.41"/><circle cx="252.51" cy="241.29" r="1.2"/><rect class="cls-30" x="249.16" y="247.08" width="7.67" height="3.04" rx="0.79" ry="0.79" transform="matrix(0.18, -0.98, 0.98, 0.18, -37.34, 452.36)"/><rect class="cls-66" x="260.41" y="264.73" width="10.81" height="12.99"/><path class="cls-31" d="M265.83,217.11h0a13.69,13.69,0,0,1,13.68,13.69v25.72a13.69,13.69,0,0,1-13.68,13.69h0a13.69,13.69,0,0,1-13.69-13.69V230.8A13.69,13.69,0,0,1,265.83,217.11Z"/><path class="cls-67" d="M258.83,249.21s1.92,13,4.93,18.41c1.45,2.64,8.55,1.61,9.45.84s7.8-7.06,8.69-13.38c2.74-19.47,5.57-29.12-.43-32.2-10.12-5.21-9.61-9.87-19.48-7.63a15.36,15.36,0,0,0-7.78,4.24,12.14,12.14,0,0,0-3.64,11,6.2,6.2,0,0,1,1.06-3,4.55,4.55,0,0,1,2-1.46,6.48,6.48,0,0,0-2.19,5c.05,4,2.76,4.64,2.76,4.64s-1.1-2.25,1-5a12.25,12.25,0,0,0,3.38,8.45c.27.26,0,1.76-.31,3.3s-.69,2.17-.46,2.44c.88,1,2.83-.64,3.43-.39C264,245.73,258.83,249.21,258.83,249.21Z"/><circle class="cls-31" cx="259.63" cy="246.8" r="3.51"/><circle class="cls-30" cx="259.63" cy="246.8" r="1.39"/><path class="cls-22" d="M251.67,325.14V286.32A15.42,15.42,0,0,1,267.05,271h0a15.42,15.42,0,0,1,15.37,15.37v38.82"/><path class="cls-68" d="M251.67,325.14V286.32A15.42,15.42,0,0,1,267.05,271h0a15.42,15.42,0,0,1,15.37,15.37v38.82"/><path class="cls-32" d="M252.61,254.33c-.19.18-.38.35-.58.51-.41.33.17.9.57.58a4.78,4.78,0,0,0,.58-.52.4.4,0,0,0-.57-.57Z"/><path class="cls-65" d="M256.61,279.54s-2,6.69-5.45,16C241.42,322,225,299.2,225,299.2"/><path class="cls-69" d="M256.61,279.54s-1.54,5.41-5.45,16"/><polyline class="cls-70" points="233.1 268.33 228.41 280.35 224.01 276.43"/><polygon class="cls-42" points="390.51 152.33 377.28 144.69 350.82 159.96 350.82 159.96 350.82 159.96 350.82 160.32 351.13 160.49 350.82 160.67 350.82 160.67 350.82 160.67 350.82 161.03 351.13 161.2 350.82 161.38 350.82 161.38 350.82 161.38 350.82 161.74 351.13 161.91 350.82 162.09 350.82 162.09 350.82 162.09 350.82 162.45 351.13 162.62 350.82 162.81 350.82 162.81 350.82 162.81 350.82 163.16 351.13 163.34 350.82 163.52 350.82 163.52 350.82 163.52 350.82 163.87 351.13 164.05 350.82 164.23 350.82 164.23 350.82 164.23 350.82 164.58 351.13 164.76 350.82 164.93 350.82 164.93 350.82 164.93 350.82 165.29 364.05 172.93 390.51 157.65 390.51 157.3 390.51 157.3 390.51 157.3 390.2 157.12 390.51 156.94 390.51 156.59 390.51 156.59 390.51 156.59 390.2 156.41 390.51 156.23 390.51 155.88 390.51 155.88 390.51 155.88 390.2 155.7 390.51 155.52 390.51 155.17 390.51 155.17 390.51 155.17 390.19 154.99 390.51 154.81 390.51 154.45 390.51 154.45 390.51 154.45 390.2 154.27 390.51 154.1 390.51 153.74 390.51 153.74 390.51 153.74 390.2 153.57 390.51 153.39 390.51 153.03 390.51 153.03 390.51 153.03 390.2 152.86 390.51 152.68 390.51 152.33 390.51 152.33 390.51 152.33"/><polygon class="cls-44" points="377.5 147.75 349.95 163.65 363.73 171.61 391.27 155.7 377.5 147.75"/><polygon class="cls-44" points="377.5 148.12 349.95 164.02 363.73 171.97 391.27 156.07 377.5 148.12"/><polygon class="cls-43" points="377.5 148.12 390.95 155.89 391.27 155.7 377.5 147.75 349.95 163.65 350.27 163.84 377.5 148.12"/><path class="cls-43" d="M372,160.63a3.08,3.08,0,0,0,1.68-1c.22-.3.35-.71,0-1-.66-.49-2.74,2.15-4.52.82a2.26,2.26,0,0,1-.58-2.91l-.77-.58.67-.9.76.56a3.19,3.19,0,0,1,1.78-1l.72,1.5a2.84,2.84,0,0,0-1.5.92.7.7,0,0,0,0,1c.71.52,2.68-2.2,4.51-.83a2.27,2.27,0,0,1,.56,3l.75.57-.67.9-.76-.57a3.72,3.72,0,0,1-2.08,1.08Z"/><polygon class="cls-43" points="349.95 163.65 349.95 164.02 363.73 171.97 363.73 171.61 349.95 163.65"/><polygon class="cls-43" points="363.73 171.61 363.73 171.97 391.27 156.07 391.27 155.7 363.73 171.61"/><polygon class="cls-44" points="377.5 147.75 349.95 163.65 363.73 171.61 391.27 155.7 377.5 147.75"/><polygon class="cls-71" points="377.5 148.12 349.95 164.02 363.73 171.97 391.27 156.07 377.5 148.12"/><polygon class="cls-13" points="377.5 148.12 390.95 155.89 391.27 155.7 377.5 147.75 349.95 163.65 350.27 163.84 377.5 148.12"/><polygon class="cls-13" points="349.95 163.65 349.95 164.02 363.73 171.97 363.73 171.61 349.95 163.65"/><polygon class="cls-13" points="363.73 171.61 363.73 171.97 391.27 156.07 391.27 155.7 363.73 171.61"/><ellipse class="cls-13" cx="371.92" cy="159.12" rx="4.37" ry="7.54" transform="translate(43.73 395.62) rotate(-58.94)"/><path class="cls-71" d="M372,161.33a3.06,3.06,0,0,0,1.68-1c.22-.3.35-.71,0-1-.66-.5-2.74,2.15-4.52.82a2.26,2.26,0,0,1-.58-2.91l-.77-.58.67-.91.76.57a3.19,3.19,0,0,1,1.78-1l.72,1.5a2.81,2.81,0,0,0-1.5.92.7.7,0,0,0,0,1c.71.53,2.68-2.2,4.51-.82a2.27,2.27,0,0,1,.56,3l.75.56-.67.91-.76-.57a3.72,3.72,0,0,1-2.08,1.08Z"/><circle class="cls-13" cx="356.11" cy="163.65" r="1.44"/><circle class="cls-13" cx="364.07" cy="167.81" r="1.44"/><circle class="cls-13" cx="377.24" cy="151.41" r="1.44"/><circle class="cls-13" cx="385.2" cy="155.57" r="1.44"/><polygon class="cls-44" points="377.5 147.01 349.95 162.92 363.73 170.87 391.27 154.96 377.5 147.01"/><polygon class="cls-44" points="377.5 147.38 349.95 163.28 363.73 171.24 391.27 155.33 377.5 147.38"/><polygon class="cls-43" points="377.5 147.38 390.95 155.15 391.27 154.96 377.5 147.01 349.95 162.92 350.27 163.1 377.5 147.38"/><path class="cls-43" d="M372,159.9a3.08,3.08,0,0,0,1.68-1c.22-.3.35-.71,0-1-.66-.49-2.74,2.16-4.52.82a2.26,2.26,0,0,1-.58-2.91l-.77-.58.67-.9.76.56a3.19,3.19,0,0,1,1.78-1l.72,1.5a2.84,2.84,0,0,0-1.5.92.7.7,0,0,0,0,1c.71.53,2.68-2.2,4.51-.83a2.27,2.27,0,0,1,.56,3l.75.57-.67.9-.76-.57a3.73,3.73,0,0,1-2.08,1.09Z"/><polygon class="cls-43" points="349.95 162.92 349.95 163.28 363.73 171.24 363.73 170.87 349.95 162.92"/><polygon class="cls-43" points="363.73 170.87 363.73 171.24 391.27 155.33 391.27 154.96 363.73 170.87"/><polygon class="cls-44" points="377.5 147.01 349.95 162.92 363.73 170.87 391.27 154.96 377.5 147.01"/><polygon class="cls-71" points="377.5 147.38 349.95 163.28 363.73 171.24 391.27 155.33 377.5 147.38"/><polygon class="cls-13" points="377.5 147.38 390.95 155.15 391.27 154.96 377.5 147.01 349.95 162.92 350.27 163.1 377.5 147.38"/><polygon class="cls-13" points="349.95 162.92 349.95 163.28 363.73 171.24 363.73 170.87 349.95 162.92"/><polygon class="cls-13" points="363.73 170.87 363.73 171.24 391.27 155.33 391.27 154.96 363.73 170.87"/><ellipse class="cls-13" cx="371.91" cy="158.38" rx="4.37" ry="7.54" transform="translate(44.36 395.26) rotate(-58.94)"/><path class="cls-71" d="M372,160.59a3.06,3.06,0,0,0,1.68-1c.22-.3.35-.71,0-1-.66-.49-2.74,2.15-4.52.82a2.26,2.26,0,0,1-.58-2.91l-.77-.58.67-.9.76.56a3.19,3.19,0,0,1,1.78-1l.72,1.5a2.84,2.84,0,0,0-1.5.92.7.7,0,0,0,0,1c.71.52,2.68-2.21,4.51-.83a2.27,2.27,0,0,1,.56,3l.75.56-.67.91-.76-.57a3.72,3.72,0,0,1-2.08,1.08Z"/><circle class="cls-13" cx="356.11" cy="162.92" r="1.44"/><circle class="cls-13" cx="364.07" cy="167.08" r="1.44"/><circle class="cls-13" cx="377.24" cy="150.68" r="1.44"/><circle class="cls-13" cx="385.2" cy="154.84" r="1.44"/><polygon class="cls-44" points="377.5 146.28 349.95 162.18 363.73 170.13 391.27 154.23 377.5 146.28"/><polygon class="cls-44" points="377.5 146.65 349.95 162.55 363.73 170.5 391.27 154.6 377.5 146.65"/><polygon class="cls-43" points="377.5 146.65 390.95 154.41 391.27 154.23 377.5 146.28 349.95 162.18 350.27 162.36 377.5 146.65"/><path class="cls-43" d="M372,159.16a3.08,3.08,0,0,0,1.68-1c.22-.3.35-.71,0-1-.66-.5-2.74,2.15-4.52.81a2.25,2.25,0,0,1-.58-2.9l-.77-.59.67-.9.76.56a3.19,3.19,0,0,1,1.78-1l.72,1.51a2.89,2.89,0,0,0-1.5.91.7.7,0,0,0,0,1c.71.53,2.68-2.2,4.51-.83a2.27,2.27,0,0,1,.56,3l.75.57-.67.9-.76-.56a3.78,3.78,0,0,1-2.08,1.08Z"/><polygon class="cls-43" points="349.95 162.18 349.95 162.55 363.73 170.5 363.73 170.13 349.95 162.18"/><polygon class="cls-43" points="363.73 170.13 363.73 170.5 391.27 154.6 391.27 154.23 363.73 170.13"/><polygon class="cls-44" points="377.5 146.28 349.95 162.18 363.73 170.13 391.27 154.23 377.5 146.28"/><polygon class="cls-71" points="377.5 146.65 349.95 162.55 363.73 170.5 391.27 154.6 377.5 146.65"/><polygon class="cls-13" points="377.5 146.65 390.95 154.41 391.27 154.23 377.5 146.28 349.95 162.18 350.27 162.36 377.5 146.65"/><polygon class="cls-13" points="349.95 162.18 349.95 162.55 363.73 170.5 363.73 170.13 349.95 162.18"/><polygon class="cls-13" points="363.73 170.13 363.73 170.5 391.27 154.6 391.27 154.23 363.73 170.13"/><ellipse class="cls-13" cx="371.91" cy="157.64" rx="4.37" ry="7.54" transform="translate(44.99 394.9) rotate(-58.94)"/><path class="cls-71" d="M372,159.86a3.2,3.2,0,0,0,1.68-1c.22-.3.35-.71,0-1-.66-.49-2.74,2.16-4.52.82a2.26,2.26,0,0,1-.58-2.91l-.77-.58.67-.9.76.56a3.19,3.19,0,0,1,1.78-1l.72,1.5a2.84,2.84,0,0,0-1.5.92.7.7,0,0,0,0,1c.71.53,2.68-2.2,4.51-.83a2.27,2.27,0,0,1,.56,3l.75.57-.67.9-.76-.57a3.72,3.72,0,0,1-2.08,1.08Z"/><circle class="cls-13" cx="356.11" cy="162.18" r="1.44"/><circle class="cls-13" cx="364.07" cy="166.34" r="1.44"/><circle class="cls-13" cx="377.24" cy="149.94" r="1.44"/><circle class="cls-13" cx="385.2" cy="154.1" r="1.44"/><polygon class="cls-44" points="377.5 145.54 349.95 161.44 363.73 169.39 391.27 153.49 377.5 145.54"/><polygon class="cls-44" points="377.5 145.91 349.95 161.81 363.73 169.76 391.27 153.86 377.5 145.91"/><polygon class="cls-43" points="377.5 145.91 390.95 153.67 391.27 153.49 377.5 145.54 349.95 161.44 350.27 161.62 377.5 145.91"/><path class="cls-43" d="M372,158.42a3.08,3.08,0,0,0,1.68-1,.69.69,0,0,0,0-1c-.66-.5-2.74,2.15-4.52.81a2.25,2.25,0,0,1-.58-2.9l-.77-.59.67-.9.76.57a3.19,3.19,0,0,1,1.78-1l.72,1.5a2.89,2.89,0,0,0-1.5.91.7.7,0,0,0,0,1c.71.53,2.68-2.2,4.51-.83a2.3,2.3,0,0,1,.56,3l.75.56-.67.9-.76-.56a3.78,3.78,0,0,1-2.08,1.08Z"/><polygon class="cls-43" points="349.95 161.44 349.95 161.81 363.73 169.76 363.73 169.39 349.95 161.44"/><polygon class="cls-43" points="363.73 169.39 363.73 169.76 391.27 153.86 391.27 153.49 363.73 169.39"/><polygon class="cls-44" points="377.5 145.54 349.95 161.44 363.73 169.39 391.27 153.49 377.5 145.54"/><polygon class="cls-71" points="377.5 145.91 349.95 161.81 363.73 169.76 391.27 153.86 377.5 145.91"/><polygon class="cls-13" points="377.5 145.91 390.95 153.67 391.27 153.49 377.5 145.54 349.95 161.44 350.27 161.62 377.5 145.91"/><polygon class="cls-13" points="349.95 161.44 349.95 161.81 363.73 169.76 363.73 169.39 349.95 161.44"/><polygon class="cls-13" points="363.73 169.39 363.73 169.76 391.27 153.86 391.27 153.49 363.73 169.39"/><ellipse class="cls-13" cx="373.95" cy="156.28" rx="4.39" ry="7.58" transform="translate(46.73 395.42) rotate(-58.84)"/><path class="cls-71" d="M372,159.12a3.08,3.08,0,0,0,1.68-1c.22-.3.35-.71,0-1-.66-.5-2.74,2.15-4.52.81a2.25,2.25,0,0,1-.58-2.9l-.77-.59.67-.9.76.56a3.19,3.19,0,0,1,1.78-1l.72,1.5a2.84,2.84,0,0,0-1.5.92.7.7,0,0,0,0,1c.71.53,2.68-2.2,4.51-.83a2.27,2.27,0,0,1,.56,3l.75.57-.67.9-.76-.56a3.78,3.78,0,0,1-2.08,1.08Z"/><circle class="cls-13" cx="356.11" cy="161.44" r="1.44"/><circle class="cls-13" cx="364.07" cy="165.6" r="1.44"/><circle class="cls-13" cx="377.24" cy="149.2" r="1.44"/><circle class="cls-13" cx="385.2" cy="153.36" r="1.44"/><polygon class="cls-44" points="377.5 144.79 349.95 160.69 363.73 168.65 391.27 152.74 377.5 144.79"/><polygon class="cls-44" points="377.5 145.16 349.95 161.06 363.73 169.01 391.27 153.11 377.5 145.16"/><polygon class="cls-43" points="377.5 145.16 390.95 152.93 391.27 152.74 377.5 144.79 349.95 160.69 350.27 160.88 377.5 145.16"/><path class="cls-43" d="M372,157.67a3.08,3.08,0,0,0,1.68-1c.22-.3.35-.71,0-1-.66-.49-2.74,2.15-4.52.82a2.26,2.26,0,0,1-.58-2.91l-.77-.58.67-.9.76.56a3.19,3.19,0,0,1,1.78-1l.72,1.5a2.84,2.84,0,0,0-1.5.92.7.7,0,0,0,0,1c.71.52,2.68-2.2,4.51-.83a2.27,2.27,0,0,1,.56,3l.75.56-.67.91-.76-.57a3.72,3.72,0,0,1-2.08,1.08Z"/><polygon class="cls-43" points="349.95 160.69 349.95 161.06 363.73 169.01 363.73 168.65 349.95 160.69"/><polygon class="cls-43" points="363.73 168.65 363.73 169.01 391.27 153.11 391.27 152.74 363.73 168.65"/><polygon class="cls-44" points="377.5 144.79 349.95 160.69 363.73 168.65 391.27 152.74 377.5 144.79"/><polygon class="cls-71" points="377.5 145.16 349.95 161.06 363.73 169.01 391.27 153.11 377.5 145.16"/><polygon class="cls-13" points="377.5 145.16 390.95 152.93 391.27 152.74 377.5 144.79 349.95 160.69 350.27 160.88 377.5 145.16"/><polygon class="cls-13" points="349.95 160.69 349.95 161.06 363.73 169.01 363.73 168.65 349.95 160.69"/><polygon class="cls-13" points="363.73 168.65 363.73 169.01 391.27 153.11 391.27 152.74 363.73 168.65"/><ellipse class="cls-13" cx="371.91" cy="156.15" rx="4.37" ry="7.54" transform="translate(46.26 394.18) rotate(-58.94)"/><path class="cls-71" d="M372,158.37a3.06,3.06,0,0,0,1.68-1c.22-.3.35-.71,0-1-.66-.5-2.74,2.15-4.52.82a2.26,2.26,0,0,1-.58-2.91l-.77-.58.67-.91.76.57a3.19,3.19,0,0,1,1.78-1l.72,1.5a2.81,2.81,0,0,0-1.5.92.7.7,0,0,0,0,1c.71.53,2.68-2.2,4.51-.82a2.27,2.27,0,0,1,.56,3l.75.56-.67.91-.76-.57a3.72,3.72,0,0,1-2.08,1.08Z"/><circle class="cls-13" cx="356.11" cy="160.69" r="1.44"/><circle class="cls-13" cx="364.07" cy="164.85" r="1.44"/><circle class="cls-13" cx="377.24" cy="148.45" r="1.44"/><circle class="cls-13" cx="385.2" cy="152.61" r="1.44"/><polygon class="cls-44" points="377.5 144.05 349.95 159.96 363.73 167.91 391.27 152.01 377.5 144.05"/><polygon class="cls-44" points="377.5 144.42 349.95 160.33 363.73 168.27 391.27 152.37 377.5 144.42"/><polygon class="cls-43" points="377.5 144.42 390.95 152.19 391.27 152.01 377.5 144.05 349.95 159.96 350.27 160.14 377.5 144.42"/><path class="cls-43" d="M372,156.94a3.08,3.08,0,0,0,1.68-1c.22-.3.35-.71,0-1-.66-.49-2.74,2.16-4.52.82a2.26,2.26,0,0,1-.58-2.91l-.77-.58.67-.9.76.56a3.19,3.19,0,0,1,1.78-1l.72,1.5a2.84,2.84,0,0,0-1.5.92.7.7,0,0,0,0,1c.71.53,2.68-2.2,4.51-.83a2.27,2.27,0,0,1,.56,3l.75.57-.67.9-.76-.57a3.72,3.72,0,0,1-2.08,1.08Z"/><polygon class="cls-43" points="349.95 159.96 349.95 160.33 363.73 168.27 363.73 167.91 349.95 159.96"/><polygon class="cls-43" points="363.73 167.91 363.73 168.27 391.27 152.37 391.27 152.01 363.73 167.91"/><polygon class="cls-44" points="377.5 144.05 349.95 159.96 363.73 167.91 391.27 152.01 377.5 144.05"/><polygon class="cls-71" points="377.5 144.42 349.95 160.33 363.73 168.27 391.27 152.37 377.5 144.42"/><polygon class="cls-13" points="377.5 144.42 390.95 152.19 391.27 152.01 377.5 144.05 349.95 159.96 350.27 160.14 377.5 144.42"/><polygon class="cls-13" points="349.95 159.96 349.95 160.33 363.73 168.27 363.73 167.91 349.95 159.96"/><polygon class="cls-13" points="363.73 167.91 363.73 168.27 391.27 152.37 391.27 152.01 363.73 167.91"/><ellipse class="cls-13" cx="371.91" cy="155.42" rx="4.37" ry="7.54" transform="translate(46.89 393.82) rotate(-58.94)"/><path class="cls-71" d="M372,157.63a3.08,3.08,0,0,0,1.68-1c.22-.3.35-.71,0-1-.66-.5-2.74,2.15-4.52.82a2.26,2.26,0,0,1-.58-2.91l-.77-.58.67-.91.76.57a3.19,3.19,0,0,1,1.78-1l.72,1.5a2.84,2.84,0,0,0-1.5.92.7.7,0,0,0,0,1c.71.52,2.68-2.21,4.51-.83a2.27,2.27,0,0,1,.56,3l.75.56-.67.91-.76-.57a3.72,3.72,0,0,1-2.08,1.08Z"/><circle class="cls-13" cx="356.11" cy="159.96" r="1.44"/><circle class="cls-13" cx="364.07" cy="164.12" r="1.44"/><circle class="cls-13" cx="377.24" cy="147.72" r="1.44"/><circle class="cls-13" cx="385.2" cy="151.88" r="1.44"/><polygon class="cls-44" points="377.5 143.31 349.95 159.22 363.73 167.17 391.27 151.27 377.5 143.31"/><polygon class="cls-44" points="377.5 143.68 349.95 159.59 363.73 167.54 391.27 151.64 377.5 143.68"/><polygon class="cls-43" points="377.5 143.68 390.95 151.45 391.27 151.27 377.5 143.31 349.95 159.22 350.27 159.4 377.5 143.68"/><path class="cls-43" d="M372,156.2a3.08,3.08,0,0,0,1.68-1c.22-.3.35-.71,0-1-.66-.5-2.74,2.15-4.52.81a2.25,2.25,0,0,1-.58-2.9l-.77-.59.67-.9.76.56a3.19,3.19,0,0,1,1.78-1l.72,1.5a2.84,2.84,0,0,0-1.5.92.7.7,0,0,0,0,1c.71.53,2.68-2.2,4.51-.83a2.27,2.27,0,0,1,.56,3l.75.57-.67.9-.76-.56a3.78,3.78,0,0,1-2.08,1.08Z"/><polygon class="cls-43" points="349.95 159.22 349.95 159.59 363.73 167.54 363.73 167.17 349.95 159.22"/><polygon class="cls-43" points="363.73 167.17 363.73 167.54 391.27 151.64 391.27 151.27 363.73 167.17"/><polygon class="cls-44" points="377.5 143.31 349.95 159.22 363.73 167.17 391.27 151.27 377.5 143.31"/><polygon class="cls-71" points="377.5 143.68 349.95 159.59 363.73 167.54 391.27 151.64 377.5 143.68"/><polygon class="cls-13" points="377.5 143.68 390.95 151.45 391.27 151.27 377.5 143.31 349.95 159.22 350.27 159.4 377.5 143.68"/><polygon class="cls-13" points="349.95 159.22 349.95 159.59 363.73 167.54 363.73 167.17 349.95 159.22"/><polygon class="cls-13" points="363.73 167.17 363.73 167.54 391.27 151.64 391.27 151.27 363.73 167.17"/><ellipse class="cls-13" cx="371.91" cy="154.68" rx="4.37" ry="7.54" transform="translate(47.53 393.47) rotate(-58.94)"/><path class="cls-71" d="M372,156.9a3.2,3.2,0,0,0,1.68-1c.22-.3.35-.71,0-1-.66-.49-2.74,2.15-4.52.82a2.26,2.26,0,0,1-.58-2.91l-.77-.58.67-.9.76.56a3.19,3.19,0,0,1,1.78-1l.72,1.5a2.84,2.84,0,0,0-1.5.92.7.7,0,0,0,0,1c.71.53,2.68-2.2,4.51-.83a2.27,2.27,0,0,1,.56,3l.75.57-.67.9-.76-.57a3.72,3.72,0,0,1-2.08,1.08Z"/><circle class="cls-13" cx="356.11" cy="159.22" r="1.44"/><circle class="cls-13" cx="364.07" cy="163.38" r="1.44"/><circle class="cls-13" cx="377.24" cy="146.98" r="1.44"/><circle class="cls-13" cx="385.2" cy="151.14" r="1.44"/><polygon class="cls-44" points="377.5 142.58 349.95 158.48 363.73 166.43 391.27 150.53 377.5 142.58"/><polygon class="cls-44" points="377.5 142.95 349.95 158.85 363.73 166.8 391.27 150.9 377.5 142.95"/><polygon class="cls-43" points="377.5 142.95 390.95 150.71 391.27 150.53 377.5 142.58 349.95 158.48 350.27 158.66 377.5 142.95"/><path class="cls-43" d="M372,155.46a3.08,3.08,0,0,0,1.68-1,.69.69,0,0,0,0-1c-.66-.5-2.74,2.15-4.52.81a2.25,2.25,0,0,1-.58-2.9l-.77-.59.67-.9.76.57a3.19,3.19,0,0,1,1.78-1l.72,1.5a2.89,2.89,0,0,0-1.5.91.7.7,0,0,0,0,1c.71.53,2.68-2.2,4.51-.83a2.27,2.27,0,0,1,.56,3l.75.57-.67.9-.76-.56a3.78,3.78,0,0,1-2.08,1.08Z"/><polygon class="cls-43" points="349.95 158.48 349.95 158.85 363.73 166.8 363.73 166.43 349.95 158.48"/><polygon class="cls-43" points="363.73 166.43 363.73 166.8 391.27 150.9 391.27 150.53 363.73 166.43"/><polygon class="cls-44" points="377.5 142.58 349.95 158.48 363.73 166.43 391.27 150.53 377.5 142.58"/><polygon class="cls-71" points="377.5 142.95 349.95 158.85 363.73 166.8 391.27 150.9 377.5 142.95"/><polygon class="cls-13" points="377.5 142.95 390.95 150.71 391.27 150.53 377.5 142.58 349.95 158.48 350.27 158.66 377.5 142.95"/><polygon class="cls-13" points="349.95 158.48 349.95 158.85 363.73 166.8 363.73 166.43 349.95 158.48"/><polygon class="cls-13" points="363.73 166.43 363.73 166.8 391.27 150.9 391.27 150.53 363.73 166.43"/><ellipse class="cls-13" cx="371.91" cy="153.94" rx="4.37" ry="7.54" transform="translate(48.16 393.11) rotate(-58.94)"/><path class="cls-71" d="M372,156.16a3.08,3.08,0,0,0,1.68-1c.22-.3.35-.71,0-1-.66-.5-2.74,2.15-4.52.81a2.25,2.25,0,0,1-.58-2.9l-.77-.59.67-.9.76.56a3.19,3.19,0,0,1,1.78-1l.72,1.5a2.84,2.84,0,0,0-1.5.92.7.7,0,0,0,0,1c.71.53,2.68-2.2,4.51-.83a2.27,2.27,0,0,1,.56,3l.75.57-.67.9-.76-.56a3.78,3.78,0,0,1-2.08,1.08Z"/><circle class="cls-13" cx="356.11" cy="158.48" r="1.44"/><circle class="cls-13" cx="364.07" cy="162.64" r="1.44"/><circle class="cls-13" cx="377.24" cy="146.24" r="1.44"/><circle class="cls-13" cx="385.2" cy="150.4" r="1.44"/><polygon class="cls-42" points="344.62 127.47 331.39 119.84 304.94 135.11 304.94 135.11 304.94 135.11 304.94 135.47 305.24 135.65 304.94 135.82 304.94 135.82 304.94 135.82 304.94 136.18 305.24 136.35 304.94 136.53 304.94 136.53 304.94 136.53 304.94 136.89 305.24 137.06 304.94 137.24 304.94 137.24 304.94 137.24 304.94 137.6 305.25 137.78 304.94 137.96 304.94 137.96 304.94 137.96 304.94 138.31 305.24 138.49 304.94 138.67 304.94 138.67 304.94 138.67 304.94 139.02 305.24 139.2 304.94 139.38 304.94 139.38 304.94 139.38 304.94 139.73 305.24 139.91 304.94 140.08 304.94 140.08 304.94 140.08 304.94 140.44 318.17 148.08 344.62 132.8 344.62 132.45 344.62 132.45 344.62 132.45 344.32 132.27 344.62 132.09 344.62 131.74 344.62 131.74 344.62 131.74 344.32 131.56 344.62 131.38 344.62 131.03 344.62 131.03 344.62 131.03 344.32 130.85 344.62 130.67 344.62 130.32 344.62 130.32 344.62 130.32 344.31 130.14 344.62 129.96 344.62 129.6 344.62 129.6 344.62 129.6 344.32 129.43 344.62 129.25 344.62 128.89 344.62 128.89 344.62 128.89 344.32 128.72 344.62 128.54 344.62 128.18 344.62 128.18 344.62 128.18 344.32 128.01 344.62 127.83 344.62 127.48 344.62 127.47 344.62 127.47"/><polygon class="cls-44" points="331.93 122.99 304.39 138.89 318.16 146.84 345.7 130.94 331.93 122.99"/><polygon class="cls-44" points="331.93 123.36 304.39 139.26 318.16 147.21 345.7 131.31 331.93 123.36"/><polygon class="cls-43" points="331.93 123.36 345.38 131.12 345.7 130.94 331.93 122.99 304.39 138.89 304.71 139.08 331.93 123.36"/><path class="cls-43" d="M326.45,135.87a3.07,3.07,0,0,0,1.67-1,.68.68,0,0,0,0-1c-.67-.5-2.74,2.15-4.52.82a2.25,2.25,0,0,1-.58-2.91l-.78-.58.68-.91.75.57a3.19,3.19,0,0,1,1.78-1l.73,1.5a2.83,2.83,0,0,0-1.51.92.71.71,0,0,0,0,1c.7.53,2.67-2.2,4.5-.82a2.25,2.25,0,0,1,.56,3l.76.56-.68.91-.75-.57a3.72,3.72,0,0,1-2.08,1.08Z"/><polygon class="cls-43" points="304.39 138.89 304.39 139.26 318.16 147.21 318.16 146.84 304.39 138.89"/><polygon class="cls-43" points="318.16 146.84 318.16 147.21 345.7 131.31 345.7 130.94 318.16 146.84"/><polygon class="cls-44" points="331.93 122.99 304.39 138.89 318.16 146.84 345.7 130.94 331.93 122.99"/><polygon class="cls-71" points="331.93 123.36 304.39 139.26 318.16 147.21 345.7 131.31 331.93 123.36"/><polygon class="cls-13" points="331.93 123.36 345.38 131.12 345.7 130.94 331.93 122.99 304.39 138.89 304.71 139.08 331.93 123.36"/><polygon class="cls-13" points="304.39 138.89 304.39 139.26 318.16 147.21 318.16 146.84 304.39 138.89"/><polygon class="cls-13" points="318.16 146.84 318.16 147.21 345.7 131.31 345.7 130.94 318.16 146.84"/><ellipse class="cls-13" cx="326.35" cy="134.36" rx="4.37" ry="7.54" transform="translate(42.87 344.6) rotate(-58.94)"/><path class="cls-71" d="M326.45,136.57a3,3,0,0,0,1.67-1,.68.68,0,0,0,0-1c-.67-.5-2.74,2.15-4.52.81a2.23,2.23,0,0,1-.58-2.9l-.78-.59.68-.9.75.57a3.19,3.19,0,0,1,1.78-1l.73,1.5a2.82,2.82,0,0,0-1.51.91.71.71,0,0,0,0,1c.7.53,2.67-2.2,4.5-.83a2.28,2.28,0,0,1,.56,3l.76.57-.68.9-.75-.56a3.78,3.78,0,0,1-2.08,1.08Z"/><circle class="cls-13" cx="310.54" cy="138.89" r="1.44"/><circle class="cls-13" cx="318.5" cy="143.05" r="1.44"/><circle class="cls-13" cx="331.68" cy="126.65" r="1.44"/><circle class="cls-13" cx="339.64" cy="130.81" r="1.44"/><polygon class="cls-44" points="331.93 122.25 304.39 138.15 318.16 146.1 345.7 130.2 331.93 122.25"/><polygon class="cls-44" points="331.93 122.62 304.39 138.52 318.16 146.47 345.7 130.57 331.93 122.62"/><polygon class="cls-43" points="331.93 122.62 345.38 130.39 345.7 130.2 331.93 122.25 304.39 138.15 304.71 138.34 331.93 122.62"/><path class="cls-43" d="M326.45,135.13a3,3,0,0,0,1.67-1,.68.68,0,0,0,0-1c-.67-.49-2.74,2.15-4.52.82A2.25,2.25,0,0,1,323,131l-.78-.58.68-.9.75.56a3.19,3.19,0,0,1,1.78-1l.73,1.5a2.83,2.83,0,0,0-1.51.92.71.71,0,0,0,0,1c.7.52,2.67-2.21,4.5-.83a2.28,2.28,0,0,1,.56,3l.76.56-.68.91-.75-.57a3.74,3.74,0,0,1-2.06,1.11Z"/><polygon class="cls-43" points="304.39 138.15 304.39 138.52 318.16 146.47 318.16 146.1 304.39 138.15"/><polygon class="cls-43" points="318.16 146.1 318.16 146.47 345.7 130.57 345.7 130.2 318.16 146.1"/><polygon class="cls-44" points="331.93 122.25 304.39 138.15 318.16 146.1 345.7 130.2 331.93 122.25"/><polygon class="cls-71" points="331.93 122.62 304.39 138.52 318.16 146.47 345.7 130.57 331.93 122.62"/><polygon class="cls-13" points="331.93 122.62 345.38 130.39 345.7 130.2 331.93 122.25 304.39 138.15 304.71 138.34 331.93 122.62"/><polygon class="cls-13" points="304.39 138.15 304.39 138.52 318.16 146.47 318.16 146.1 304.39 138.15"/><polygon class="cls-13" points="318.16 146.1 318.16 146.47 345.7 130.57 345.7 130.2 318.16 146.1"/><ellipse class="cls-13" cx="326.34" cy="133.62" rx="4.37" ry="7.54" transform="translate(43.51 344.24) rotate(-58.94)"/><path class="cls-71" d="M326.45,135.83a3.07,3.07,0,0,0,1.67-1,.68.68,0,0,0,0-1c-.67-.5-2.74,2.15-4.52.82a2.25,2.25,0,0,1-.58-2.91l-.78-.58.68-.91.75.57a3.19,3.19,0,0,1,1.78-1l.73,1.5a2.83,2.83,0,0,0-1.51.92.67.67,0,0,0-.05,1l.05,0c.7.53,2.67-2.2,4.5-.82a2.25,2.25,0,0,1,.56,3l.76.56-.68.9-.75-.56a3.78,3.78,0,0,1-2.06,1Z"/><circle class="cls-13" cx="310.54" cy="138.15" r="1.44"/><circle class="cls-13" cx="318.5" cy="142.31" r="1.44"/><circle class="cls-13" cx="331.68" cy="125.91" r="1.44"/><circle class="cls-13" cx="339.64" cy="130.07" r="1.44"/><polygon class="cls-44" points="331.93 121.51 304.39 137.42 318.16 145.37 345.7 129.46 331.93 121.51"/><polygon class="cls-44" points="331.93 121.88 304.39 137.78 318.16 145.74 345.7 129.83 331.93 121.88"/><polygon class="cls-43" points="331.93 121.88 345.38 129.65 345.7 129.46 331.93 121.51 304.39 137.42 304.71 137.6 331.93 121.88"/><path class="cls-43" d="M326.45,134.4a3.17,3.17,0,0,0,1.67-1,.68.68,0,0,0,0-1c-.67-.49-2.74,2.16-4.52.82a2.25,2.25,0,0,1-.58-2.91l-.78-.58.68-.9.75.56a3.19,3.19,0,0,1,1.78-1l.73,1.5a2.83,2.83,0,0,0-1.51.92.71.71,0,0,0,0,1c.7.53,2.67-2.2,4.5-.83a2.28,2.28,0,0,1,.56,3l.76.57-.68.9-.75-.57A3.75,3.75,0,0,1,327,136Z"/><polygon class="cls-43" points="304.39 137.42 304.39 137.78 318.16 145.74 318.16 145.37 304.39 137.42"/><polygon class="cls-43" points="318.16 145.37 318.16 145.74 345.7 129.83 345.7 129.46 318.16 145.37"/><polygon class="cls-44" points="331.93 121.51 304.39 137.42 318.16 145.37 345.7 129.46 331.93 121.51"/><polygon class="cls-71" points="331.93 121.88 304.39 137.78 318.16 145.74 345.7 129.83 331.93 121.88"/><polygon class="cls-13" points="331.93 121.88 345.38 129.65 345.7 129.46 331.93 121.51 304.39 137.42 304.71 137.6 331.93 121.88"/><polygon class="cls-13" points="304.39 137.42 304.39 137.78 318.16 145.74 318.16 145.37 304.39 137.42"/><polygon class="cls-13" points="318.16 145.37 318.16 145.74 345.7 129.83 345.7 129.46 318.16 145.37"/><ellipse class="cls-13" cx="326.35" cy="132.88" rx="4.37" ry="7.54" transform="translate(44.15 343.88) rotate(-58.94)"/><path class="cls-71" d="M326.45,135.09a3.07,3.07,0,0,0,1.67-1,.68.68,0,0,0,0-1c-.67-.5-2.74,2.15-4.52.82a2.25,2.25,0,0,1-.58-2.91l-.78-.58.68-.91.75.57a3.19,3.19,0,0,1,1.78-1l.73,1.5a2.83,2.83,0,0,0-1.51.92.71.71,0,0,0,0,1c.7.53,2.67-2.2,4.5-.82a2.28,2.28,0,0,1,.56,3l.76.56-.68.91-.75-.57a3.72,3.72,0,0,1-2.08,1.08Z"/><circle class="cls-13" cx="310.54" cy="137.42" r="1.44"/><circle class="cls-13" cx="318.5" cy="141.58" r="1.44"/><circle class="cls-13" cx="331.68" cy="125.18" r="1.44"/><circle class="cls-13" cx="339.64" cy="129.34" r="1.44"/><polygon class="cls-44" points="331.93 120.77 304.39 136.68 318.16 144.63 345.7 128.73 331.93 120.77"/><polygon class="cls-44" points="331.93 121.14 304.39 137.05 318.16 145 345.7 129.09 331.93 121.14"/><polygon class="cls-43" points="331.93 121.14 345.38 128.91 345.7 128.73 331.93 120.77 304.39 136.68 304.71 136.86 331.93 121.14"/><path class="cls-43" d="M326.45,133.66a3,3,0,0,0,1.67-1,.68.68,0,0,0,0-1c-.67-.5-2.74,2.15-4.52.81a2.23,2.23,0,0,1-.58-2.9l-.78-.59.68-.9.75.56a3.19,3.19,0,0,1,1.78-1l.73,1.5a2.83,2.83,0,0,0-1.51.92.71.71,0,0,0,0,1c.7.53,2.67-2.2,4.5-.83a2.28,2.28,0,0,1,.56,3l.76.57-.68.9-.75-.56a3.78,3.78,0,0,1-2.08,1.08Z"/><polygon class="cls-43" points="304.39 136.68 304.39 137.05 318.16 145 318.16 144.63 304.39 136.68"/><polygon class="cls-43" points="318.16 144.63 318.16 145 345.7 129.09 345.7 128.73 318.16 144.63"/><polygon class="cls-44" points="331.93 120.77 304.39 136.68 318.16 144.63 345.7 128.73 331.93 120.77"/><polygon class="cls-71" points="331.93 121.14 304.39 137.05 318.16 145 345.7 129.09 331.93 121.14"/><polygon class="cls-13" points="331.93 121.14 345.38 128.91 345.7 128.73 331.93 120.77 304.39 136.68 304.71 136.86 331.93 121.14"/><polygon class="cls-13" points="304.39 136.68 304.39 137.05 318.16 145 318.16 144.63 304.39 136.68"/><polygon class="cls-13" points="318.16 144.63 318.16 145 345.7 129.09 345.7 128.73 318.16 144.63"/><ellipse class="cls-13" cx="326.35" cy="132.15" rx="4.37" ry="7.54" transform="translate(44.77 343.52) rotate(-58.94)"/><path class="cls-71" d="M326.45,134.36a3.17,3.17,0,0,0,1.67-1,.68.68,0,0,0,0-1c-.67-.49-2.74,2.15-4.52.82a2.25,2.25,0,0,1-.58-2.91l-.78-.58.68-.9.75.56a3.19,3.19,0,0,1,1.78-1l.73,1.5a2.83,2.83,0,0,0-1.51.92.71.71,0,0,0,0,1c.7.52,2.67-2.2,4.5-.83a2.28,2.28,0,0,1,.56,3l.76.57-.68.9-.75-.57a3.72,3.72,0,0,1-2.08,1.08Z"/><circle class="cls-13" cx="310.54" cy="136.68" r="1.44"/><circle class="cls-13" cx="318.5" cy="140.84" r="1.44"/><circle class="cls-13" cx="331.68" cy="124.44" r="1.44"/><circle class="cls-13" cx="339.64" cy="128.6" r="1.44"/><polygon class="cls-44" points="331.93 120.03 304.39 135.93 318.16 143.88 345.7 127.98 331.93 120.03"/><polygon class="cls-44" points="331.93 120.4 304.39 136.3 318.16 144.25 345.7 128.35 331.93 120.4"/><polygon class="cls-43" points="331.93 120.4 345.38 128.17 345.7 127.98 331.93 120.03 304.39 135.93 304.71 136.12 331.93 120.4"/><path class="cls-43" d="M326.45,132.91a3.07,3.07,0,0,0,1.67-.95.68.68,0,0,0,0-1c-.67-.5-2.74,2.15-4.52.82a2.25,2.25,0,0,1-.58-2.91l-.78-.58.68-.91.75.57a3.19,3.19,0,0,1,1.78-1l.73,1.5a2.83,2.83,0,0,0-1.51.92.67.67,0,0,0-.05.95s0,0,.05.05c.7.53,2.67-2.2,4.5-.82a2.25,2.25,0,0,1,.56,3l.76.56-.68.91-.75-.57a3.72,3.72,0,0,1-2.08,1.08Z"/><polygon class="cls-43" points="304.39 135.93 304.39 136.3 318.16 144.25 318.16 143.88 304.39 135.93"/><polygon class="cls-43" points="318.16 143.88 318.16 144.25 345.7 128.35 345.7 127.98 318.16 143.88"/><polygon class="cls-44" points="331.93 120.03 304.39 135.93 318.16 143.88 345.7 127.98 331.93 120.03"/><polygon class="cls-71" points="331.93 120.4 304.39 136.3 318.16 144.25 345.7 128.35 331.93 120.4"/><polygon class="cls-13" points="331.93 120.4 345.38 128.17 345.7 127.98 331.93 120.03 304.39 135.93 304.71 136.12 331.93 120.4"/><polygon class="cls-13" points="304.39 135.93 304.39 136.3 318.16 144.25 318.16 143.88 304.39 135.93"/><polygon class="cls-13" points="318.16 143.88 318.16 144.25 345.7 128.35 345.7 127.98 318.16 143.88"/><ellipse class="cls-13" cx="326.35" cy="131.41" rx="4.37" ry="7.54" transform="translate(45.41 343.17) rotate(-58.94)"/><path class="cls-71" d="M326.45,133.61a3,3,0,0,0,1.67-1,.68.68,0,0,0,0-1c-.67-.5-2.74,2.15-4.52.81a2.23,2.23,0,0,1-.58-2.9l-.78-.59.68-.9.75.57a3.19,3.19,0,0,1,1.78-1l.73,1.51a2.76,2.76,0,0,0-1.51.91.71.71,0,0,0,0,1c.7.53,2.67-2.2,4.5-.83a2.28,2.28,0,0,1,.56,3l.76.57-.68.9-.75-.56a3.78,3.78,0,0,1-2.08,1.08Z"/><circle class="cls-13" cx="310.54" cy="135.93" r="1.44"/><circle class="cls-13" cx="318.5" cy="140.09" r="1.44"/><circle class="cls-13" cx="331.68" cy="123.69" r="1.44"/><circle class="cls-13" cx="339.64" cy="127.85" r="1.44"/><polygon class="cls-44" points="331.93 119.29 304.39 135.19 318.16 143.14 345.7 127.24 331.93 119.29"/><polygon class="cls-44" points="331.93 119.66 304.39 135.56 318.16 143.51 345.7 127.61 331.93 119.66"/><polygon class="cls-43" points="331.93 119.66 345.38 127.43 345.7 127.24 331.93 119.29 304.39 135.19 304.71 135.38 331.93 119.66"/><path class="cls-43" d="M326.45,132.17a3,3,0,0,0,1.67-1,.68.68,0,0,0,0-1c-.67-.5-2.74,2.15-4.52.82a2.25,2.25,0,0,1-.58-2.91l-.78-.58.68-.91.75.57a3.19,3.19,0,0,1,1.78-1l.73,1.5a2.83,2.83,0,0,0-1.51.92.71.71,0,0,0,0,1c.7.52,2.67-2.21,4.5-.83a2.28,2.28,0,0,1,.56,3l.76.56-.68.91-.75-.57a3.72,3.72,0,0,1-2.08,1.08Z"/><polygon class="cls-43" points="304.39 135.19 304.39 135.56 318.16 143.51 318.16 143.14 304.39 135.19"/><polygon class="cls-43" points="318.16 143.14 318.16 143.51 345.7 127.61 345.7 127.24 318.16 143.14"/><polygon class="cls-44" points="331.93 119.29 304.39 135.19 318.16 143.14 345.7 127.24 331.93 119.29"/><polygon class="cls-71" points="331.93 119.66 304.39 135.56 318.16 143.51 345.7 127.61 331.93 119.66"/><polygon class="cls-13" points="331.93 119.66 345.38 127.43 345.7 127.24 331.93 119.29 304.39 135.19 304.71 135.38 331.93 119.66"/><polygon class="cls-13" points="304.39 135.19 304.39 135.56 318.16 143.51 318.16 143.14 304.39 135.19"/><polygon class="cls-13" points="318.16 143.14 318.16 143.51 345.7 127.61 345.7 127.24 318.16 143.14"/><ellipse class="cls-13" cx="326.35" cy="130.66" rx="4.37" ry="7.54" transform="translate(46.04 342.81) rotate(-58.94)"/><path class="cls-71" d="M326.45,132.87a3,3,0,0,0,1.67-1,.68.68,0,0,0,0-1c-.67-.5-2.74,2.15-4.52.81a2.23,2.23,0,0,1-.58-2.9l-.78-.58.68-.91.75.57a3.19,3.19,0,0,1,1.78-1l.73,1.5a2.83,2.83,0,0,0-1.51.92.67.67,0,0,0-.05.95s0,0,.05.05c.7.53,2.67-2.2,4.5-.82a2.25,2.25,0,0,1,.56,3l.76.56-.68.9-.75-.56a3.78,3.78,0,0,1-2.08,1.08Z"/><circle class="cls-13" cx="310.54" cy="135.19" r="1.44"/><circle class="cls-13" cx="318.5" cy="139.35" r="1.44"/><circle class="cls-13" cx="331.68" cy="122.95" r="1.44"/><circle class="cls-13" cx="339.64" cy="127.11" r="1.44"/><polygon class="cls-44" points="331.93 118.55 304.39 134.46 318.16 142.41 345.7 126.5 331.93 118.55"/><polygon class="cls-44" points="331.93 118.92 304.39 134.82 318.16 142.77 345.7 126.87 331.93 118.92"/><polygon class="cls-43" points="331.93 118.92 345.38 126.69 345.7 126.5 331.93 118.55 304.39 134.46 304.71 134.64 331.93 118.92"/><path class="cls-43" d="M326.45,131.44a3.17,3.17,0,0,0,1.67-1,.68.68,0,0,0,0-1c-.67-.49-2.74,2.15-4.52.82a2.25,2.25,0,0,1-.58-2.91l-.78-.58.68-.9.75.56a3.19,3.19,0,0,1,1.78-1l.73,1.5a2.83,2.83,0,0,0-1.51.92.71.71,0,0,0,0,1c.7.53,2.67-2.2,4.5-.83a2.28,2.28,0,0,1,.56,3l.76.57-.68.9-.75-.57A3.72,3.72,0,0,1,327,133Z"/><polygon class="cls-43" points="304.39 134.46 304.39 134.82 318.16 142.77 318.16 142.41 304.39 134.46"/><polygon class="cls-43" points="318.16 142.41 318.16 142.77 345.7 126.87 345.7 126.5 318.16 142.41"/><polygon class="cls-44" points="331.93 118.55 304.39 134.46 318.16 142.41 345.7 126.5 331.93 118.55"/><polygon class="cls-71" points="331.93 118.92 304.39 134.82 318.16 142.77 345.7 126.87 331.93 118.92"/><polygon class="cls-13" points="331.93 118.92 345.38 126.69 345.7 126.5 331.93 118.55 304.39 134.46 304.71 134.64 331.93 118.92"/><polygon class="cls-13" points="304.39 134.46 304.39 134.82 318.16 142.77 318.16 142.41 304.39 134.46"/><polygon class="cls-13" points="318.16 142.41 318.16 142.77 345.7 126.87 345.7 126.5 318.16 142.41"/><ellipse class="cls-13" cx="326.34" cy="129.92" rx="4.37" ry="7.54" transform="translate(46.68 342.45) rotate(-58.94)"/><path class="cls-71" d="M326.45,132.13a3,3,0,0,0,1.67-1,.68.68,0,0,0,0-1c-.67-.5-2.74,2.15-4.52.82A2.25,2.25,0,0,1,323,128l-.78-.58.68-.91.75.57a3.19,3.19,0,0,1,1.78-1l.73,1.5a2.83,2.83,0,0,0-1.51.92.71.71,0,0,0,0,1c.7.53,2.67-2.2,4.5-.82a2.28,2.28,0,0,1,.56,3l.76.56-.68.91-.75-.57a3.72,3.72,0,0,1-2.06,1.1Z"/><circle class="cls-13" cx="310.54" cy="134.45" r="1.44"/><circle class="cls-13" cx="318.5" cy="138.61" r="1.44"/><circle class="cls-13" cx="331.68" cy="122.21" r="1.44"/><circle class="cls-13" cx="339.64" cy="126.37" r="1.44"/><polygon class="cls-44" points="331.93 117.82 304.39 133.72 318.16 141.67 345.7 125.77 331.93 117.82"/><polygon class="cls-44" points="331.93 118.18 304.39 134.09 318.16 142.04 345.7 126.13 331.93 118.18"/><polygon class="cls-43" points="331.93 118.18 345.38 125.95 345.7 125.77 331.93 117.82 304.39 133.72 304.71 133.9 331.93 118.18"/><path class="cls-43" d="M326.45,130.7a3,3,0,0,0,1.67-1,.68.68,0,0,0,0-1c-.67-.5-2.74,2.15-4.52.81a2.25,2.25,0,0,1-.58-2.9l-.78-.59.68-.9.75.56a3.19,3.19,0,0,1,1.78-1l.73,1.5a2.83,2.83,0,0,0-1.51.92.71.71,0,0,0,0,1c.7.53,2.67-2.2,4.5-.83a2.28,2.28,0,0,1,.56,3l.76.57-.68.9-.75-.57a3.73,3.73,0,0,1-2.08,1.09Z"/><polygon class="cls-43" points="304.39 133.72 304.39 134.09 318.16 142.04 318.16 141.67 304.39 133.72"/><polygon class="cls-43" points="318.16 141.67 318.16 142.04 345.7 126.13 345.7 125.77 318.16 141.67"/><polygon class="cls-44" points="331.93 117.82 304.39 133.72 318.16 141.67 345.7 125.77 331.93 117.82"/><polygon class="cls-71" points="331.93 118.18 304.39 134.09 318.16 142.04 345.7 126.13 331.93 118.18"/><polygon class="cls-13" points="331.93 118.18 345.38 125.95 345.7 125.77 331.93 117.82 304.39 133.72 304.71 133.9 331.93 118.18"/><polygon class="cls-13" points="304.39 133.72 304.39 134.09 318.16 142.04 318.16 141.67 304.39 133.72"/><polygon class="cls-13" points="318.16 141.67 318.16 142.04 345.7 126.13 345.7 125.77 318.16 141.67"/><ellipse class="cls-13" cx="328.11" cy="128.6" rx="4.39" ry="7.58" transform="translate(48.29 342.84) rotate(-58.84)"/><path class="cls-71" d="M326.45,131.39a3,3,0,0,0,1.67-1,.68.68,0,0,0,0-1c-.67-.49-2.74,2.15-4.52.82a2.25,2.25,0,0,1-.58-2.91l-.78-.58.68-.9.75.56a3.19,3.19,0,0,1,1.78-1l.73,1.5a2.83,2.83,0,0,0-1.51.92.71.71,0,0,0,0,1c.7.52,2.67-2.2,4.5-.83a2.28,2.28,0,0,1,.56,3l.76.57-.68.9-.75-.57A3.7,3.7,0,0,1,327,133Z"/><circle class="cls-13" cx="310.54" cy="133.72" r="1.44"/><circle class="cls-13" cx="318.5" cy="137.88" r="1.44"/><circle class="cls-13" cx="331.68" cy="121.48" r="1.44"/><circle class="cls-13" cx="339.64" cy="125.64" r="1.44"/><path class="cls-43" d="M350.81,143.27a8.2,8.2,0,0,0-7.38,0,2.55,2.55,0,0,0-1.52,2.16h0v1.86h0a2.59,2.59,0,0,0,1.52,2.09,8.14,8.14,0,0,0,7.38,0,2.6,2.6,0,0,0,1.52-2.09h0V145.4h0A2.59,2.59,0,0,0,350.81,143.27Z"/><ellipse class="cls-44" cx="347.12" cy="145.4" rx="5.22" ry="3.01"/><ellipse class="cls-23" cx="347.12" cy="145.4" rx="5.22" ry="3.01"/><path class="cls-43" d="M350.81,140.8a8.2,8.2,0,0,0-7.38,0,2.55,2.55,0,0,0-1.52,2.17h0v1.86h0a2.6,2.6,0,0,0,1.52,2.09,8.2,8.2,0,0,0,7.38,0,2.64,2.64,0,0,0,1.52-2.09h0v-1.9h0A2.61,2.61,0,0,0,350.81,140.8Z"/><ellipse class="cls-44" cx="347.12" cy="142.93" rx="5.22" ry="3.01"/><ellipse class="cls-23" cx="347.12" cy="142.93" rx="5.22" ry="3.01"/></g></g></g></g></svg>