<svg xmlns="http://www.w3.org/2000/svg" xmlns:xlink="http://www.w3.org/1999/xlink" viewBox="0 0 400 378.47"><defs><style>.cls-1{isolation:isolate;}.cls-2{fill:url(#linear-gradient);}.cls-3{fill:url(#linear-gradient-2);}.cls-16,.cls-18,.cls-19,.cls-21,.cls-4,.cls-5{fill:none;stroke-miterlimit:10;}.cls-4{stroke:#ffd5be;stroke-width:10.76px;}.cls-16,.cls-18,.cls-19,.cls-21,.cls-25,.cls-26,.cls-29,.cls-4,.cls-5{stroke-linecap:round;}.cls-5{stroke:#007a86;stroke-width:11.44px;}.cls-6{fill:url(#linear-gradient-3);}.cls-7{fill:url(#linear-gradient-4);}.cls-26,.cls-29,.cls-8{fill:#2289e5;}.cls-9{fill:#4ea1ea;}.cls-10{fill:#7ab8ef;}.cls-11{fill:#ffbd80;}.cls-12{fill:#ffc9aa;}.cls-13{fill:#ffb392;}.cls-14,.cls-20{fill:#ffd5be;}.cls-15{fill:#fff;}.cls-16,.cls-18,.cls-19{stroke:#999;}.cls-16{stroke-width:4.69px;}.cls-17{fill:#999;}.cls-18,.cls-21{stroke-width:0.78px;}.cls-19{stroke-width:0.68px;}.cls-20{opacity:0.16;mix-blend-mode:multiply;}.cls-21{stroke:#b2b2b2;}.cls-22{fill:#ffdc62;}.cls-23{fill:#ffedb1;}.cls-24,.cls-27{fill:#00d1c1;}.cls-24{fill-rule:evenodd;}.cls-25{fill:#7a68ab;stroke-width:1.77px;}.cls-25,.cls-26,.cls-29{stroke:#fff;stroke-linejoin:round;}.cls-26{stroke-width:1px;}.cls-28{fill:#d3e7fa;}.cls-29{stroke-width:0.58px;}</style><linearGradient id="linear-gradient" y1="262.82" x2="400" y2="262.82" gradientUnits="userSpaceOnUse"><stop offset="0" stop-color="#fff" stop-opacity="0"/><stop offset="0.09" stop-color="#fcfefe" stop-opacity="0.03"/><stop offset="0.23" stop-color="#f4fdfc" stop-opacity="0.11"/><stop offset="0.38" stop-color="#e7fbf9" stop-opacity="0.24"/><stop offset="0.56" stop-color="#d5f8f5" stop-opacity="0.42"/><stop offset="0.75" stop-color="#bdf3ef" stop-opacity="0.65"/><stop offset="0.95" stop-color="#a1eee8" stop-opacity="0.92"/><stop offset="1" stop-color="#99ede6"/></linearGradient><linearGradient id="linear-gradient-2" x1="21.99" y1="259.13" x2="380.97" y2="259.13" gradientUnits="userSpaceOnUse"><stop offset="0" stop-color="#fff" stop-opacity="0"/><stop offset="0.1" stop-color="#fbfefe" stop-opacity="0.03"/><stop offset="0.23" stop-color="#eefcfb" stop-opacity="0.11"/><stop offset="0.4" stop-color="#d9f8f6" stop-opacity="0.25"/><stop offset="0.58" stop-color="#bdf3ef" stop-opacity="0.43"/><stop offset="0.77" stop-color="#98ece6" stop-opacity="0.68"/><stop offset="0.98" stop-color="#6be4db" stop-opacity="0.96"/><stop offset="1" stop-color="#66e3da"/></linearGradient><linearGradient id="linear-gradient-3" x1="180.95" y1="276.97" x2="180.95" y2="178.68" gradientUnits="userSpaceOnUse"><stop offset="0.09" stop-color="#fff" stop-opacity="0"/><stop offset="0.1" stop-color="#fff" stop-opacity="0.04"/><stop offset="0.14" stop-color="#fff" stop-opacity="0.22"/><stop offset="0.18" stop-color="#fff" stop-opacity="0.39"/><stop offset="0.22" stop-color="#fff" stop-opacity="0.53"/><stop offset="0.27" stop-color="#fff" stop-opacity="0.66"/><stop offset="0.32" stop-color="#fff" stop-opacity="0.77"/><stop offset="0.38" stop-color="#fff" stop-opacity="0.85"/><stop offset="0.45" stop-color="#fff" stop-opacity="0.92"/><stop offset="0.54" stop-color="#fff" stop-opacity="0.97"/><stop offset="0.66" stop-color="#fff" stop-opacity="0.99"/><stop offset="1" stop-color="#fff"/></linearGradient><linearGradient id="linear-gradient-4" x1="180.95" y1="276.97" x2="180.95" y2="178.68" gradientUnits="userSpaceOnUse"><stop offset="0.09" stop-color="#ff912b" stop-opacity="0"/><stop offset="0.13" stop-color="#d38f3f" stop-opacity="0.19"/><stop offset="0.18" stop-color="#a18d55" stop-opacity="0.41"/><stop offset="0.24" stop-color="#778b68" stop-opacity="0.59"/><stop offset="0.31" stop-color="#548a78" stop-opacity="0.74"/><stop offset="0.39" stop-color="#398884" stop-opacity="0.86"/><stop offset="0.49" stop-color="#27888c" stop-opacity="0.94"/><stop offset="0.62" stop-color="#1c8791" stop-opacity="0.99"/><stop offset="1" stop-color="#198792"/></linearGradient></defs><title>35</title><g class="cls-1"><g id="Layer_2" data-name="Layer 2"><g id="elementos_esteira" data-name="elementos esteira"><polygon class="cls-2" points="240.3 147.17 400 239.57 159.42 378.47 0 286.24 240.3 147.17"/><polygon class="cls-3" points="240.4 155.43 380.96 236.59 162.3 362.83 21.99 281.83 240.4 155.43"/><path class="cls-4" d="M207.61,212.73c0,19.64.48,36.3,14.28,41"/><path class="cls-5" d="M203.68,196.17a80,80,0,0,1,4.75,17.46"/><path class="cls-6" d="M207.81,251.73V205.29a26.69,26.69,0,0,0-26.61-26.61h-.49a26.68,26.68,0,0,0-26.61,26.61V277c14.92-2.8,52.83-24.73,52.83-24.73Z"/><path class="cls-7" d="M207.81,251.73V205.29a26.69,26.69,0,0,0-26.61-26.61h-.49a26.68,26.68,0,0,0-26.61,26.61V277c14.92-2.8,52.83-24.73,52.83-24.73Z"/><polygon class="cls-8" points="166.79 276.4 221.89 308.26 290.38 268.36 235.65 236.58 166.79 276.4"/><polygon class="cls-9" points="218.23 261.08 209.86 256.25 197.18 263.34 205.5 268.19 218.23 261.08"/><polygon class="cls-9" points="224.74 269.74 228.88 272.13 232.8 269.88 228.66 267.48 224.74 269.74"/><polygon class="cls-9" points="208.53 274.53 204.45 272.17 200.53 274.43 204.6 276.78 208.53 274.53"/><polygon class="cls-9" points="236.68 272.13 232.79 274.38 236.94 276.76 240.82 274.54 236.68 272.13"/><polygon class="cls-9" points="216.54 279.19 212.47 276.82 208.58 279.07 212.65 281.42 216.54 279.19"/><polygon class="cls-9" points="216.65 269.88 212.54 267.5 208.59 269.78 212.7 272.14 216.65 269.88"/><polygon class="cls-9" points="253.12 276.75 287.29 257.19 282.96 254.69 248.94 274.34 253.12 276.75"/><polygon class="cls-9" points="216.65 274.41 220.75 276.78 224.67 274.54 220.56 272.15 216.65 274.41"/><polygon class="cls-9" points="224.69 288.34 228.76 290.69 232.58 288.5 228.51 286.14 224.69 288.34"/><polygon class="cls-9" points="232.69 279.19 228.58 276.81 224.7 279.05 228.81 281.42 232.69 279.19"/><polygon class="cls-9" points="224.78 265.23 220.64 262.82 216.68 265.11 220.83 267.49 224.78 265.23"/><polygon class="cls-9" points="204.41 281.48 197.96 285.2 201.98 287.52 208.44 283.82 204.41 281.48"/><polygon class="cls-9" points="196.39 276.82 189.92 280.56 193.94 282.88 200.43 279.17 196.39 276.82"/><polygon class="cls-9" points="228.96 262.84 263.17 243.26 258.84 240.77 224.78 260.43 228.96 262.84"/><polygon class="cls-9" points="220.44 290.79 214.04 294.49 218.06 296.81 224.48 293.14 220.44 290.79"/><polygon class="cls-9" points="212.43 286.13 206 289.85 210.02 292.17 216.46 288.48 212.43 286.13"/><polygon class="cls-9" points="245.07 272.11 279.25 252.55 274.92 250.05 240.89 269.7 245.07 272.11"/><polygon class="cls-9" points="240.85 279.01 244.99 281.4 248.84 279.2 244.69 276.79 240.85 279.01"/><polygon class="cls-9" points="237.01 267.47 271.21 247.91 266.88 245.41 232.83 265.07 237.01 267.47"/><polygon class="cls-9" points="232.75 283.69 236.86 286.05 240.71 283.85 236.6 281.46 232.75 283.69"/><polygon class="cls-9" points="224.56 283.85 220.49 281.48 216.63 283.71 220.71 286.05 224.56 283.85"/><polygon class="cls-10" points="290.81 204.8 290.81 268.47 221.89 308.26 221.89 244.59 290.81 204.8"/><polygon class="cls-10" points="166.75 276.43 166.75 281.19 221.89 312.86 221.89 308.26 166.75 276.43"/><polygon class="cls-9" points="290.81 268.47 221.89 308.26 221.89 312.86 290.81 273.42 290.81 268.47"/><polygon class="cls-9" points="290.81 204.8 289.18 203.86 220.31 243.68 221.89 244.59 290.81 204.8"/><polygon class="cls-9" points="221.89 308.26 221.89 244.59 220.31 243.68 220.31 307.35 221.89 308.26"/><path class="cls-11" d="M222.23,273c-.45-.26-.91-.5-1.36-.75l2.65,1.53C223.09,273.51,222.67,273.24,222.23,273Z"/><polygon class="cls-11" points="223.52 273.77 220.87 272.24 220.87 272.24 223.52 273.77 223.52 273.77"/><path class="cls-4" d="M157.78,198.44s-17.58,46.68,8.74,56.25c20,7.3,25.61,9.76,25.61,9.76"/><path class="cls-5" d="M157.78,198.44s-3.44,10.79-4.53,18.69"/><circle class="cls-12" cx="182.01" cy="182.04" r="7.45"/><rect class="cls-12" x="174.56" y="171.79" width="14.84" height="10.93"/><circle class="cls-12" cx="202.26" cy="142.44" r="5.73"/><circle class="cls-13" cx="202.26" cy="142.44" r="2.26"/><rect class="cls-14" x="150.11" y="102.11" width="50.87" height="76.93" rx="25.44" ry="25.44" transform="translate(380.31 233.56) rotate(165.74)"/><circle class="cls-8" cx="183.94" cy="122.48" r="1.73"/><circle class="cls-8" cx="169.95" cy="126.04" r="1.73"/><rect class="cls-13" x="175.81" y="123.83" width="4.39" height="11.07" rx="1.77" ry="1.77" transform="translate(382.4 210.89) rotate(165.74)"/><path class="cls-15" d="M176.48,144.78c3.56.44,7.61-.37,10.24-2.6,0,0,.82,5.89-3.69,6.93S176.48,144.78,176.48,144.78Z"/><path class="cls-16" d="M194.87,149.53s-.46-14.05-14.54-11-8.92,17-8.92,17"/><circle class="cls-14" cx="152.47" cy="155.1" r="5.73"/><circle class="cls-13" cx="152.47" cy="155.1" r="2.26"/><path class="cls-17" d="M154.1,138.58c1.32-.23,2.29.74,2.78,2,3,7.51,1.94,12.13,2,12.51.19,1.15-.74,1.17-.95.3a5.56,5.56,0,0,0-3.06-3.44c-2.09-.94-5.46.27-5.46.27a22.09,22.09,0,0,1-2.79-7.38,2.55,2.55,0,0,1,1.93-3Z"/><path class="cls-18" d="M148.65,122.5s3-13.1,22-19a63.29,63.29,0,0,1,19.41-2.38"/><path class="cls-19" d="M148.58,121.83s.71-10.23,15.51-20.23a59.49,59.49,0,0,1,14.82-7"/><path class="cls-19" d="M148.6,122.57s-1.54-8,6.29-18.6a32.42,32.42,0,0,1,7.76-7.8"/><path class="cls-20" d="M202.63,143.86s-.08,14.35-8.95,22.19c-15.59,13.76-36,.75-36,.75s9.93,16.92,29.78,10.37c8.6-2.84,13.41-10.11,15.27-16.24A30,30,0,0,0,202.63,143.86Z"/><path class="cls-21" d="M150.15,149.25s-2.68-5.12-2.38-7.95"/><path class="cls-21" d="M151.8,148.82s-2.68-5.11-2.38-7.94"/><path class="cls-21" d="M153.39,148.42s-2.68-5.12-2.38-7.95"/><path class="cls-21" d="M155,148.76s-2.28-5.11-2.53-8.66"/><path class="cls-21" d="M156.47,149.45s-1.37-5.09-2.64-9.6"/><path class="cls-21" d="M158.09,151.08s-.69-6.88-3-11.57"/><path class="cls-22" d="M238.4,107.73l5.35-4.78,37.32,19.71a2.33,2.33,0,0,0,2.1.27l.21-.07.21-.07c4.23-1.7,6.79-1.63,6.79-7.08V62.07c0-4-1.88-8.36-4.21-9.74l-59-33.18a2.33,2.33,0,0,0-2.1-.27l-.21.07-.21.07-.22.07-.21.08a.86.86,0,0,0-.21.07l-.21.07a1.29,1.29,0,0,0-.21.07l-.22.07-.21.07-.21.07-.21.07-.21.07-.22.07-.21.07-.21.07-.21.07-.21.07-.22.07-.21.07-.21.08a.86.86,0,0,0-.21.07l-.21.07a1.29,1.29,0,0,0-.21.07l-.22.07-.21.07-.21.07-.21.07-.21.07-.22.07-.21.07c-1.37.38-2.32,2.27-2.32,5.1V79.74c0,4,1.89,8.36,4.21,9.74l8.39,5v16.41Z"/><path class="cls-23" d="M240,101l41.06,21.69c2.33,1.37,4.21-.75,4.21-4.76V64.26c0-4-1.88-8.36-4.21-9.74L220.62,21.34c-2.32-1.37-4.21.75-4.21,4.76V79.74c0,4,1.89,8.36,4.21,9.74l8.39,5v16.41"/><path class="cls-15" d="M273.56,77.34V88.49a3.27,3.27,0,0,1-4.9,2.84L227.35,67.14a3.26,3.26,0,0,1-1.63-2.83V53.16a3.26,3.26,0,0,1,4.9-2.83l41.31,24.18A3.26,3.26,0,0,1,273.56,77.34Z"/><path class="cls-22" d="M112.6,152.84l-38,19.94a2.12,2.12,0,0,1-1.93.25l-.19-.06-.2-.07c-3.87-1.55-6.23-1.49-6.23-6.49V117.18c0-3.67,1.73-7.68,3.87-8.94L124,77.79a2.12,2.12,0,0,1,1.93-.25l.19.07a1.52,1.52,0,0,1,.2.06l.19.07a.76.76,0,0,1,.2.06l.19.07a.6.6,0,0,1,.19.06l.2.07a.7.7,0,0,1,.19.06l.2.06.19.07.2.06.19.07.2.06.19.07.19.06.2.07.19.06.2.07.19.06.2.07.19.06.2.07.19.06.19.07a1.17,1.17,0,0,1,.2.06l.19.07a1.52,1.52,0,0,1,.2.06l.19.07a1.52,1.52,0,0,1,.2.06l.19.07c1.26.34,2.13,2.07,2.13,4.67v49.23c0,3.68-1.73,7.68-3.86,8.94l-7.7,4.57,5.47,4.18Z"/><path class="cls-23" d="M74.56,110.25,130,79.8c2.13-1.26,3.86.69,3.86,4.36v49.23c0,3.68-1.73,7.68-3.86,8.94l-7.7,4.57,5.47,4.18-15.57,1.8-37.68,19.9c-2.14,1.27-3.87-.69-3.87-4.36V119.19C70.69,115.52,72.42,111.51,74.56,110.25Z"/><path class="cls-22" d="M184.66,84.23l7.68-14.74L200,64.93c2.14-1.27,3.87-5.27,3.87-9V6.75c0-2.6-.87-4.33-2.13-4.67l-.2-.07L201.38,2l-.2-.07a1.06,1.06,0,0,0-.19-.06l-.19-.07-.2-.06-.19-.07-.2-.06L200,1.49l-.2-.06-.19-.07-.2-.06-.19-.07-.19-.06-.2-.07L198.66,1l-.2-.07-.19-.06-.2-.07-.19-.06-.2-.07-.19-.06a.7.7,0,0,0-.19-.06l-.2-.07a.7.7,0,0,0-.19-.06l-.2-.07-.19-.06-.2-.07L196.13.2l-.2-.07A2.1,2.1,0,0,0,194,.38L139.87,30.83c-2.13,1.26-3.86,5.27-3.86,8.94V89c0,5,2.35,4.94,6.23,6.49l.19.07.2.06a2.1,2.1,0,0,0,1.92-.25l34.36-18.14,1.2,3.43Z"/><path class="cls-23" d="M144.55,32.84,200,2.39c2.14-1.26,3.87.69,3.87,4.36V56c0,3.68-1.73,7.68-3.87,9l-7.69,4.56-7.68,14.74-2.42-8.76-37.69,19.9c-2.13,1.27-3.86-.69-3.86-4.36V41.78C140.69,38.11,142.42,34.1,144.55,32.84Z"/><path class="cls-24" d="M249.8,82.42a5.16,5.16,0,0,1-3.15-1,18.84,18.84,0,0,1-5.8-8.79c-.7-2.44-2-7-.82-10.62,1.08-3.3,4.92-4.5,5.68-4.71l.53-.14a1.9,1.9,0,0,1,.54-.07,2.11,2.11,0,0,1,2.11,2c0,.46.12,2.72.1,4.14a2.27,2.27,0,0,1-1.56,2.4l-2.72.7a14.62,14.62,0,0,0,2.81,8.58L250,73.77a2,2,0,0,1,.87-.19,2.56,2.56,0,0,1,1.91,1l2.36,3.61-.44.42.5-.33a2,2,0,0,1-.75,2.84c-.18.08-1.51.66-2,.8a10.87,10.87,0,0,1-2.1.43Z"/><path class="cls-15" d="M246.78,57.68a1.51,1.51,0,0,1,1.51,1.4h0c0,.56.12,2.73.1,4.09,0,1.57-1.1,1.83-1.1,1.83l-3,.77a.24.24,0,0,0-.18.22,15.08,15.08,0,0,0,3.12,9.47.23.23,0,0,0,.18.08.11.11,0,0,0,.08,0c.45-.19,1.77-.76,2.76-1.21a1.65,1.65,0,0,1,.63-.13,1.92,1.92,0,0,1,1.41.79l2.36,3.6.06.09a1.36,1.36,0,0,1-.52,2s-1.43.62-1.87.75a9.62,9.62,0,0,1-2,.41,4.87,4.87,0,0,1-.54,0,4.58,4.58,0,0,1-2.8-.89,18.26,18.26,0,0,1-5.58-8.48c-.84-2.92-1.89-7-.82-10.27,1-3,4.67-4.15,5.26-4.31l.53-.14a1.74,1.74,0,0,1,.39,0m0-1.2a2.74,2.74,0,0,0-.7.09l-.53.14c-.81.22-4.92,1.51-6.09,5.1-1.24,3.83.09,8.48.81,11a19.4,19.4,0,0,0,6,9.12A5.81,5.81,0,0,0,249.8,83c.22,0,.43,0,.65,0a11.12,11.12,0,0,0,2.21-.45c.49-.14,1.76-.69,2-.8l0,0h0a2.55,2.55,0,0,0,1-3.72l0-.08-2.35-3.59A3.14,3.14,0,0,0,250.88,73a2.71,2.71,0,0,0-1.11.24l-2,.9a13.91,13.91,0,0,1-2.41-7.38l2.27-.58a2.89,2.89,0,0,0,2-3c0-1.39-.07-3.54-.1-4.16a2.72,2.72,0,0,0-2.71-2.55Z"/><path class="cls-15" d="M150.75,40.53V51.9a3.33,3.33,0,0,0,5,2.89l36.16-21a3.35,3.35,0,0,0,1.67-2.89V19.54a3.33,3.33,0,0,0-5-2.89l-36.17,21A3.31,3.31,0,0,0,150.75,40.53Z"/><path class="cls-15" d="M88.75,112.6h0a1.72,1.72,0,0,0,2.58,1.49L114,101a1.73,1.73,0,0,0,.86-1.49h0A1.72,1.72,0,0,0,112.3,98l-22.69,13.1A1.72,1.72,0,0,0,88.75,112.6Z"/><path class="cls-15" d="M85,123.09h0a1.72,1.72,0,0,0,2.58,1.49l22.69-13.1a1.69,1.69,0,0,0,.86-1.49h0a1.72,1.72,0,0,0-2.58-1.49L85.85,121.6A1.73,1.73,0,0,0,85,123.09Z"/><path class="cls-15" d="M83.44,132h0A1.72,1.72,0,0,0,86,133.5l22.69-13.1a1.73,1.73,0,0,0,.86-1.49h0a1.72,1.72,0,0,0-2.58-1.49L84.3,130.52A1.7,1.7,0,0,0,83.44,132Z"/><path class="cls-25" d="M95.7,129l20.78-12.29V94.58l-8.65,18.59-13.07-5.75v22.14l.2-.13.67-.39Z"/><polygon class="cls-25" points="116.48 94.58 94.76 107.42 107.83 113.17 116.48 94.58"/><path class="cls-26" d="M171.16,40.87c-.15,0-1.13.4-1.2.42-3.69.84-3-4.82-3-4.82l-1.7.91-1.69.9s.68,4.92-3,8c-.07.06-1.05.74-1.2.86a6.89,6.89,0,0,0-2.6,4.89v3.41c0,1,.64,1.43,1.43,1l7.06-3.75L172.3,49a3.1,3.1,0,0,0,1.44-2.53V43C173.53,40.6,172.05,40.62,171.16,40.87Z"/><path class="cls-8" d="M161.69,46s2.69.74,3.6.27,3.59-4,3.59-4h0c-2.46-.41-1.92-4.87-1.92-4.87l-1.7.9-1.69.91A9.89,9.89,0,0,1,161.69,46Z"/><ellipse class="cls-26" cx="165.31" cy="35.2" rx="7.57" ry="4.09" transform="translate(87.04 185) rotate(-74.43)"/><path class="cls-26" d="M169.55,31.33c.47-.24,1.09-7.38-2-4.89a14.35,14.35,0,0,0-3,1.16c-3.46,2-4.07,3.32-4.07,7.87l5.24-2.78a4.07,4.07,0,0,0,1.88-2S168.7,31.77,169.55,31.33Z"/><path class="cls-27" d="M189.6,23.45l-4.73,11.49a.34.34,0,0,1-.3.24.5.5,0,0,1-.44-.14l-6-4.72-.16-.11a1,1,0,0,1-.31-.42.66.66,0,0,1,0-.46l.42-1c.13-.27.44-.31.74-.09l.08.06,4.22,3.31c.15.11.31.09.37-.05l4-9.62h.06c.12-.27.43-.32.73-.09l1.06.77a.7.7,0,0,1,.29.82Z"/><path class="cls-15" d="M150.75,68.1V79.47a3.33,3.33,0,0,0,5,2.88l36.16-21a3.33,3.33,0,0,0,1.67-2.89V47.1a3.33,3.33,0,0,0-5-2.88l-36.17,21A3.34,3.34,0,0,0,150.75,68.1Z"/><path class="cls-28" d="M173.81,61V64.8a1.11,1.11,0,0,0,1.67,1l12.12-7a1.13,1.13,0,0,0,.56-1V54a1.12,1.12,0,0,0-1.68-1l-12.11,7A1.11,1.11,0,0,0,173.81,61Z"/><path class="cls-29" d="M168.68,68.05c-.09,0-.66.23-.7.24-2.14.49-1.74-2.79-1.74-2.79l-1,.52-1,.53a5.48,5.48,0,0,1-1.74,4.64s-.61.43-.69.5a4,4,0,0,0-1.51,2.83v2c0,.56.37.82.83.58l4.09-2.18,4.09-2.17a1.83,1.83,0,0,0,.84-1.48v-2C170.05,67.89,169.2,67.91,168.68,68.05Z"/><path class="cls-8" d="M163.19,71s1.56.42,2.08.15a15.54,15.54,0,0,0,2.09-2.35h0c-1.43-.23-1.12-2.82-1.12-2.82l-1,.52-1,.53A5.73,5.73,0,0,1,163.19,71Z"/><ellipse class="cls-29" cx="165.29" cy="64.76" rx="4.39" ry="2.37" transform="translate(58.54 206.61) rotate(-74.43)"/><path class="cls-29" d="M167.75,62.52c.27-.14.62-4.28-1.18-2.84a8.58,8.58,0,0,0-1.73.67c-2,1.15-2.36,1.93-2.36,4.57l3-1.62a2.33,2.33,0,0,0,1.09-1.13S167.25,62.77,167.75,62.52Z"/><path class="cls-22" d="M272.6,100.85,229,75.69A1.92,1.92,0,0,0,227.11,79l43.57,25.16a2,2,0,0,0,1,.26,1.93,1.93,0,0,0,1-3.59Z"/><path class="cls-22" d="M80.68,157.11,124.25,132a1.92,1.92,0,0,1,1.92,3.33L82.6,160.44a1.92,1.92,0,0,1-2.63-.71A1.92,1.92,0,0,1,80.68,157.11Z"/><path class="cls-22" d="M80.68,146.54l43.57-25.16a1.93,1.93,0,0,1,1.92,3.34L82.6,149.87a1.92,1.92,0,0,1-2.63-.71A1.92,1.92,0,0,1,80.68,146.54Z"/><path class="cls-22" d="M272.83,63,229.05,37.72a1.93,1.93,0,0,0-1.93,3.35L270.9,66.35a1.93,1.93,0,0,0,2.64-.7A1.93,1.93,0,0,0,272.83,63Z"/></g></g></g></svg>